<?xml version="1.0" encoding="utf-8"?>
<!-- Generator: Adobe Illustrator 18.0.0, SVG Export Plug-In . SVG Version: 6.00 Build 0)  -->
<!DOCTYPE svg PUBLIC "-//W3C//DTD SVG 1.1//EN" "http://www.w3.org/Graphics/SVG/1.1/DTD/svg11.dtd">
<svg version="1.1" id="Layer_1" xmlns="http://www.w3.org/2000/svg" xmlns:xlink="http://www.w3.org/1999/xlink" x="0px" y="0px"
	 viewBox="0 0 1669.2 2224" enable-background="new 0 0 1669.2 2224" xml:space="preserve">
<g>
	<path fill-rule="evenodd" clip-rule="evenodd" d="M1439.7,1612c346.2-549,253.2-1003.4,33.3-1300
		C1178.4-85.4,242.7-212.7,21.4,597.8c-81.8,299.5,88.5,922.9,216.1,1148.3C729.9,2616.1,1112.8,2130.4,1439.7,1612z"/>
	<path fill-rule="evenodd" clip-rule="evenodd" fill="#FFFFFF" d="M306.3,1425.1c-8.1,7.9-17,15-25.8,22.6
		c-9.9-8.5-13.9-28.2-8.6-44.4c2.7-8.2,5.3-16.7,6.2-25.2c0.3-3.3-4.3-7.1-6.7-10.7c-3,2.9-6.3,5.6-9,8.7c-4.1,4.8-7.8,10-11.6,15
		c-4.1-5.1-9.9-9.6-11.9-15.5c-6-17.6-10.3-35.8-15.5-53.7c-9-31.1-18.2-62.1-27.4-93.4c14.8-5.6,21.2-1.1,46.4,35.2
		c10.9-11.8,6.4-30.5-10.1-38.9c-8.8-4.5-18.6-7-27.6-11.1c-12.4-5.7-22.7-13.1-17.6-29.4c0.5-1.6,0.7-3.7,0.1-5.2
		c-13.2-34-26.5-68-39.7-102c-2.2-5.8-4.7-11.9-4.9-17.9c-0.6-23.3-0.1-46.7-0.5-70.1c-0.2-16.4-4.3-20.3-17.7-18.8
		c-0.6,0.1-1.1,0.1-1.7,0.2c-0.6-3.1-1.1-6.1-1.7-9.2c8-5,7-16.2,7.2-25.4c0.6-32.4,0.6-32.4-29.9-45.2c-8.6-3.6-9.5-9.9-5.1-17
		c5.5-8.9,10-19.7,18.1-25.4c7.4-5.3,19.2-7.4,28.5-6.3c11.3,1.3,21.3,2.9,33.7-7c-9.8-4-20.2-5-23.6-10.5c-3.3-5.2,0.8-15,2.1-27.2
		c-7.6,4.5-13,6.7-17.1,10.3c-4.7,4.2-7.9,10.2-12.6,14.5c-15,13.7-23.6,12.4-35.3-4.3c-5.9-8.4-12.3-16.3-19.7-26.1
		c1-1.8,2.8-6.1,5.5-9.6c8.9-11.5,11.6-23.7,7.2-37.8c-6.7-21.5-13-43.1-18.6-64.9c-0.8-3.1,3-10,5.9-10.8
		c4.4-1.3,10.1,0.6,14.9,2.3c3.8,1.3,6.7,5.1,10.5,6.2c36,10.1,49.8,37.9,59.2,70.8c6.9,24,17.1,47.1,25.9,70.6
		c5.4,14.3-2.5,45.2-14.9,52.3c-4.4,2.5-11.1,0.7-16.6,1.4c-3.8,0.5-9,0.8-10.7,3.3c-1.5,2.1,0.4,7.4,2,10.6
		c2.4,5.1,5.9,9.7,9.6,15.5c9.4-8,18.2-14.6,26-22.2c6.3-6.2,13.7-12.6,20.6-5.1c4.3,4.6,5.4,15,3.7,21.8
		c-8.4,33.9-17.9,67.6-27.6,101.2c-3.6,12.3-1.5,22.5,5.5,33c19.4,29.1,39.2,58.1,57,88.2c7.4,12.6,10.8,27.9,14.9,42.2
		c2.8,10,4.3,20.6,5.4,31c2.2,21.4,6.1,41,33.9,41.4c1.4,0,3.1,1.7,4.1,3c1,1.3,1.3,3.1,1.8,4.5c-0.8,1.2-1.3,2.8-2.1,3
		c-25.1,7.5-23.7,7.2-18.5,33.2c6.3,31.3,10.4,63.2,14.2,94.9c1.4,11.3,1.7,19.8,16.2,22.2c5.7,0.9,12.2,9.9,14.1,16.5
		C317.6,1413.9,310.7,1420.8,306.3,1425.1z M1460.7,907.4c-5.3,0.4-10.9-16.5-7.3-21.6c1.8-2.5,5.2-3.8,12.1-8.6
		c-9.4-5.6-16.2-9.5-22.8-13.7c-4.3-2.8-8.2-6-12.4-9.1c4.7-3.3,9.4-9.4,14.2-9.5c10.2-0.1,12-5,11.6-13.1
		c-1-23.3-2.1-46.5-2.9-69.8c-0.7-19.8-3.9-23-23.4-24.9c-5.9-0.6-11.7-2.9-21.4-5.5c15-15.2,26.6-26.3,37.3-38.2
		c1.4-1.6,2.7-4.4,3.5-7c-8-3.6-16-7.2-24-10.9c-14,11-20.8,10.8-33.3-3.8c-8.4-9.9-16.9-12.1-29.2-9.7
		c-19.7,3.8-32.4-5.7-39.2-30.9c-3.2-1.3-6.5-2.6-9.8-3.8c0,3.9-0.4,8-1.3,12.2c-1.3,6.6-6.4,12.4-9.8,18.6c-4.8-4.9-11.9-9-14-14.9
		c-3.2-9.2-6.1-18.5-8.9-27.8c-5.6-1.7-11.2-3.3-16.8-4.7c4.4,5.1,7.9,11.8,10,21c-7.6-4.5-12.6-7.3-17.5-10.4
		c-16.3-10.2-24.6-7-31.5,10.9c-1.8,4.6-7.5,10.7-11.7,10.9c-17.2,0.8-34.6,0.7-51.6-1.5c-5.7-0.7-12.1-7.5-15.1-13.1
		c-2.7-5.1-1.2-12.4-1.6-19.3c-33.8-3.9-68.7-9.3-103.9,2.4c-1.9-15.2-3.6-30-5.6-44.8c-2-15-6-30.1-5.8-45
		c0.3-17.8-7.5-30-19.7-40.8c-3.1-2.7-7.9-4.4-9.3-7.7c-4.9-11.5-10-23.4-12-35.6c-0.5-2.8,11.3-7.2,16.8-11.6
		c2.8-2.2,6.8-6.8,6.1-8.8c-3.8-10.6-7.2-22.3-14.4-30.2c-2.6-2.8-15.8,4-24,6.7c-3.3,1.1-6.9,2.2-9.3,4.4c-2.6,2.4-5.7,6.2-5.4,9.2
		c2.1,23.7,3.9,47.6,8.1,70.9c2.1,11.6,6.2,25.9,14.6,32.7c14.7,11.8,15.8,25.8,16.7,41.8c0.7,12.1,3,24.2,4.7,36.3
		c1.7,12.1,4.2,24.1,5.2,36.2c1,12-2.1,25.4,16,27.8c2.5,0.3,4.9,4.8,6.4,7.8c12.9,25.5,25.9,50.9,38,76.8c3.1,6.6,4.1,14.7,3.8,22
		c-0.5,13.9-3.8,27.8-3.5,41.7c0.2,8.4,2.4,19.9,8.2,24.5c20.5,16.5,40.1,33.2,54.2,56.1c6.4,10.3,17.9,8.4,23.8-2.7
		c3.1-5.9,5-13.2,5-19.9c-0.1-18.5-1.2-37.1-2.4-55.6c-0.9-12.8-7.3-16.2-18.8-10.5c-10.7,5.3-21.3,10.8-34.7,17.6
		c1.9-10.2,3.3-17.4,4.7-24.6c1.4-7.3,3-14.5,4.4-21.8c4,6.3,8,12.7,12.9,20.4c21.7,1.1,24.4-2.3,29.4-24.2
		c3.8-16.8,10.5-33.2,18.1-48.7c5.5-11.2,4.9-17.5-7.8-18.8c-6.1-0.6-12.9,2.9-19.1,5.1c-5.8,2.1-11.3,5-20,8.9
		c1.5-9.6,2.2-14.4,3-19.3c-25.1,3.3-29.7,27.5-45.2,41.2c-2.2-10.8-2.1-20.5-2.2-30.3c-0.1-13.7,6.6-20.2,20.4-20.4
		c25.6-0.4,51.1-1.1,76.7-2.1c4.3-0.2,9.4-1.8,12.6-4.5c27-22.6,57.6-20.8,88.6-12.4c16.5,4.5,15.8,5.5,5.4,18.9
		c-2.6,3.4-3.9,11.4-1.7,14.2c6.7,8.8,30.5,10.7,41.9,4.6c-1.9-8.3-4.8-16.6-5.4-25.1c-0.3-4,3.6-8.3,5.6-12.4
		c2.9,2.8,6.7,5.1,8.6,8.5c2.9,5,4.5,10.7,6.7,16.1c5.6,13.6,14.1,20.3,30,16c8.2-2.2,17.4-1.4,26.1-0.8c3.9,0.3,7.6,3.4,11.4,5.2
		c-3.1,3.7-5.6,8.9-9.6,10.7c-4.3,1.9-10.4,1.7-15.1,0.3c-26.4-7.7-30.1-5-28.4,22.8c0.4,5.7,1.5,11.7,3.6,16.9
		c21.9,54.1,43.9,108.1,66.2,162c7.8,18.8,22.7,24.8,40.3,15.5C1477.9,926.3,1474.3,906.3,1460.7,907.4z M610.3,2131.7
		c-2.6-11.3-4.9-22.8-7.9-34c-19.2-70.9-39-141.7-57.8-212.7c-12-45.7-22.6-91.7-33.9-137.5c-1.5-6.2-5.5-12.4-5.1-18.3
		c0.3-4.4,5.2-10.5,9.5-11.9c5-1.7,11.8-0.2,17,1.9c1.7,0.7,2.3,8.6,0.7,11.8c-8.8,17.5-7.3,21.3,12.3,26.9
		c17.9,5.2,36,10,53.7,15.8c19.2,6.4,38.9-3.4,44.9-23c3.8-12.5,8-25,13-40.6c-17.6-1.7-36.9-7.5-54.6-4.1
		c-17.6,3.3-33.4,15.7-53.2,25.8c-0.2-20.6,1.5-36.3-12.5-49.5c-20.1-18.9-19-20.1-42.9-11.8c-1.3-2.9-3.1-5.9-3.8-9
		c-22.2-110.3-44.6-220.6-65.8-331c-2.8-14.5-9.6-24-20.4-34.1c-18.1,28.5,0.3,62.5-13.8,90.1c-2,0-4-0.1-5.9-0.1
		c-1.5-8.5-3.1-17-4.6-25.4c0.4,33.3-10.1,68.3,17.5,97.5c1.8-7,3.4-14.5,1.5-20.9c-3.6-12.2-2-22.2,9.1-34.2
		c9.2,26.4,15.9,50.5,18.3,75.7c0.3,3.1-3.8,6.6-6.6,11.2c-5.6-8.1-9.4-13.6-13.3-19.1c-1.4,0.6-2.8,1.1-4.2,1.7
		c0,4.2-1,8.8,0.2,12.6c6.8,21.7,14,43.2,21.2,64.7c16.4,49.2,37.1,97.5,48.6,147.8c30.9,134.9,62.8,269.3,113.3,398.5
		c5.1,13,12.6,25.1,19,37.6C605.9,2133.3,608.1,2132.5,610.3,2131.7z M212.4,1045.2c68.9,13.2,138.5,18.1,208.5,18.2
		c18.8,0,37.7,1.8,58,2.8c0-28.5-0.4-59.8,0.3-91.1c0.2-9,1.6-19,5.7-26.8c10.5-19.9,22.9-38.9,36-60.7c-10.3,1.8-20,2.4-28.9,5.3
		c-32.3,10.2-64.3,21.2-96.4,31.9c-8.5,2.8-18.8,6-23.3-4.1c-8.2-18.4-22.5-16.2-36.8-12.8c-17.5,4.2-34.7,10-52,14.9
		c-3.8,1.1-7.9,1-16.3,1.9c8.7-10.9,14.2-17.9,21.6-27.2c-46.2,7.8-89.6,67.3-73,98.7c6.7-4.7,15.3-7.8,19.2-14
		c12.6-19.8,31.9-25.9,52.8-30.6c10.7-2.5,21-7.2,31.7-9.5c6.9-1.5,14.3-0.3,21.5-0.3c-34.7,23.9-69.5,43.8-104,64.3
		c-14,8.3-26.5,18.3-33,35.2C207.5,1043,209.8,1044.7,212.4,1045.2z M416.3,953.1c-0.7,5.5-3.8,12.7-8.2,15.5
		c-22.5,14.5-45.9,27.5-68.7,41.6c-10.9,6.7-20.6,15.3-31.7,21.6c-4.6,2.6-11.4,1.5-17.1,2.1c0.9-5.8-0.3-13.5,3-17
		c7.9-8.3,17.5-15.3,27.1-21.7c21.3-14.3,42.9-28.2,64.6-41.9c5.8-3.6,12.3-6,19.9-9.5C409.5,947.2,416.7,950.6,416.3,953.1z
		 M301.8,436.9c-2.2,0.6-4.4,2-6.6,2.2c-15.2,1.7-19.9,10.6-16.7,24.6c4.7,20.4,9.7,40.8,14.6,61.2c10.7,44.2,21.5,88.4,32.1,132.6
		c2.7,11.4,7.8,20.1,20,24.1c5.6,1.8,10.1,7.2,15.1,10.9c-0.7,1-1.5,2-2.2,3c-5.6-2.2-11.3-4.4-18.3-7.2c-7.8,18.4-6,36.5-3,54
		c3.3,18.9,3.9,39.7,28.9,47c11,3.3,10.1,13-0.1,19.5c-1.9,1.2-4.4,1.6-6.4,2.8c-13.9,7.9-14.4,14.6-2.4,24.5
		c5.3,4.4,9.6,10,14.6,14.8c3.7,3.5,7.7,6.6,11.6,9.9c1.3-1.1,2.6-2.1,3.9-3.2c-3.9-9.5-9.1-18.7-11-28.5
		c-1.1-5.4,3.3-11.9,5.2-17.9c5.5,1.9,12.5,2.4,16.1,6.1c5.5,5.7,8.7,13.7,12.9,20.7c4.5,7.4,9,14.7,13.5,22
		c1.8-1.2,3.7-2.4,5.5-3.5c-18.8-32.8-37.7-65.6-58.2-101.3c4.8-1.8,12.6-4,19.7-7.5c3.6-1.8,7.8-5.5,8.4-9c0.5-2.8-3.5-8.4-6.4-9.2
		c-3.4-0.9-8.3,1.5-11.6,3.9c-3.8,2.8-6.6,7.2-9.9,11c-11.8-13.3-11.8-15.7-0.9-27.2c16.4-17.4,17.5-26.8,8.5-48.5
		c-3.4-8.3-8-10.1-16.1-9c-4.7,0.6-9.7-0.9-14.6-1.5c1.7-5.8,1.9-12.8,5.3-17.3c12.7-16.7,25.8-33.1,40-48.6
		c9.1-9.9,12-20.3,6.5-31.9c-6.1-12.8-18.1-7.6-28.1-6.4c-8.7,1.1-17.1,3.8-25.7,5.8c-1-2.1-2-4.2-2.9-6.4c5.3-3.5,11.8-11,15.7-9.8
		c17.3,5.1,22-7.5,29.7-16.6c-18.4-26.8-18.4-26.8,9.9-40c15.7-7.3,24.2-25.2,18.4-42.2c-6-17.7-13.5-34.8-20.3-52.2
		c-3.4-8.7-6-17.8-10.7-25.7c-2-3.5-8.3-4.4-12.7-6.6c-1.4,4.4-3.7,8.7-4,13.2c-0.4,4.8,0.9,9.7,1.8,16.9
		c-9.1-5.4-15.3-12.1-20.5-11.4c-5.4,0.7-9.7,8.8-14.7,13.4c-2.6,2.3-6,3.6-8.6,5.9c-5.3,4.7-10.2,9.7-18.4,17.6
		c22,0.5,39.2,5.9,54.8-6c6.8-5.2,14-7.2,19.3,1.9c4.9,8.5,2.9,15.7-5.8,20.7c-13.6,7.8-27.2,15.5-42.4,24.2
		C328.4,433,323.9,430.6,301.8,436.9z M1364.3,809c-16.2,59.5-31.3,119.3-20,181.9c2.6,14.4-1.9,23.5-10.7,34.5
		c-17.6,22-29.9,44.6-16.5,76.2c20.2,47.4,54,84.1,86.1,122.5c1.2,1.4,4,1.3,8.9,2.7c-1.2-5.5-1.3-9.2-2.7-12.3
		c-2.2-4.7-6-8.6-8.1-13.3c-17.3-40,6.8-71.9,21.6-105.3c1-2.3,11.7-3.1,15.5-0.8c5.6,3.5,8.9,10.5,13.2,16c4.3-5.7,8.6-11.4,13-17
		c1.1-1.3,3.5-2,3.9-3.4c1.2-4.6,3.5-10,2.3-14.1c-3.4-11-8.1-21.7-12.8-32.2c-3-6.8-7.5-10.3-15-4.6c-24,18.3-48,36.6-72.4,54.3
		c-3.9,2.8-13.8,4.9-14.6,3.5c-5-8.3-8.2-17.7-12.1-26.7c6.1-1.1,12.3-3.5,18.2-2.9c6.8,0.6,11,1.1,12.3-7.4
		c1.9-12.5,4-25.2,8.1-37.1c2.6-7.3,9.1-13.3,13.9-19.9c1.4,6.5,2.4,13.2,4.2,19.6c1.5,5.5,2.6,12.9,6.4,15.3c3.2,2,11.3-0.8,15.1-4
		c4.4-3.7,9-10,9.1-15.3c0.9-34.5,8.6-69.6-21.7-98.9c-10.4-10-15.4-23.5-33-22.9c-3.2,0.1-6.6-6.3-10-9.7c3.3-2.5,6.7-4.9,9.8-7.6
		c4.1-3.5,11.9-8.3,11.2-10.9c-5.2-20.6-12.1-40.8-18.4-61.1C1367.7,808.4,1366,808.7,1364.3,809z M605,987.1
		c4.9,6.6,11.3,12.5,14.6,19.8c15.2,34,29.7,68.2,44.2,102.5c3.8,8.9,6.7,18.6,19.2,15.5c13.2-3.3,13.3-14.5,10.3-24.1
		c-5.5-17.5-11.3-35.5-20.4-51.3c-12.5-21.6-29.9-40.4-42.2-62.2c-18.7-33.1-50.1-49.9-81.3-66.3c-18.9-9.9-41.8,1.9-46.8,20.4
		c-3.5,12.9-8.6,25.6-9.9,38.7c-2.3,22.4-4.5,44.7,7,66.6c11.8,22.7,20.6,46.9,30.3,70.6c3.8,9.3,7.9,18.1,19.9,14.7
		c12.8-3.6,10.1-13.3,7.3-22.9c-7.7-26.3-15.3-52.6-22.5-79.1c-1.5-5.6-1.3-11.7-1.9-17.5c1.6-0.5,3.3-0.9,4.9-1.4
		c2.7,5.9,6.1,11.6,7.9,17.8c10.7,36.9,21,73.9,31.3,110.9c2.6,9.4,6.7,16.7,18,14.4c12-2.5,11.7-11.5,9.5-20.6
		c-3.8-15.3-7.8-30.5-12.1-45.6c-7.6-26.6-15.4-53-23.2-79.5c5.5,2,9,5.2,10.4,9.1c14.6,39.2,36,76.1,40.3,118.8
		c0.9,9,4.9,19.3,15.8,16.4c5.3-1.4,11-11.4,11.9-18.1c2.7-20.6-1.8-40.1-11-59.2c-13.4-27.6-24.8-56.2-37-84.4
		C601.3,989.9,603.2,988.5,605,987.1z M699.9,602.8c1.1-4.9-0.4-11.3-2.8-15.8c-5.6-10.4-13.4-19.7-18.6-30.3
		c-6.7-13.5-11-28.3-17.8-41.7c-2.3-4.5-10.5-10.2-14.1-9.1c-24.1,7.2-47.7,16.4-71.6,24.3c-3.6,1.2-9.9,0.8-12.1-1.6
		c-6.3-6.6-11.2-14.6-16.7-22c-3.4-4.7-6.7-9.4-10-14.1c-1.8,0.6-3.6,1.3-5.4,1.9c1.1,11.2,1.4,22.7,3.6,33.7
		c6.4,33.4,8.6,68.2,39.4,91.9c16,12.3,29.1,28.4,43.3,42.9c4,4.1,7.3,9,11,13.4c5.7,7,10.1,16.1,17.3,20.5
		c15.8,9.7,29.5,23.3,51,23.2c8.1,0,16.4,12.3,24.3,19.3c1.6,1.4,1.5,4.6,3.1,6.2c4,4.3,8.1,10.8,12.9,11.7c5.4,1,16.6-2.9,16.8-5.4
		c0.6-6.7-2.5-14.2-5.7-20.5c-4-7.7-10.6-14.1-14.3-21.9c-9.4-19.9-18.6-38.8-46.3-29.5c-0.5,0.2-1.3,0.2-1.7-0.1
		c-3.5-2.4-9.6-4.8-9.7-7.4c-0.2-3.6,3.4-9.1,6.9-10.7c4.3-2,10.1-1,15.2-0.8c10.4,0.5,20-0.1,24.8-13.1
		C703.5,637.7,694.9,623.9,699.9,602.8z M219.9,640c-2.8-3.7-5.1-8-8.6-10.8c-6.5-5.4-13.9-3.8-13.7,4.6c0.5,22.1,2.3,44.2,5.3,66
		c1.5,10.7,13,13.2,18.9,7.3c12.7-12.7,22.8-28,33.5-42.6c1.4-1.9-0.4-6.2-1.1-12.8c-7.8,4.5-13.3,8.1-19.2,10.9
		c-2.2,1-6.2,1.1-7.7-0.3c-1.4-1.4-1.7-6.5-0.5-7.5c6.6-5.3,13.4-12.4,21.1-13.8c6.5-1.2,17.6,2.6,20.5,7.8
		c2.7,4.6-1.6,14.8-5.3,21.1c-3.7,6.4-9.9,11.4-15.7,16.4c-30.2,25.9-39.5,57.2-26.3,95.3c3.2,9.3,2.1,20.3,16.7,19.8
		c1.6-0.1,5,5.4,4.8,8c-2.7,28.2,9.8,57.8-8,85.5c7.6-3.3,14.9-6.8,20.4-12.2c8.5-8.4,16.5-11.3,27.9-5.2c11.2,6,22.2,2.6,30.1-2.8
		c0-11.2,2.6-20.8-0.5-28.1c-10.4-24.7-22.3-48.8-34.8-72.5c-6.2-11.8-15.1-11.4-22.9-0.4c-3.5,4.9-6.1,10.4-9.2,15.6
		c-1.8-1-3.6-1.9-5.4-2.9c3.3-6.7,5.8-14.1,10.2-20c13.3-17.7,26.5-35.7,41.5-51.9c10-10.9,10.1-21.7,6.2-33.8
		c-7.6-23.3-16.5-46.1-23.5-69.6c-10.1-33.9-25.6-66.7-22.6-103.6c0.3-3.3-2.8-6.9-5.4-13c-25.2,29.7-39.2,61.5-44.2,97
		c-0.9,6,4.8,13.2,8.1,19.6c4.5,8.8,9.5,17.2,14.2,25.8C223.1,638,221.5,639,219.9,640z M601,742.2c-15.4-14.8-31-29.3-47-43.5
		c-8.6-7.7-21.9-12.7-26.3-22.1c-20.7-44.7-43.1-88.2-42.5-140.6c0.5-40.7,4-76.7,36-106c13-11.9,15.3-54.3,5.2-66
		c-10.4-12.2-7-20.6,2.9-29.7c2.5-2.3,4-5.5,6-8.3c-1.1-1.2-2.3-2.4-3.4-3.5c-7.9,6.3-19.6,11.1-22.9,19.3
		c-14.8,36.6-26.9,74.3-40.8,111.4c-3.3,8.8-7.9,18.1-14.6,24.3c-13.1,12-14.4,15.9-7,32.8c8.3,19.2,15.3,38.9,22.4,58.5
		c1,2.8-0.6,6.5-1,9.7c-4.6-2.9-5.7-6-6.9-9c-5.8-15.2-10.1-31.2-17.9-45.3c-8.6-15.7-21.8-16.5-38.1-4.6c3.5,2.4,6.7,4.6,10,6.8
		c14.2,9.2,18.3,22.3,18.1,39c-0.2,26,5,31.1,28.2,34.7c10,1.6,14.1,7.2,11,17.5c-3.4,11.1-6.5,22.4-10,33.4
		c-3.3,10.5,1.6,14.1,11.1,14c5-0.1,10.1-0.8,16.2-1.3c0-6.2,0-10.9,0-19.2c11.4,18.6,20.6,34,30.1,49.3c5.2,8.4,2.1,13.5-6.5,15.3
		c-6.1,1.3-12.5,0.7-18.7,1.1c-6.7,0.5-13.8-0.2-19.9,2c-15.5,5.8-28.2,0.7-32.5-15.1c-4.9-17.9-9.8-35.9,3-53.1
		c4.8-6.5,8.7-13.8,12-21.2c1.4-3,0.2-7.2,0.2-15.1c-7.9,8.9-11.8,14.9-17.1,19c-29,22.4-41,51.5-39.5,87.9
		c0.8,19.7,5.1,24.6,24.5,20.8c27.7-5.5,55.6-10.1,85.4-15.4c-1,8.7-3.2,14.2-1.9,18.7c1.7,5.4,5.8,13.3,9.9,14
		c4.6,0.8,12.6-3.9,15.3-8.5c12.7-21.3,29.3-25.2,48.2-9.8c7.1,5.9,13.8,12.3,24.4,21.9C604.1,749.2,603.6,744.6,601,742.2z
		 M769.2,272.9c-15.6-23.5-27.7-43.7-27.6-69.1c0-3.7-10.5-9.4-16.8-10.6c-5.7-1.1-12.6,2-18.4,4.6c-3.6,1.6-6.1,5.6-9.1,8.5
		c3.1,3,5.6,7.3,9.3,8.8c7.5,3.1,15.9,3.8,23.2,7.3c3,1.4,3.8,7.3,5.6,11.2c-4,1.1-9,4.2-11.9,2.9c-23.6-11.2-46.9-23.2-70.3-34.9
		c-6-3-12.2-5.3-19.6-8.5c0,16.8-0.4,29.3,0.1,41.7c0.4,10.9-5.5,15-15,14.6c-6.9-0.3-14-1.6-20.5-3.8c-16.7-5.7-30.2,1.3-47.8,10.9
		c8,3.5,12.6,6.9,17.4,7.3c12.6,1.1,25.6-0.7,38,1.3c37.8,6.2,75.5,13.1,113,21c14.6,3.1,15.4,10.9,6.5,24.1
		c-3,4.4-5.2,12.9-2.9,16.5c9.7,15.9,12.4,37.7,34.5,44.3c2.4,0.7,3.9,4.2,5.9,6.3c17.8,19.5,27.6,42.6,32.5,68.5
		c5.6,29.7,33.5,50.2,57.7,44.4c-5.9-19.4-12.3-38.6-17.4-58.3c-5.9-22.4-10.2-45.3-15.9-67.8c-1.2-4.7-4.7-9-8-12.9
		c-11.5-13.6-25.4-25.7-34.5-40.6c-8.4-13.7-18.6-23.9-32.3-30.5c-12.1-5.9-25.2-10-40-15.7c2.9-5.5,6.4-12,9.7-18.2
		C734,253.2,743,276.8,769.2,272.9z M514.4,1591.1c7.5,7,15,13.9,22.5,20.8c9,8.3,12.6,15.7,0.9,25.9c-4.2,3.6-6.4,14.3-4.2,19.6
		c6.7,16.3,21.8,2,32.7,6.2c2.2,0.9,8.3-7.9,12.5-12.3c0.3-0.3,0.3-1.2,0.1-1.7c-3.7-9.4-5.3-20.5-11.5-27.8
		c-21.7-25.8-33.4-56-38.5-88.2c-4.6-29.1-4.3-58.9-7-88.3c-1.5-16.2-6.2-32.1-7.1-48.3c-0.6-11-2.7-17.8-14.1-16.2
		c0-8.4,0.1-15.3,0-22.3c-0.8-33.8-13.3-43.1-46.6-37c-14.2,2.6-13.2,8.5-9.5,19.3c9.4,27.5,23.5,55.1,25.3,83.3
		c3.7,60.6,8.5,120.8,19.7,180.5c1.9,9.9,6.1,19.7,10.9,28.6c3.9,7.2,9.8,18.7,19.2,12c5.3-3.8,5.1-16.4,5.7-25.2
		c0.2-4-3.7-8.3-5.9-12.5c-2.5-4.8-5.1-9.6-7.6-14.4C512.7,1592.4,513.6,1591.8,514.4,1591.1z M1369.3,1294
		c-16.8-28.7-36-55.9-53.7-84c-7.1-11.2-13.1-23.1-18.3-32.5c8.2-13.7,15-25,20.9-35c-2.1-12.2-3.4-23.7-6.3-34.8
		c-1.5-5.8-5.8-10.8-8.8-16.2c-4.3,3.9-8.6,7.8-14.7,13.2c-3.4-15.3-5.9-30.2-10.5-44.4c-1.5-4.8-8.5-7.7-13-11.5
		c-2.8,4.5-8.1,9-8.1,13.5c0,13.3,0.3,27,3.7,39.7c9.3,35.5,20.7,70.4,17.2,108c-2.4,25.6-3.3,51.3-4.8,77.5c0.9,0,4.4-0.6,7.6,0.1
		c5.5,1.3,10.7,3.5,16,5.4c-5.2,3.7-10.1,8-15.8,10.7c-2.6,1.2-7-1.8-10.1-1.1c-5.3,1.2-11.5,2.6-14.9,6.2c-6,6.2-10.5,14-14.8,21.6
		c-1.7,3.1-2.2,7.9-1.1,11.2c7.9,22.1,27.8,25.2,43.4,7c-4.8-4.5-9.5-9-15.6-14.8c12.3-6.7,20.9-17.8,34.4-11.4
		c5.1,2.4,8.3,8.6,14.9,15.8c-6.7,3.3-11.4,5.5-16.1,7.8c0.9,2.3,1.8,4.6,2.7,6.9c26.2-3,52.4-6,82.1-9.4
		C1387.1,1326.2,1378.4,1309.4,1369.3,1294z M1211.7,778.4c2.6-7.1,5.2-14.2,7.8-21.3c7,4.8,15,8.6,20.7,14.6
		c4.1,4.3,5.6,11.3,7.6,17.4c2.5,7.7,4.1,15.8,6.7,23.5c3.1,9.2,8.8,16.1,19.6,12.1c10.3-3.8,7.9-12.3,5.9-20.7
		c-7-29-14.4-57.7-37.6-79.1c-1.7-1.5-1.8-4.7-3.7-10.3c15.6,11.9,27.7,22.4,41.1,31c15,9.7,23.7,21.4,22,40.2
		c-1,10.9,2,21.7,13.7,25.7c5.4,1.8,12,0,18.1-0.2c-0.5-5.5-0.1-11.2-1.5-16.4c-5.1-18.4-10.9-36.5-16.5-55.4
		c10,4.6,17.6,8,27.3,12.5c-3.2-33-7.2-37.5-35-35.4c-20.5,1.6-52.8-17.9-56.3-44.6c-13.8,2.2-27.5,4.5-42.9,7
		c5.4,7.1,8.7,11.6,13.5,17.9c-10.8,3.9-20.3,6.4-28.9,10.7c-5.3,2.6-11.4,6.9-13.6,12c-6.2,14.4-10.7,29.5-15.8,44.4
		c-5.2,15.3-4.7,29.8,6.5,42.7c10.7,12.3,20.6,25.3,32,36.9c4.1,4.2,11.5,5.2,17.4,7.6c1.8-6.9,5.3-14,4.8-20.8
		c-0.5-6.5-4.6-13.1-8.4-18.9c-5.8-8.7-12.8-16.6-19-25c-0.8-1.1-0.3-3.1-0.4-5c4.2,1.3,7.9,2.4,12.6,3.8
		C1210.6,781.7,1211.1,780,1211.7,778.4z M535.1,477.6c9.1,8.1,20.1,14,29,22.2c7.2,6.7,12.2,5.8,21.3,2.8
		c17.7-5.8,36.7-7.3,55.1-11c5.2-1,11-2.6,14.7-5.9c1.4-1.2-2-8.6-4.1-12.7c-13-25.6-24-51.7-16.3-81.2c2.9-11.2-1.2-16.4-11.6-15.2
		c-32.6,4-66.2,6.1-82.4,42.7c-5.4,12.3-13.4,23.5-21.6,37.7C525.4,465.4,529.4,472.5,535.1,477.6z M628.3,1951.8
		c7.1-28,14-56.1,19.8-84.4c0.9-4.1-3.8-10.6-7.5-14.3c-11.9-11.8-24.6-22.9-36.9-34.3c-8.2-7.6-18.7-7-20.9,2.5
		c-4.9,20.9-3.6,42-1.5,66.7c6.3-5.3,9.1-7.6,11.5-9.6c11.4,17.5,13.4,36.2,10.4,56.7c-2.3,15.8,0.4,32,14.8,45.4
		C622.3,1968.8,626.1,1960.6,628.3,1951.8z M526.6,274.8c-12,0.7-23.9,1.9-35.9,2.9c-9.6,0.8-19-1.1-19.7-12.1
		c-1-14,11.9-6.4,18.2-9.5c0.5-0.2,0.8-0.8,2-2.1c-1.8-10.5-9.1-15.7-19.3-18.2c-6.7-1.7-13.2-4.6-19.9-5.7
		c-6.2-1.1-15.7-3.2-18.4-0.1c-3.6,4-4.6,13.8-2.2,19.2c15.4,34.9,32,69.4,49.2,105.9c19.9-26,39.3-51.3,60.1-78.4
		C534.2,275.8,530.3,274.6,526.6,274.8z M857,1420.8c-11.5-10.4-27.1-9.5-37.1,2.5c-16,19.1-24.7,41.7-26.3,66.6
		c-0.2,3.2,4.2,8.1,7.7,9.8c13.7,7.1,26.6,8.4,40.3-2.6c16-12.9,33.8-23.7,54.4-37.8C883.1,1446.5,870.6,1433.1,857,1420.8z
		 M810.5,716.8c0-4.5,0.6-9.1-0.1-13.5c-5.9-34.4-12.2-68.8-18.2-103.2c-1.2-6.8-4.3-15.2-1.6-20.3c6.6-12.5,1.4-22.5-2.9-33.2
		c-6.3-15.6-11.8-31.7-19.3-46.8c-11.5-23.3-24.5-46-36.8-68.9c4.5,19.3,14.9,36.4,18.6,54.8c5.7,28.3,6.5,57.5,9.8,86.2
		c2.2,19,4.7,38,7.7,56.9c0.4,2.8,4,5,6,7.4c5.2-2.8,9.4-5.1,13.5-7.4c1.7,0.7,3.4,1.3,5.1,2c-1.4,8.2-2.6,16.4-4.1,24.6
		c-0.6,3.4-3.2,7.1-2.4,9.8c5.6,18,11.9,35.7,17.9,53.6C806.1,718.1,808.3,717.4,810.5,716.8z M526.5,768.3
		c-7.3,22.6-14.2,45.6-17.6,69c-2.2,14.7,9.6,20.4,23.3,13.2c13.9-7.3,27.7-14.9,41-23.3c17.7-11.2,19.7-17.9,9.7-36
		c-3.7-6.8-10.7-11.9-16.7-17.2c-6.8-6-14.3-11.4-24.6-19.5C537,758.5,528.4,762.3,526.5,768.3z M727.5,1864.6
		c4.7-6.8,10.6-13.1,13.6-20.6c1.9-4.6-0.7-10.9-1.2-16.5c-4.2,2.1-9.1,3.5-12.5,6.5c-3.7,3.3-5.2,9.9-9.2,12
		c-11,5.8-10.4,14.1-7.8,23.7c2,7.3,4.1,14.6,5.8,22c2.8,12.8,7.3,22.3,23.6,17.4c3.2-1,7.8,2.8,11.8,4.4c-3,3.6-5.3,8.4-9.1,10.5
		c-7.4,4.1-15.6,6.7-24.4,10.3c-2-2.5-4.7-5.8-7.9-9.8c-4.9,18.2-0.3,26.2,12.2,33.7c20.6,12.4,37.9-4.5,59.9-1.2
		c-2.4-9.1-3.5-15.2-5.7-20.8c-6.2-15.7-15.1-30.7-18.8-46.9c-3.6-16-10.1-23.8-27.5-21.1C729.3,1867.1,728.4,1865.9,727.5,1864.6z
		 M674.6,488.7c8.3-6.3,15.8-14,24.8-18.9c3.9-2.1,10.8,1.2,16.3,2.1c-2.1,4.5-3.1,10.4-6.5,13.1c-4.3,3.4-11.2,3.2-16.1,6.1
		c-5.1,3-9.3,7.7-13.8,11.7c5.8,2.2,11.8,6.7,17.3,6.2c21.8-2.2,21.5-2.6,32.3,19c1.8,3.6,7.5,5.3,11.4,7.9c1-4.1,3.5-8.4,2.7-12.1
		c-4.8-22.2-9.6-44.3-15.8-66.1c-3.3-11.4-8.5-23-23.9-19.8c-9-27.9-17.2-40.1-32-46.7c23,22.4,10.4,48.4,12.9,74.1
		c-7.2-1-12.1-1.7-18.1-2.6c0,9.8,0,18.4,0,28.2C670.4,489.9,673,489.9,674.6,488.7z M1218.7,1008.8c-4.8,8-10.4,15.7-14.2,24.2
		c-9.5,21.2-13.6,45.5-35.7,59.3c-2.1,1.3-3.3,4.2-5.9,7.7c4.5,0.9,7.2,1.9,9.8,1.9c16.1,0.3,32.2,1,48.2,0.1
		c4.6-0.3,10.8-4.3,13.2-8.4c17.5-30.1,2-56.2-8.8-82.9C1223.2,1010.1,1220.9,1009.5,1218.7,1008.8z M381.7,1338.5
		c0-16.5,0-33,0-49.6c0-20.3,5.9-27.7,25.8-31.9c3.9-0.8,7.7-1.6,14.5-3.1c-4.7-9.9-8.6-18.3-11.5-24.5c-11.4,1.6-19.5,3.3-27.7,3.9
		c-17.8,1.3-23.6,7.8-22.7,25.6c0.3,5.1-0.5,10.3-1,18c-6.1-3.6-8.9-5.5-11.9-6.9c-11-5.2-21.9-11.3-33.4-14.9
		c-4.7-1.5-11.1,2.3-16.7,3.7c4,3.8,7.3,9.1,12.1,11c8,3.3,16.9,4.2,25.4,6.6c19.6,5.5,30,18.4,32.6,38.1c1.1,8.5,4.3,16.7,6.6,25
		C376.3,1339.1,379,1338.8,381.7,1338.5z M761.3,215.6c2.2,12.5,5.3,25,9.1,37.1c6.5,20.5,13.5,40.8,21.4,60.8
		c1.6,4.2,7.8,6.6,11.9,9.8c2.7-4.5,8.3-9.4,7.8-13.6c-3.7-32.3-8.6-64.5-13.2-96.7c-1.8-12.4-10.2-16-21.4-15.7
		C761.2,197.1,758.5,199.7,761.3,215.6z M311.7,1472.8c-5.2,0.6-10.8,0-15.4,2c-8.2,3.7-15.9,9.3-10.8,20
		c5.7,12.1,12,23.9,18.7,35.4c6.8,11.7,19.3,13.2,28.8,8c6.1-3.3,9.7-14.5,10.9-22.7c1.5-10.1-0.6-20.8-1.4-31.1
		c-1.2-15.4-4.3-17.2-18.9-12.2c-3.7,1.3-7.8,1.3-11.8,1.8C311.8,1473.6,311.7,1473.2,311.7,1472.8z M784.5,1448.3
		c-26.7,15.3-53.4,30.6-80.2,45.9c0.6,1.6,1.2,3.1,1.7,4.7c11.7,1.3,23.5,2.7,35.2,4c0.6,2.2,1.3,4.4,1.9,6.6
		c-11.6,8-22.8,16.6-34.9,23.8c-12.6,7.5-19.8,16-8.8,33.7c9.3-5.9,21.4-9.8,27.2-18.2c19.8-28.6,37.5-58.7,55.9-88.3
		c2-3.2,3.2-6.8,4.8-10.2C786.4,1449.6,785.4,1449,784.5,1448.3z M798.8,1985.9c-5.2-14.7-8.9-15-22.7-7.5c-4.2,2.3-10.8-0.2-16.2,0
		c-6.1,0.3-12.1,1.2-18.2,1.8c1.3,4.9,1,11.3,4.1,14.2c9,8.7,4.6,14.3-2.9,19.6c-3.6,2.5-7.9,3.9-11.9,5.8
		c3.4,8.9,6.4,16.7,9.4,24.5c13.6,1.7,22-2.8,26.9-16.3c2.1-5.8,9.6-10.6,15.8-13.6c5.4-2.6,12.4-2.1,21.4-3.3
		C802.4,2001.5,801.5,1993.4,798.8,1985.9z M686.2,1603.8c4-2.4,8.1-4.7,12.1-7c-3.6-3.3-6.7-7.6-10.9-9.7
		c-14.4-7.3-29.2-14-43.8-20.8c-10.4-4.8-20.7,0.4-24.2,12.4c-1.8,6.1-2.4,12.6-5,18.2c-6.4,13.5-5,20.2,6.5,24.9
		c12.2,4.9,14.8-2.5,17.4-12.3c2.7-10,8.1-14.3,16.8-3.9c3.8,4.6,9.1,8,11.8,10.4C674.9,1610.9,680.5,1607.2,686.2,1603.8z
		 M1137.6,936.7c7.4,6.6,18.1,9.6,22.2,0.3c3.2-7.4-0.1-19.2-3.9-27.5c-2.1-4.7-11.8-9.6-16.8-8.5c-14.5,2.9-29.9,6.5-41.6,14.7
		c-4.8,3.3-1.8,19.1-0.7,29.1c0.6,5.3,4.9,10.2,7.6,15.3c4-4.7,9.2-8.8,11.7-14.2c3-6.5,3.7-14.1,6.2-25.1
		C1129.2,928,1133.1,932.7,1137.6,936.7z M449.4,842.1c8.5-20.1,18.4-39.8,24.9-60.6c2.7-8.7-1.1-19.9-3.1-29.6
		c-0.7-3.1-6.3-8.1-8.1-7.5c-3.7,1.3-7.9,5.2-9,8.9c-6.4,22.4-12.9,44.8-17.4,67.6c-1.3,6.6,3.6,14.4,5.6,21.6
		C444.7,842.4,447.1,842.3,449.4,842.1z M373.7,1448.8c0,44.2-0.2,88.4,0.1,132.6c0.1,12.5-4.4,20.5-16.1,25.9
		c-19,8.7-19.1,11.9-3.5,25.7c1.2,1.1,1.9,2.8,2,3c-2.3,7.7-4.2,14.2-6.2,20.8c8.1,1.7,16.3,4.8,24.3,4.4c2.6-0.1,7-9.4,6.9-14.4
		c-0.9-41.7-2.9-83.4-3.9-125.1c-0.6-24.4-0.1-48.7-0.1-73.1C376.1,1448.6,374.9,1448.7,373.7,1448.8z M1024.8,1503.1
		c-6.9,3.5-14.5,6-20.5,10.6c-18.4,14.1-36.1,29-54.1,43.6c-14.7,12-14.1,17.7,2.3,28.9c22.5-20.1,45.2-39.7,67-60.2
		c4.9-4.6,6.9-12.2,10.3-18.4C1028.1,1506.1,1026.5,1504.6,1024.8,1503.1z M896.8,847.5c-2.3-10-2.2-21.6-7.5-29.7
		c-14.3-21.9-30.6-42.5-46.9-63c-4.4-5.5-11.8-8.7-17.9-12.9c-1.5,1.6-3.1,3.3-4.7,4.9c18,37.8,43.5,70.6,68.5,103.8
		C891.1,849.5,893.9,848.5,896.8,847.5z M501.5,212.8c-4.7-0.1-9.4,4.6-14.1,7c3.3,4.6,5.7,12.1,10,13.4c12.1,3.7,24.8,5.9,37.4,6.7
		c23.7,1.5,26.9-2.2,26.5-25.9c0-2.2,1.6-4.5,1.5-6.7c-0.2-3.6-0.2-9.4-2.2-10.4c-3.7-1.8-9.6-2.5-12.9-0.6
		c-2.4,1.4-2.2,7.6-2.5,11.7c-0.3,3.2,0.4,6.4,0.5,8.3C530.2,215,515.9,213,501.5,212.8z M831.2,1330c21.6-13.2,43.3-26.3,64.7-39.8
		c2.4-1.5,5.1-6.2,4.4-7.9c-1.5-3.2-5-6.8-8.3-7.7c-11.9-3-24.1-4.9-37.6-7.4c-9.6,20.5-19.6,41.8-30.8,65.9
		C828.1,1331.3,829.8,1330.9,831.2,1330z M1052,1222.2c-11.2,1.8-25.1,0.2-33.1,6.2c-23.3,17.7-44.2,38.4-66,58
		c0.5,1.3,0.9,2.7,1.4,4c5.3-0.3,12.1,1.5,15.8-1.1c28.4-20.3,56.2-41.4,84.2-62.3C1053.5,1225.4,1052.7,1223.8,1052,1222.2z
		 M643.6,783.4c-2.3-5.2-4.1-10.6-6.9-15.4c-11-19.2-23.2-37.8-33.1-57.6c-7.2-14.3-17.8-21-34.4-23.5c24.8,33.6,48.4,65.6,72,97.6
		C642.1,784.2,642.9,783.8,643.6,783.4z M783.8,1344.8c-14.4,3.1-29,5.7-43.2,9.7c-3.1,0.9-4.8,6.6-7.2,10.2
		c4.4,1.4,9.6,5.1,12.9,3.8c13.2-5.3,25.9-12.2,38.7-18.5C784.6,1348.1,784.2,1346.4,783.8,1344.8z"/>
</g>
<g>
</g>
<g>
</g>
<g>
</g>
<g>
</g>
<g>
</g>
<g>
</g>
<g>
</g>
<g>
</g>
<g>
</g>
<g>
</g>
<g>
</g>
<g>
</g>
<g>
</g>
<g>
</g>
<g>
</g>
</svg>
