<?xml version="1.0" encoding="utf-8"?>
<!-- Generator: Adobe Illustrator 18.0.0, SVG Export Plug-In . SVG Version: 6.00 Build 0)  -->
<!DOCTYPE svg PUBLIC "-//W3C//DTD SVG 1.1//EN" "http://www.w3.org/Graphics/SVG/1.1/DTD/svg11.dtd">
<svg version="1.1" id="Layer_1" xmlns="http://www.w3.org/2000/svg" xmlns:xlink="http://www.w3.org/1999/xlink" x="0px" y="0px"
	 viewBox="0 0 1642.8 2210.7" enable-background="new 0 0 1642.8 2210.7" xml:space="preserve">
<g>
	<path d="M729.9,2123.5c-896.6,379.6-764-560-644-1280c116.2-697.3,591.4-1061.7,1128-704c192,128,100.7,87.6,88,544
		C1294,971.5,2374,1427.5,729.9,2123.5z"/>
	<path fill-rule="evenodd" clip-rule="evenodd" fill="#FFFFFF" d="M1373.3,1340.3c-0.1-3.3-1.8-5.7-4.8-6.8
		c-10.3-4.1-20.4-8.8-31.4-11c-11.6-2.4-23.2-4.6-34.8-6.7c-28.9-5.3-57.8-10.5-86.8-15.7c-28.1-5-56.2-9.8-84.3-14.8
		c-26.5-4.6-52.9-9.4-79.4-13.9c-22.4-3.9-44.9-7.7-67.4-11.4c-21.8-3.6-43.6-6.9-65.4-10.4c-24.3-3.8-48.6-7.6-72.9-11.6
		c-19.6-3.2-39.1-6.5-58.6-9.9c-9.7-1.7-19.3-3.9-29-5.2c-15.5-2.2-31-3.9-46.5-5.7c-9.1-1-18.2-1.8-27.3-0.4
		c-3.7,0.6-7.6,0.6-11.3,0.2c-4.2-0.4-5.6-3.7-6.4-7.4c-0.8-3.7,0.2-6.3,3.6-8c1.6-0.8,3.2-1.7,4.9-2.5c6.6-3,10.7-10.7,9.5-18
		c-1.1-6.9,0.3-10,6.6-13.4c2.4-1.3,3.1-3.1,2.8-5.5c-0.3-1.8-0.6-3.6-1-5.4c-1-4.1-2.3-8.1-3.2-12.2c-0.6-2.6-1.1-5.3-1-7.9
		c0.1-4.2,2.3-6.3,6.5-6c3,0.3,6.1,1.1,9,2.1c3.4,1.2,6.7,2.8,10.2,4.4c1.9-2.8,3.7-5.5,5.6-8.1c1.9-2.4,3.1-5.5,7-7.5
		c-0.7,3.1-1.2,5.3-1.8,7.4c-2.8,10.5-5.7,20.9-8.3,31.4c-2,8.1-3.1,16.3-3.1,24.7c0,3.9,0.8,7.6,3.4,10.6c1.5,1.8,3.6,3.3,5.9,2.4
		c3.7-1.5,7.4-3.3,10.7-5.6c2.4-1.6,4.2-4.1,6.2-6.2c1.7-1.8,1.7-2.8,0.1-4.7c-0.4-0.5-0.9-1.1-1.5-1.5c-4.1-3.2-5.2-7.5-4.5-12.5
		c0.3-2.1,0.7-4.1,1.2-6.2c1.3-5.3,2.8-10.6,3.9-16c3.5-16.1,6.8-32.2,11.8-47.9c0.6-1.9,1-3.8,1.4-5.7c0.9-5.1-1.2-8.5-6.4-9.6
		c-8.6-1.8-14.8-6.8-18.9-14.2c-2.7-4.9-5.2-10-7.2-15.2c-9.5-24.2-8.6-47.8,4.4-70.7c5.6-9.9,11.3-19.8,17-29.7
		c2.8-4.9,5.8-9.7,8.3-14.7c10-20.4,23.2-38.6,39.8-54.1c14-13.1,27.1-27,38.8-42.2c10.3-13.4,16.8-28.2,19-44.9
		c0.7-5.1,1.2-10.3-1-15.6c-5.2,2.2-10.4,4.1-15.2,6.6c-28.3,14.8-52.5,34.6-71.9,60.2c-1.1,1.4-2.3,3-3.8,3.9
		c-11.1,6.6-18.7,16.5-25.3,27.3c-3.1,5.2-6.1,10.4-9.2,15.6c-3.3,5.6-7.4,10.6-12.3,14.9c-7.5,6.5-13.6,14.2-18.7,22.7
		c-5.7,9.5-9.7,19.7-12.7,30.2c-1.1,4-2.5,7.8-5.4,10.9c-5.9,6.3-9.6,13.8-12.3,21.9c-0.9,2.8-2.1,5.4-3.3,8.4c-1-0.7-1.6-1-2.1-1.4
		c-4.8-4.2-7.2-9.6-7.4-16c-0.3-8,1.6-15.6,3.9-23.2c2.5-8.5,5.3-16.9,7.4-25.5c4.9-19.7,6.3-39.7,4.1-59.9
		c-1.3-11.7-2.9-23.5-4.3-35.2c-2.4-20.3-4.6-40.5-7.1-60.8c-3.2-25.8-6.4-51.6-9.9-77.4c-2.9-22-6.7-43.9-11.5-65.6
		c-1.8-8.2-4.1-16.4-5.8-24.6c-0.9-4.4-1.2-8.9-1.2-13.4c0-3.2,2.6-6.1,5.1-6.5c3.1-0.4,4.7,1.8,5.7,4.1c1.3,3.1,2.5,6.3,3.2,9.5
		c3.6,16,7.2,32.1,10.7,48.2c8.2,37.7,16.8,75.2,21.9,113.4c2.6,19.3,4.4,38.6,4.5,58c0.1,27.9-0.1,55.7-0.1,83.6
		c0,4.4,0,8.9,1.4,13.8c1.2-1.4,2.1-2.4,2.9-3.4c6.8-8.8,11.9-18.4,15.3-29c6.2-19.1,12.4-38.2,18.4-57.5
		c6.7-21.9,12.4-44.1,15.9-66.8c3-19.5,5.9-38.9,8.8-58.4c2.4-16.3,4.2-32.7,4.3-49.2c0.1-18.4,0.1-36.9,0-55.3
		c-0.1-36.8-2.8-73.5-11.2-109.4c-23.3-99.2-47.3-147.8-81.6-147.8c-2.5,0-28.5,3.1-38.8,5.2c-37.9,7.7-71.1,24.5-98.8,51.7
		c-11.2,11-21.6,22.9-32.3,34.5c-3.2,3.4-6.3,6.8-9.3,10.3c-3,3.4-4.8,7.2-5.2,11.8c-1.3,15.1,0.2,29.7,6.2,43.8
		c5.3,12.4,10.1,25,14.6,37.8c9.3,26.7,16.2,54.1,23.7,81.4c0.5,1.9,0.7,3.9,0.9,5.8c0.2,2.1-0.7,3.9-2.8,4.8
		c-1.5,0.6-3.9-0.3-5-2.3c-1.6-2.8-3-5.7-4.2-8.7c-2.7-6.9-5.1-14-7.7-21c-12.1-32.1-22.5-64.9-39.3-95c-2.9-5.3-4.7-11.2-4.8-17.3
		c-0.1-2.5-1.1-4.5-3-6.5c-2,4.1-3.1,8.3-3.6,12.6c-0.9,8.1-1.8,16.2-2.7,24.3c-3.4,28.1-7,56.1-10.1,84.2
		c-2.7,24.5-3.8,49.1-2.9,73.8c0.1,2.9-0.2,6-1,8.7c-2.1,7.5-8.3,8.8-13.7,3.1c-1.4-1.5-2.6-3.3-3.7-5.1c-3.7-6.6-7.4-13.3-10.8-20
		c-3.1-6.2-5.6-12.6-8.5-18.8c-2.5-5.5-4.9-11.1-7.9-16.3c-4.2-7.4-9-14.6-13.5-21.9c-1.4-2.2-3.3-2.3-4.4,0.1
		c-0.8,1.8-1.4,3.7-1.9,5.6c-1.6,6.6-0.5,13.1,1.4,19.5c1.2,4.2,2.3,8.4,2.8,12.7c1.1,11.3-2.5,21.4-8.9,30.5
		c-5.2,7.5-8.1,15.7-9.4,24.6c-1.1,7.7-0.2,15,5.8,20.7c3.7,3.5,6.2,7.5,8.2,12.1c5.8,13.2,14.1,24.6,25,34.1
		c9.5,8.2,20.2,14.2,31.9,18.6c5.1,1.9,9.7,4.4,13.8,7.9c7.8,6.6,16.7,11.4,26.4,14.6c3.1,1,6.2,1.8,9.4,2.5
		c4.3,1.1,7.5,3.7,10.1,7.2c1.5,2,2.3,4.2,0.9,6.7c-1.3,2.2-3.4,2.8-5.8,2.8c-0.3,0-0.6,0-0.8,0c-5.1-0.4-9.9-1.7-14.6-3.9
		c-3.6-1.7-7.6-3.1-11.5-3.9c-7.2-1.4-14.6-1.1-21.9-0.2c-1.2,0.2-2.5,0.4-3.7,0.9c-2.7,1.1-3.8,2.6-3.5,5.5
		c0.2,1.9,0.8,3.9,1.4,5.7c0.9,2.7,2.2,5.2,3.1,7.9c1.4,4.2,0.2,7.1-3.5,9.3c-2.4,1.5-5.1,1.7-7.7,1c-7.9-2-12.1-8.6-10.8-16.6
		c0.3-2.1,0.6-4.2,0.7-6.3c0.3-5.5-6.6-8.2-10.4-5.7c-1.4,0.9-2.6,2.1-3.8,3.3c-3.6,3.8-7.2,7.5-10.6,11.4c-1.5,1.7-3,3.5-3.9,5.5
		c-3.3,6.8,0.7,14.9,8.1,16.4c2.4,0.5,5,0.4,7.5,0.4c9,0,15.3,4.1,18.8,12.3c0.5,1.2,0.9,2.4,1.3,3.6c1.3,3.8,3.4,7.1,6.6,9.6
		c9.5,7.6,20,12.9,32.3,14.5c5.3,0.7,10.6,1.7,15.7,3.2c17.6,5.4,35.6,8.1,53.9,9.5c12.4,1,24,4.3,34.4,11.4
		c3.1,2.1,5.2,4.9,7.4,8.9c-11.3-1.6-21.8-3.2-32.4-4.7c-6.4-0.9-12.8-2-19.2-2.8c-3.4-0.4-6.9,0.1-9.1,3.2
		c-1.6,2.2-0.3,7.1,2.4,10.1c0.9,1,1.9,2.1,3,3c3.8,3,7.4,6.1,11.4,8.6c9.4,5.9,19.1,11.4,28.6,17.1c1.6,0.9,3.2,1.8,4.6,3
		c5.2,4.2,4.4,11.7-1.6,14.6c-1.6,0.8-3.5,1.1-5.3,1.1c-5.9,0.2-11.8-0.6-17.5-2.2c-15.7-4.3-31.4-9-47.2-12.7
		c-19.5-4.6-37.4-12.7-54.5-23.1c-13-7.9-26.2-15.3-39.3-23c-3.5-2-7.2-2.9-11.7-3.7c1.6,4.1,3.4,7.1,6.2,9.7
		c2.9,2.6,5.7,5.5,8.4,8.3c11.4,12,24.1,22.4,38.4,30.8c5.3,3.1,10.7,6.2,16.1,9.3c13,7.3,26.1,14.5,38.9,22
		c14.7,8.7,28.4,18.7,40.3,31.1c3.3,3.4,7.1,6.1,11.5,7.6c4.9,1.7,10,2.8,15,4.2c3.9,1.1,8.1,1.8,11.6,3.7
		c12,6.5,23.7,13.5,35.5,20.3c5.8,3.4,10.4,8.1,14.4,13.5c5.9,8.1,5.4,11.8-2.6,18c-0.2,0.2-0.5,0.2-1.2,0.4c-2-2.8-4.2-5.7-6.3-8.7
		c-3.8-5.4-8.8-9-15.2-10.7c-4.6-1.3-6.3-0.7-8.6,3.5c-2.5,4.5-3.8,9.4-4.6,14.4c-0.4,2.8,0.4,5.4,2.3,7.4c1.6,1.8,3.3,3.5,5.3,4.8
		c3.4,2.4,7.1,4.5,10.6,6.9c3.2,2.2,6.5,4.5,9.4,7.1c2.8,2.4,4.9,5.7,4.7,9.6c-0.3,4.9-0.6,9.9-1.8,14.6c-2.6,9.9-8.8,14.1-19,13.5
		c-1.4-0.1-2.8-0.4-4.2-0.6c-0.9-0.1-1.8,0-2.7,0c-0.1,0.3-0.3,0.5-0.4,0.8c3.9,4.1,7.8,8.3,11.7,12.5c-0.1,0.2-0.2,0.6-0.5,1
		c-1.4,1.8-2.9,3.4-4.3,5.2c-1.5,2-3.2,4-4.3,6.2c-2.5,4.9-1.3,8.7,3.5,11.4c2.1,1.1,4.4,1.9,6.6,2.6c7.6,2.6,13.1,7.5,16.1,15
		c1,2.5,1.6,5.1,2.5,7.6c1.2,3.5,0.4,6.7-1.4,9.7c-3.7,6.2-8.8,10.9-15.5,13.8c-1.3,0.6-2.6,1-3.9,1.6c-5.6,2.8-6.3,8.3-1.3,12.2
		c1.6,1.2,3.8,1.9,5.8,2.2c3.4,0.5,6.4-1,8.7-3.4c5.5-5.8,10.9-11.7,16.4-17.5c2.6-2.8,5-5.7,8-8.1c7.7-6.2,17.1-9.6,26-14.5
		c2.4,3.6,4.7,7,6.9,10.4c4.3,6.5,9.9,10.9,18.1,11.6c3.8,0.3,7.5,1.1,11.2,2c15.5,3.5,30.4,9,45.5,14.2c9.8,3.4,19.1,7.3,26.5,15
		c1.4,1.4,3.6,2.8,5.5,2.8c4,0.1,7.3,1.6,10.7,3.3c2.7,1.3,5.4,2.4,8.3,3c10.3,2.1,20.7,4,31,6c3.7,0.7,7.5,1,11.2,1.9
		c5.5,1.3,8.9,4.9,10.6,10.8c-1.6,0.5-2.9,1-4.2,1.2c-1.8,0.3-3.6,0.4-5.4,0.7c-4.5,0.9-4.8,2.1-2.4,5.9c3,4.8,5.8,9.7,8.3,14.7
		c1.7,3.3,0.9,5.4-2.5,6.8c-3,1.2-6.1,2-9.3,2.7c-6.3,1.3-12.7,2.4-19.1,3.4c-6.1,0.9-9.9,4.2-11.4,10.2c-0.9,3.7-1.9,7.4-2.7,11.1
		c-2,9.6-4.7,18.8-9.7,27.3c-0.7,1.2-1.4,2.3-2.5,3.9c-1.2-3.5-1.4-6.3-0.9-9.2c0.7-4.4,1.5-8.9,2.5-13.2c1.5-6.8,2.5-13.5,2.2-20.5
		c-0.1-1.9,0-4-2.1-5.1c-1.8,0.6-3.4,1.3-5.2,1.6c-10.7,1.8-21,0.8-31.4-3.1c-13.5-5.1-27.5-9.1-41.3-13.4c-3-0.9-6.3-1.2-9.6-1.4
		c-2.9-0.1-4,1.1-4.3,4c-0.2,2.2-0.2,4.5-0.4,6.7c-0.7,8.7,1,16.8,5.6,24.3c2.5,4.1,5,8.2,7.1,12.5c5.2,10.5,13.2,18.8,20.9,27.4
		c0.2,0.3,0.7,0.3,1.3,0.5c1.4-1.5,2.8-3.2,4.3-4.6c1.3-1.2,2.7-2.5,4.4-3.2c5.1-2,10.4-2.4,15.6-0.1c10.9,5,20.6,11.5,28.1,21
		c2.6,3.4,2.6,3.3,6.4,0.9c3.6-2.2,7.1-4.5,10.9-6.3c4-1.9,8.4-2.4,12.8-1.3c6.9,1.7,10.8,7.8,9.3,14.7c-1.4,5.9-2.8,11.8-4.7,17.5
		c-3,9.3-7.6,17.9-14.9,24.6c-0.7,0.7-1.4,1.4-1.9,2.2c-2.6,3.6-2.9,7.3-0.3,11c1.8,2.5,4,4.7,6.3,6.8c3,2.8,6.2,5.3,9.3,8
		c18.1,15.9,34.2,33.9,50.4,51.7c3.1,3.4,6.7,6.3,10.3,9.3c5.1,4.2,10.3,8.2,15.4,12.5c3,2.5,4.9,5.7,4.9,9.9c0,2.3,1.1,4.2,3.4,4.9
		c1.7,0.5,3.5,0.6,5.5,0.9c0.4-1.8,0.8-3.1,1.1-4.4c1.6-7.9,3.1-15.7,4.7-23.6c2.4-11.9,5-23.6,9.9-34.8c2.2-5,3.7-10.3,5.2-15.6
		c1-3.5,2.6-6.5,5.6-8.7c1.7-1.2,3.3-2.4,5.2-3.8c-0.8-0.5-1.4-0.8-2-1.2c-12.3-6.8-24.8-13.3-36.9-20.4
		c-6.7-3.8-13.2-8.1-19.4-12.7c-13-9.7-25.7-19.7-38.5-29.6c-5-3.9-8.6-8.9-10.5-14.9c-2.4-7.5,3.4-18,12.7-18
		c4.2,0,8.5-0.3,12.6-1.2c12.3-2.7,23.9-7.3,35.4-12.3c9.8-4.3,18.4-10.4,26.4-17.3c2.8-2.4,5.2-5.5,7.4-8.6c1.4-2,2.4-4.4,1.9-7.1
		c-0.4-0.2-0.6-0.3-0.9-0.4c-0.6-0.1-1.1-0.2-1.7-0.1c-7,0.3-13.6-1.6-20.1-4.2c-7.8-3.2-15.5-6.6-23.4-9.6c-4.2-1.6-8.6-2.8-13-3.5
		c-5.9-1-6.3-1.1-7.2-7c-0.2-1.7-0.2-3.4-0.3-5.1c-0.3-4.8-0.5-9.5-0.8-14.3c-0.2-2.5,0.3-3.1,2.9-3.8c2.9-0.7,5.7-0.5,8.6,0.7
		c14.1,5.7,28.4,10.9,43.4,13.4c6.6,1.1,13,2.3,17.8,6.7c4.5-2.9,8.6-5.7,12.9-8c4.4-2.4,9-4.7,13.7-6.4c6.1-2.2,9.4-6.4,10.6-12.5
		c0.8-4,1.6-8,2.4-12c1.6-7.9,6.1-10.8,14.1-9.3c10.1,1.9,20.2,3.7,30.3,5.5c31.3,5.5,62.6,11,93.9,16.4
		c35.3,6.1,70.7,12.2,106,18.1c6.6,1.1,10.4,4.2,12.7,10.6c4.5,13.1,8.7,26.5,16.8,38c2.8,4,2.4,6.1-0.9,9.8c-1.5,1.6-3,3.2-4.7,4.9
		c1.8,1.4,3.2,2.5,4.6,3.6c9.1,7.6,18.3,15,27.1,22.8c8.2,7.3,15.7,15.3,22.2,24.2c4.7,6.4,8.2,13.3,10.1,21.2
		c1.3,5.1,3.4,10.1,5.7,14.9c0.9,2.1,2.7,4.3,4.7,5.2c3.5,1.6,5.7,4.2,7.2,7.4c2.6,5.3,5,10.7,7.4,16.1c2.7,6.2,5.1,12.5,7.8,18.7
		c1.1,2.6,2.7,4.9,4.2,7.3c1,1.5,2.5,2.3,4.4,1.5c5.1-2.3,9.6-5.3,12.7-10.1c1.6-2.6,1.8-5.2,0.5-8c-5-10.4-10.4-20.5-18.1-29.3
		c-8.5-9.7-14-21-16.7-33.7c-0.9-4.4-1.8-8.8-2.8-13.2c-2.7-11.9-4.2-23.8-3.6-36c0.1-2.6,0.7-5.3,1.5-7.8c0.8-2.4,7.8,0.9,9,2.5
		c2.8,3.7,5.4,7.6,8.1,11.3c0.8,1.1,3.2,1.6,3.1,0.9c-0.6-5.5-4.4-39-5.4-50.4c-0.2-2.8,0.1-5.6,0.6-8.4c0.9-4.3,3.8-6.4,8.2-6.2
		c1.2,0,2.5,0.3,3.7,0.6c4.8,1,9.6,2,14.5,2.9c6.6,1.1,13,3.1,17.7,8.1c3.1,3.2,5.6,7,8.4,10.5c0.8,1.1,1.5,2.3,2.3,3.5
		c2.9-0.5,4-2.4,4.2-4.8C1373.2,1346.2,1373.3,1343.3,1373.3,1340.3z M682.8,1111c0.2-1.5,0.4-3.1,0.8-4.6
		c3.2-12.2,8.2-23.6,14.6-34.4c1.2-2.1,3-3.9,5-6.4c1.5,1.9,2.6,2.8,3.3,4c6.2,11.4,9.3,23.5,7,36.5c-1.7,9.8-8.3,14.1-18.1,12.1
		c-3.4-0.7-6.7-2-10-3.1C683.3,1114.6,682.4,1113.2,682.8,1111z M688.8,438.2c0-0.7,0.1-1.4,0.2-2.1c0.6-2.4,2-3,4-1.5
		c1.1,0.8,2.1,1.9,2.9,3.1c9.3,13.8,15.7,28.7,18,45.3c0.3,2,0.4,4.2-1.6,6.3c-1.2-0.9-2.6-1.6-3.6-2.7c-1.8-2.1-3.6-4.3-5.1-6.7
		c-5.2-7.9-9.4-16.2-12.6-25.1C689.2,449.4,688.6,443.8,688.8,438.2z M689.5,548.7c-8.5,0.1-29-14.7-31.9-23.2
		C665.3,525.3,687.3,541.5,689.5,548.7z M511.7,821.5c-1.7-0.1-3.4-0.4-4.9-1c-9.8-4.1-18.9-9.3-26.7-16.7c-4.3-4.1-8-8.8-9.2-14.8
		c-0.5-2.7-0.7-5.6-0.2-8.3c1.1-5.6,0.1-10.5-3.8-14.5c-3.2-3.3-6.6-6.5-10.3-9.3c-9.9-7.3-20.9-12.7-31.9-18
		c-9.1-4.3-18.4-8.4-27.6-12.6c-13.3-6-23.7-15.4-31.9-27.4c-0.4-0.6-0.8-1.2-1.1-1.8c-0.1-0.2-0.1-0.5-0.1-1.2
		c14.2,1.3,27.8,4,41.1,8.3c27.8,9,52.8,22.9,74.2,43c5.9,5.5,11.3,11.4,15.4,18.3c1.6,2.7,3.1,5.7,4,8.8c1.4,5-1.4,8-6.5,7.4
		c-2.9-0.4-5.7-1.4-8.5-2.2c-1.1-0.3-2.3-0.7-3.9-0.4c1.6,1.7,3.1,3.6,4.7,5.2c6.7,6.8,13.5,13.5,20.2,20.4c2.5,2.6,4.8,5.5,7.1,8.3
		c1,1.3,1.9,2.8,2.6,4.3C515.5,820.1,514.6,821.6,511.7,821.5z M562.1,873.7c-1.1,4.8-4,5.9-8.1,3.3c-2.1-1.3-4.2-2.9-5.7-4.9
		c-8.6-11.2-16-23.1-21-36.4c-1.2-3.3-1.9-6.8-2.5-10.2c-0.6-3.6,0.1-7,3.1-9.6c3.5-3.1,4-6.6,2.8-11c-4.4-15.6-4.7-31.6-4.2-47.7
		c0.6-23.4,3.5-46.5,6.1-69.8c2-18.5,3.8-36.9,5.4-55.4c2-22.3,3.8-44.6,5.6-66.9c1.3-16.8,2.3-33.7,3.7-50.5
		c1.6-20.5,3.4-40.9,5.1-61.4c0.2-2.2,0.8-4.3,1.4-7.3c2.9,2.5,3.7,5,4.2,7.4c1.6,7.4,3.7,14.8,4.3,22.3c1,12.2,1.1,24.4,1.2,36.7
		c0.1,19.6-0.1,39.1-0.5,58.7c-0.8,39.5-1.8,79-2.8,118.6c-0.6,22.4-1.8,44.7-1.6,67.1c0.2,20.8,1.7,41.6,2.8,62.4
		c0.7,14.5,1.6,28.9,2.2,43.4C563.4,866.2,562.9,870,562.1,873.7z M603.1,721.3c-1.3,15.4-2.7,30.8-3.6,46.3
		c-1.1,20.2-2,40.5-2.3,60.7c-0.2,13.9,1.2,27.8,1.4,41.7c0.1,8.4-0.4,16.9-1,25.3c-0.3,3.3-1.3,6.7-2.7,9.7
		c-3.1,6.5-10.2,7-14.6,1.2c-2.5-3.2-3.2-7.1-3.7-11.1c-1-7.9-0.3-15.7,0.3-23.6c0.7-8.4,1-16.8,0.9-25.3
		c-0.1-19.8,0.2-39.7,0.9-59.5c0.7-21.4,1.6-42.7,3-64.1c1.1-17,2.4-34,4.7-50.8c5-36.1,10.7-72,16.1-108c4.5-30,6.6-60.1,5.9-90.4
		c-0.2-6.7-1.3-13.4-2.3-20.1c-0.6-3.8-2.3-7.1-6.1-9.1c-1.3-0.7-2.4-2.4-2.9-3.9c-0.9-2.6-1.6-5.4-1.8-8.2
		c-0.8-10.4-0.2-20.8,2.5-31c0.7-2.7,1.7-5.4,3.1-7.8c1.4-2.5,3.3-2.3,4.7,0.4c1.1,2.2,2,4.7,2.5,7.1c2.5,11.7,5,23.4,7.2,35.1
		c2.9,15.5,5.6,31,8,46.5c1.1,7.2,1.4,14.5,2.1,22.3c-0.9,9.4-1.8,19.2-2.8,28.9c-1.5,14.3-3.1,28.5-4.6,42.8
		c-1.9,17.1-3.8,34.1-5.6,51.2c-1.6,14.5-3.1,29.1-4.5,43.6C606.2,688,604.5,704.6,603.1,721.3z M638.9,1196.8
		c-4.8,0.9-9.7,1.5-14.5,2.3c-5.6-0.3-11-0.8-16.1-3.3c-7.3-3.6-10.8-10.7-9.1-18.1c1.2-5.1,3-6.4,8.1-5.6c1.9,0.3,3.8,0.9,5.6,1.6
		c8.8,3.5,16.8,8.6,23.8,15c1.4,1.3,2.8,2.8,3.8,4.5C641.7,1195.1,641.3,1196.3,638.9,1196.8z M926,1272.8
		c-4.3,2.3-8.7,4.6-13.2,6.5c-6.6,2.8-13.4,5.1-20,7.9c-2.6,1-4.7,0.9-7.2-0.4c-20.5-10.6-41.1-20.8-61.5-31.5
		c-8.6-4.5-17.8-7-27.2-8.6c-22.1-3.9-44.3-7.4-66.5-11.1c-6.6-1.1-13.2-2.3-19.9-3.4c0-0.4,0-0.8,0-1.2c1.3-0.1,2.7-0.3,4-0.2
		c11.9,0.8,23.9,1.2,35.7,2.7c22.4,2.9,44.8,6.1,67.1,9.9c34.4,5.8,68.6,12.3,102.1,21.9c3.5,1,6.8,2.2,11.2,3.7
		C928.7,1270.6,927.5,1272,926,1272.8z M1287.8,1354.6c-1.1,8.6-2.8,17.2-4.5,25.7c-0.5,2.4-1.6,4.8-2.8,7c-1.5,2.8-3,3.1-6,1.9
		c-6.3-2.4-11.5-6.3-16.1-11.2c-5.9-6.3-10.6-13.6-13.9-21.5c-4.2-9.9-8-20.1-11.9-30.2c-1.2-3.1-2.3-6.2-3.6-9.7
		c1.6-0.7,2.8-1.5,4.1-1.6c5.5-0.7,10.9-0.6,16.3,1c2.8,0.8,4.4,2.4,5.1,5.4c0.9,4.2,2.1,8.5,3.8,12.5c4,9.6,10,12.9,20.3,11.8
		C1286.5,1344.8,1288.9,1346.8,1287.8,1354.6z M1072.6,745.9c0.3-0.1,0.9-0.3,1.8-0.9C1074.5,745.6,1074,746,1072.6,745.9
		L1072.6,745.9z M1072.6,745.9C1072.4,746,1072.3,745.9,1072.6,745.9L1072.6,745.9z M1025.3,1594.6c4,18.9,1.7,37.2-5.9,54.9
		c-20,46.5-52,82.5-95.2,108.7c-28.1,17.1-58.5,28.7-90.2,37c-25.5,6.7-51.4,11-77.6,13.8c-30.8,3.3-61.7,4.5-92.7,4.2
		c-0.8,0-1.7,0.1-3,0.2c-0.7,4.6-1.7,9.1-2.2,13.7c-0.4,4.3,0.9,8.3,3.7,11.8c2.1,2.6,2,4-0.6,6c-3.6,2.8-7.8,4.2-12.5,4.6
		c-2.9,0.2-5.8,0.9-8.6,1.6c-2.5,0.6-3.8,2.1-4.4,4.9c-8.5,39.9-19.4,79.2-30.2,118.5c-0.5,1.9-1.1,3.7-2.1,5.5
		c0.5-13.9,2-27.7,3.3-41.5c1.3-14.1,2.8-28.3,4.4-42.4c1.6-14,3.1-28,5.1-41.9c2-13.9,4.5-27.7,6.8-41.8c-3.6-0.2-7.4-0.5-11.1-0.8
		c-20.9-1.5-41.8-3.1-62.7-4.6c-22.3-1.5-43.3-8-64-16c-25.5-9.8-49.5-22.2-70.9-39.4c-15.1-12.1-28.1-26-37-43.3
		c-8.1-15.8-12.3-32.6-11.4-50.4c0.6-10.5,3-20.6,8.7-29.6c0.9-1.5,1.8-3.5,4.3-1.4c-0.6,5.6-1.2,11.3-1.7,17
		c-0.1,1.4-0.4,2.8-0.3,4.2c0.1,0.7,0.8,1.3,1.7,2.7c2.3-5,4.3-9.1,6.4-13.7c0.8,0.9,1.4,1.5,1.8,2.1c6.8,10.8,13.6,21.7,20.5,32.4
		c3,4.6,3.4,9.4,2.1,14.5c-1.5,5.6-3.2,11.1-4.3,16.7c-1.7,8.5-1.9,17,0,25.6c2.6,11.2,8.9,19.6,18.5,25.6c9.6,6,20.3,8.8,31.3,10.8
		c2.3,0.4,4.7,0.7,7.3,1c5.2-16.6,12.5-32.3,13.5-50.6c5.3,2.8,8.4,6.2,9.2,11.5c0.8,4.8-0.2,9.5-1.6,14.1c-1,3.4-2.3,6.7-3.2,10.1
		c-1.3,5.1-1,10,2.3,14.5c1,1.3,2.1,2.1,3.9,2c3.8-0.1,7.6,0,11.1,0c3-1.5,3.2-7.5,8.4-4.2c-0.1,1.2-0.2,2.4-0.4,4.1
		c3.9-0.2,7.6-0.5,11.6-0.7c1.1-4.5,2.2-8.8,3.2-13.2c2.8-11.5,5.4-23,10.2-33.9c0.4-0.9,0.7-1.8,1.2-2.7c1.8-3.5,4.2-4.4,7.1-2.8
		c3.5,2,4.6,5.3,2.8,8.5c-0.2,0.4-0.5,0.7-0.7,1c-4.9,6.3-6.4,13.7-5.9,21.5c0.4,6.4,1.3,12.9,2.1,19.9c2-0.1,3.9-0.1,5.8-0.3
		c11.6-1.3,23.2-2.8,34.8-4c2.4-0.3,3.5-1.2,4-3.5c1-4.4,2.2-8.7,3.4-13.1c4.3-0.4,6.4,1.2,6.5,5.3c0,1.5-0.2,3.1-0.5,4.6
		c-0.2,1.4-0.5,2.7-0.8,4.6c2.3-0.2,4.2-0.3,6.1-0.6c25-4,50-7.9,74.9-12.2c27.9-4.7,55.7-9.8,83.5-14.7
		c25.2-4.4,50.4-8.9,75.6-13.3c3.3-0.6,6.6-1.2,10-1.7c11.9-1.6,22.2-6.8,31.6-14.1c9.8-7.7,17.9-17.1,25.3-27
		c1.1-1.4,1.1-2.7,0.6-4.3c-3-9-2.4-17.8,1.8-26.2c3.5-7.2,5.1-14.9,6.5-22.6c1.4-7.5,3.7-14.7,8.2-21c2-2.8,2-5.9,0.5-8.8
		c-1-2-2.3-3.9-3.6-5.6c-4-5.3-5.1-11.2-3.5-17.6c0.9-3.5,2-7,2.9-10.6c2.3-9.4,2.8-18.9,0.9-28.4c-0.4-1.8-0.7-3.6-0.7-5.4
		c0.1-4.5,2.1-8.1,5.9-10.6c2-1.3,4.1-2.4,6.2-3.7c2.5-1.5,3.8-3.6,3.7-6.6c-0.1-2.2,0-4.5,0-7.6c4.3,3.5,7.9,6.6,11.7,9.4
		c4.1,3,8.3,5.8,12.5,8.6c1.5,1,3.1,1.9,4.6,3c4.6,3.3,6.4,7.6,5,13.2c-2.2,8.7-4.3,17.5-6.4,26.2c-0.3,1.2-0.4,2.4,0,3.8
		c0.6-1.4,1.3-2.7,1.9-4.1c3.2-7.2,6.3-14.4,9.6-21.6c1.1-2.3,2.4-4.5,3.9-6.5c2-2.7,3.2-3.1,6-1.2c5.3,3.5,10.7,6.9,15.4,11.1
		C1008.6,1553.3,1020.5,1571.9,1025.3,1594.6z M1064.7,884.1c7.1,5.3,14.8,9.2,23.5,11c2.2,0.5,4.4,1,6.5,1.6
		c11.8,3.5,16.8,9.7,18.1,22c0.9,8.2,1.7,16.5,3,24.7c2.6,17,7.1,33.5,11.2,50.2c6,24,11.6,48.1,17.5,72.1
		c10.3,41.5,20.8,82.9,31.1,124.4c2.4,9.7,4.5,19.4,6.7,29.2c0.4,2,0.4,4.1,0.7,6.9c-3.9-2.5-6.4-5.4-8.8-8.5
		c-11.7-15.2-22.3-31.2-30.7-48.4c-24.6-50.1-48.8-100.4-67.5-153.2c-2-5.6-3.9-11.1-5.8-16.7c-0.3-1-0.5-2.2-0.4-3.3
		c0.3-4.5-0.3-8.8-2.3-12.8c-5.8-11.5-6.8-23.9-8.1-36.4c-0.6-6.4-1.5-12.9-2.5-19.2c-0.3-1.9-1.1-3.9-2.3-5.3
		c-5.6-6.1-8.1-13.4-9.6-21.2c-1-5.3-2.7-10.2-5.2-15.6c-2.8,2.9-5.5,5.4-7.7,8.1c-4.9,6-11,7.6-18.5,6c-5.6-1.2-11.5-1.3-17.1-2.2
		c-3.4-0.6-6.9-1.4-10.1-2.7c-5.2-2.1-7.8-6.2-8.1-11.8c-0.3-5.4,0.7-10.6,2.2-15.8c1.6-5.7,3.3-11.3,4.8-17
		c0.7-2.4,1.3-4.9,1.5-7.4c0.6-7.5-2.5-13.3-9.2-16.6c-7.4-3.7-15-7.1-22.7-10.1c-9.1-3.6-21.5,2.6-21.3,14.1
		c0.1,3.9-0.3,7.9,0,11.8c0.4,5.4,2.9,10,7.2,13.3c3.5,2.6,5.4,5.9,6.7,10c5.6,18.3,11.6,36.5,16.7,54.9c2.2,8.1,3.1,16.6,4,24.9
		c2.4,22.2,4.5,44.5,6.6,66.8c1.7,17.8,3.1,35.6,4.5,53.4c1.6,20.2,3.2,40.4,4.7,60.6c0.8,11.2,1.3,22.5,1.9,33.7
		c0.4,7.5-0.5,14.9-2.4,22.1c-3.7,14.6-8.7,28.8-16.3,41.9c-2.2,3.9-5.1,7.4-8,10.8c-2.2,2.6-5.1,3.7-8.6,3.6
		c-11-0.2-22-0.4-32.8-2.5c-3-0.6-6.1-1.3-8.6-3.6c0.6-5.6,1.3-11.3,1.9-17c1.6-15,3.2-29.9,4.7-44.9c1.7-16.4,3.2-32.8,4.8-49.1
		c1.6-16.7,3.1-33.3,4.6-50c1.6-17.9,3.2-35.9,4.7-53.8c1.2-14.9,2.5-29.7,3.5-44.6c1-15.7,2-31.5,2.4-47.2
		c0.2-6.7-0.7-13.5-1.4-20.2c-1.3-12.6-3.1-25.1-6.7-37.3c-1.2-4-2.7-8-4.3-11.9c-1-2.4-2.4-4.8-3.9-7c-7.4-10.7-16.7-11-26-2.4
		c-1.2,1.1-1.9,2.7-2.7,4.2c-3,5.7-5.8,11.5-8.9,17.2c-0.8,1.5-2.1,2.7-3.6,4.6c-1.1-3.7-0.6-6.5,0-9.1c3.9-16.1,7.7-32.3,11.8-48.3
		c7.5-29.3,15.3-58.5,22.7-87.8c2.2-8.7,3.6-17.6,5.2-26.5c0.6-3.5,1.1-7.2-0.4-10.8c-2.8-0.2-3.6,1.6-4.2,3.5
		c-2.7,7.5-5.4,15.1-8.1,22.6c-15.7,45-29.9,90.5-41.3,136.8c-6.1,24.6-11.2,49.4-14.5,74.5c-2,15.5-3.3,31.1-2.7,46.7
		c0.3,8,1.1,16,3.1,23.8c0.3,1.1,0.4,2.1,0.6,3.2c-11.9,1.4-20.6,9-23.9,21.3c-3.6,13.3-6.9,26.7-10.3,40
		c-2.9,11.4-5.8,22.9-8.7,34.3c-0.3,1.1-0.5,2.2-0.9,3.2c-1.3,3.7-3.3,5-7,4.5c-3.8-0.5-6.4-3-6.2-6.7c0.1-2.6,0.7-5.3,1.5-7.8
		c4.5-14.6,9.6-29.1,13.7-43.9c6.9-24.8,13.3-49.7,19.9-74.6c11.4-42.6,22.7-85.3,34.3-127.9c13.9-51.1,28-102.2,42-153.3
		c0.7-2.6,1.5-5.1,2.6-7.6c2-4.8,5.7-7.6,10.9-8.3c2.8-0.3,5.6-0.6,8.4-0.4c4,0.3,4.9,1.7,4.4,5.5c0,0.1,0,0.3-0.1,0.4
		c-2.7,8.5-2.9,17.5-3.8,26.3c-1.5,15.1-3,30.2-2.8,45.5c0.1,7.6,0.7,15.2,2.5,22.6c1.7,6.9,5.1,12.2,11.5,15.8
		c12.2,6.9,100.1,51.2,101.8,49.6c6.1,4.7,7.6,10.7,7.1,17.5c-0.1,1.8-0.4,3.6-0.5,5.5c-0.4,5.1,1.8,9,5.8,12
		C1056.7,877.9,1060.7,881.1,1064.7,884.1z M901.3,482.4c-5.1-0.5-10.1-0.4-15,1c-3.8,1-7.6,2.1-11.4,3c-5.3,1.2-8.3,4.4-9.1,9.8
		c-0.3,1.8-0.2,3.6-0.4,5.5c-0.2,2.5-0.4,5.1-0.9,7.5c-1.2,6.1-4.3,8.2-10.6,7.5c-0.6-0.1-1.1-0.2-1.7-0.3
		c-6.6-1.3-12.5-0.3-17.8,4.1c-3.7,3-8,5-12.8,4.9c-4.9-0.1-9.8-0.8-14.6-1.4c-3.1-0.3-6.3-0.8-9.9-1.3c0.6,4.4,1,8.2,1.7,11.9
		c2.5,13.1,8.6,24,20.1,31.4c0.9,0.6,1.8,1.3,2.7,2c3.3,2.8,4,5.1,2.1,8.9c-1.5,3-1.3,5.5,0.4,8.3c7.9,13.3,15.8,26.6,23.5,40
		c3.1,5.4,7.3,9.6,13.2,13.2c6.8-9.6,14-18.6,20-28.4c9-14.8,16.9-30.2,23.6-46.2c7.2-17,11.9-34.8,16.8-52.6
		c2.3-8.4,4.8-16.8,6.5-25.3c1.2-6.3,3.9-11.3,8.8-15.4c4-3.3,8-6.7,11.9-10.1c3.2-2.7,6.6-5.3,10.8-6.3c2.3-0.6,4-1.7,5.7-3.3
		c2.5-2.3,5.3-4.3,9-5.3c-0.3,1.6-0.5,2.7-0.8,3.7c-5.2,20.3-9.1,40.9-12.5,61.6c-2.4,14.7-4.9,29.4-7.5,44.1
		c-0.6,3.6-1.8,7.1-3.3,10.4c-0.4,0.9-2.4,9.7-4.9,21.8c-6.7,0.7-11,2-11.7,4.2c-7,22,8.7,28.8-1,38.5c-2.2,2.2-5.5,28.1-4.2,30.6
		c2.2,4.1,7.7,5.9,7.7,5.9s53.2,16.6,63.8,26.4c5.3,4.9,24.5,25.7,24.5,25.7s13.1,3.2,17.1,5.1c7.4,3.6,32.4,17.7,33.2,21.4
		c4.2-3.3,13.5-17.9,13.2-80.7c0,0-22.2-27.2-30.7-52.6c-4.4-13.2-55.5-23-90.6-24.7c2.6-7.1,4.6-14.4,5.7-21.9
		c1.3-8.8,2.9-17.5,4-26.3c2.6-20.9,9.5-40.4,18.9-59.2c1.4-2.7,3.1-5.4,5.1-7.7c3.3-3.8,6.6-3.5,9.2,0.8c1.7,2.9,3,6.1,3.9,9.3
		c3.2,11.3,4.4,22.9,4.8,34.6c0.2,5.5,0.4,11,2.1,16.3c2.2,7.2,6.6,12.6,13.3,16.2c7.9,4.1,15.7,2.2,20.6-5.3
		c1.4-2.1,2.5-4.5,3.2-6.9c2.3-7.8,2.8-15.7,0.6-23.7c-2.1-7.9-4.3-15.7-5.9-23.7c-1.5-7.7-2.5-15.6,3.4-22.3
		c-2.8-3.8-6.3-6.4-10.5-7.9c-4-1.4-8.1-2.4-12.2-3.3c-5.6-1.2-11.4-1.8-16.9-3.3c-8.3-2.2-11.9-7.3-10.5-15.7
		c1.5-8.8,4.2-17.5,6.5-26.2c0.4-1.6,1.1-3.2,3.1-3.6c2.6,1.3,3.6,3.8,4.4,6.1c2.4,6.7,4.8,13.5,6.9,20.4c1.1,3.7,3.2,6.6,6.5,8.5
		c2.1,1.2,4.2,2.4,6.5,3c6.3,1.5,12.6,2.9,18.9,4c3.6,0.6,7.3,0.7,10.9,0.7c5,0,6.3-1.8,4.7-6.6c-0.7-2.1-1.7-4.2-2.5-6.3
		c-1.4-4-3.1-7.9-4.1-11.9c-1.1-4-0.6-7.9,2.4-11.1c3.5-3.7,3.4-7.8,1.4-12.1c-2.5-5.4-6.4-9.5-11.5-12.6c-2.2-1.3-4.6-2.7-7.1-1.1
		c-2.5,1.7-1.7,4.5-1.4,7c0.3,2.4,1.1,4.7,1.4,7c0.2,2.2,0.8,4.9-1.6,6.1c-2.6,1.3-4.5-0.8-6.2-2.4c-3.7-3.6-5.8-8.2-7.2-13.2
		c-0.8-2.8-1.7-5.7-2.7-8.4c-0.4-1.1-1.2-2-2.4-3.8c-1.2,2.8-1.9,4.7-2.9,6.5c-1.2,2.3-2.4,4.8-4.1,6.7c-1.8,2-4,1.3-4.9-1.2
		c-0.6-1.7-1-3.6-1-5.4c0-7.9,0.1-15.8,0.2-23.6c0-2,0-4,0-6.9c-6.8,4.8-13.9,5.6-21,6.8c-6.1,1-12.2,2.4-18,4.4
		c-6.1,2.1-11.2,1.7-16-2.6c-3.4-3-7.4-4.9-12-5.8c-5.1-1-9.5-3.6-12.7-7.8c-2.1-2.6-4.1-5.4-5.6-8.4c-4.9-9.9-11.7-18.5-18.7-27
		c-3.6-4.4-8.1-5.3-13.2-2.9c-4.5,2.1-5.9,5.4-4.8,11.3c0.6,3.3,1.5,6.6,1.8,10c0.8,10.1-4,14.4-14,12.9c-3.6-0.5-7.3-0.9-10.9-1.3
		c-1-0.1-2.1,0.1-3.2,0.2c-0.2,9.6,3.6,17.2,10.3,23.1c9.1,8,18.4,15.6,28,23c5.6,4.3,12.3,6.9,19.4,7.6c5.4,0.6,10.9,0.8,16.4,0.6
		c10.8-0.5,20.9,1.8,31.2,5.7c-4.7,6.7-10.7,11-18.6,12.4c-8.3,1.5-16.3,0.2-24.2-2.2c-10.9-3.3-22-4.6-33.3-4.8
		c-10.4-0.2-20.5-1.8-30-5.9c-11.9-5.1-23.7-10.4-35.5-15.6c-1.5-0.7-3-1.4-4.9-2.3c-0.2,1.9-0.5,3.2-0.5,4.6
		c-0.4,9.1,2.1,17.5,7,25.2c1.2,1.9,2.5,3.7,3.6,5.7c2.4,4.1,2.9,8.5,1.4,13c-0.3,0.8-0.6,1.6-0.8,2.4c-1.3,4.9,1.3,8.9,6.4,9.2
		c2.4,0.1,4.9-0.7,7.3-1.4c1.6-0.5,2.9-1.6,4.4-2.4c4.7-2.6,9.4-2.7,14,0.1c3.7,2.3,7.5,4.5,11.1,6.9c5,3.3,9.1,7.5,12,12.8
		c0.9,1.6,2.2,2.9,3.1,4.5c1.5,2.7,3.8,3,6.5,2.3c1.9-0.5,3.9-0.8,5.8-0.9c3.9-0.1,5.9,1.6,7.3,5.7c-3.4,1.8-6.8,3.9-10.4,5.4
		C906,482.1,903.5,482.6,901.3,482.4z M1030,483.7c0.1-1.7,0.5-3.4,1-4.9c1.7-5.3,2.8-6,9.4-5.5c1.1,6.4,2.3,12.8,3.1,19.2
		c1.2,9.2,2.2,18.4,3.2,27.7c0.3,2.5,0.4,5.1,0.2,7.6c-0.4,4.1-3,5.6-6.9,4.3c-1.7-0.6-3.2-1.7-4.8-2.5c-1.8-1-2.5-2.4-2.5-4.5
		c0-3.5-0.2-7-0.5-10.5c-0.5-7-0.4-14-1.9-21C1029.5,490.3,1029.9,486.9,1030,483.7z M480,1648.6c-4.6,3.4-7.7,13.8-5.6,18.7
		c0.8,1.8,2.1,3.2,4.1,3.1c3.3-0.1,5.2,1.7,6.7,4.3c1.5,2.5,2.8,5.2,4.2,7.8c1,1.9,1.6,4,2.8,5.6c0.9,1.2,2.5,2.6,3.9,2.7
		c3.9,0.3,7.9,0.7,11.7-0.1c7.7-1.5,15.4-3.3,23.3-3.1c3.8,0.1,6.8-1.8,8.9-4.9c1.4-2.1,2.7-4.3,3.8-6.6
		c11-22.5,17.8-46.1,19.1-71.2c1-18,2.1-36,3.5-53.9c1.2-14.6,3.5-29,7.5-43.1c3.5-12.3,8.3-23.9,15.9-34.3c1-1.3,2.1-2.5,3.6-4.3
		c1.9,3.3,3.3,5.9,5.1,9.1c3.7-4.5,6.6-8.7,8.6-13.6c1.7-4.1,1.7-8-0.2-12.2c-3.9-8.2-6.4-16.9-7.6-25.8
		c-1.4-10.9-2.2-21.8-3.4-32.7c-0.2-1.5-0.3-3.1-0.7-4.6c-0.9-3.4-2.4-3.8-4.9-1.2c-1.7,1.7-3.2,3.6-4.4,5.6
		c-4.8,7.5-9.5,14.9-14.2,22.5c-19.1,31.2-37,63.1-51.3,96.8c-11,26-20.2,52.5-22.9,80.8c-1.5,15.3-0.6,30.3,5,44.9
		c2.6,6.7-1.4,16.5-7.9,19.4c-1.8,0.8-4.1,1.1-6.1,1c-3.3-0.3-7.1-2.7-7.1-7C481.5,1650.9,481.6,1649.3,480,1648.6z M512.7,1639.9
		c2.2-8.3,4.3-16.6,6.4-24.9c4.2-16.3,8.4-32.6,12.8-48.9c0.7-2.8,1.9-5.6,3.3-8.2c1.9-3.3,4.9-4.2,8.3-3c3.1,1.1,5,3.7,4.5,7.2
		c-0.8,6.3-2,12.5-3,18.7c-2.6,16.4-5.3,32.7-7.8,49.1c-0.8,5-0.7,10,1.4,14.9c1.6,3.8,0.7,7.8-1.1,11.4c-1.9,3.8-5.6,4.3-8.5,4.2
		c-6.9,0.1-11.4-2.4-14.8-7.3C511.3,1649,511.5,1644.6,512.7,1639.9z M453.8,1511.3c-2.3,5.2-1.5,10.3,1.9,14.7
		c1.9,2.5,4.3,4.7,6.6,7.2c0.7-0.7,1-1,1.2-1.3c9-19.3,17.1-38.9,21.2-59.9c1.8-9.4,3.1-18.9,3.8-28.4c1.1-13.6,5.3-25.8,13.1-36.9
		c8.9-12.5,19.4-23.7,30.4-34.5c1.1-1.1,2.9-1.6,4.4-2.3c4.8-2.2,9.8-4.1,14.5-6.6c4.2-2.2,7-5.9,8.8-10.4
		c3.6-9.3,9.3-17.3,15.5-25.1c4.7-5.9,9.6-11.7,14.5-17.6c6-7.3,11.2-15.1,14.1-24.3c0.8-2.5,2.9-4.9,4.9-6.7
		c3.8-3.3,8-6.1,12.1-9.1c0.9-0.7,1.8-1.3,2.7-1.9c-1.3-4.8-2.6-5.5-6.8-3.4c-1.1,0.6-2.2,1.2-3.5,1.5c-0.6,0.1-1.7-0.2-2.1-0.8
		c-0.3-0.5-0.1-1.7,0.3-2.1c0.8-0.9,1.9-1.7,3-2.3c6.8-3.6,14-5.1,21.6-3.5c7,1.4,10.1,6.5,8.1,13.4c-3.7,13-7.5,25.9-11.3,38.9
		c-0.6,2.1-1.4,4.3-2.5,6.3c-2.2,4.3-5.7,7.3-10.6,8.3c-0.7,0.1-1.4,0.4-2,0.5c-4.5,1-7,3.9-7.6,8.5c-0.4,3.1-0.9,6.1-1.5,9.2
		c-1.5,6.9-5.1,12.4-11.4,16c-1.1,0.6-2.2,1.7-2.9,2.9c-4.8,9.1-10.8,17.4-17.3,25.4c-0.7,0.9-1.5,1.7-2.4,2.4
		c-4.5,4-8.5,4.2-13.3,0.7c-1.5-1.1-2.7-2.5-4.2-3.6c-1.5-1.2-3.1-2.5-4.8-3.4c-3.2-1.6-6.4-1.4-9.1,1c-2.2,1.9-4.2,4.2-5.7,6.7
		c-2.5,4.2-4.5,8.7-6.8,13.1c-1.3,2.5-2.7,5-4.3,7.2c-1.7,2.3-2.7,2.4-5.5,1.4c-6-2.1-9.9-1.3-13.8,3.7c-2.4,3.1-4.4,6.6-6,10.1
		c-4.9,11-7.3,22.7-9.3,34.5c-1.4,8.2-2.2,16.4-3.6,24.6c-0.7,4.3-1.8,8.5-3.2,12.7c-5.7,17.5-13.1,34.1-22.9,49.7
		c-4.1,6.6-8.6,12.9-14.6,17.9c-2.9,2.4-6.1,4.5-9.5,6.1c-5.7,2.7-11.2,1.7-16.4-1.8c-1.1-0.8-2.2-1.7-3.5-2.6
		c-4.5,4-8.7,7.8-13,11.3c-1.8,1.5-3.9,2.8-6.1,3.7c-2.8,1.2-4.4,0.1-4.6-2.9c-0.2-2.2-0.1-4.5,0.4-6.7
		c5.3-25.8,13.9-50.1,30.2-71.2c2.5-3.3,5.1-6.1,9-7.9c5.5-2.6,9.8-7.1,13.5-12c2.7-3.6,5.2-7.3,7.9-10.9c1.4-1.9,2.9-4.1,5.7-3.7
		c3,0.5,3.2,3.2,3.9,5.5c2,6.6,1.4,13.1-1.4,19.4c-1.6,3.6-3.7,6.9-5.5,10.4C456.8,1505.2,455.2,1508.2,453.8,1511.3z M1061.1,840.4
		c-4.8-16.1-9.7-32.3-14.3-48.5c-1.4-4.8-1.8-9.9-2.7-15c0.6-2.6,1.1-5.2,1.9-7.7c0.6-2,2.2-2.7,4.3-2.5c4.6,0.6,8.3,2.9,10.6,6.8
		c1.6,2.7,2.9,5.8,3.6,8.9c4.4,18.6,8.5,37.2,12.7,55.9c0.7,3.3-1,7.2-4,8.8c-0.7,0.4-1.6,0.6-2.4,0.6
		C1066.8,847.7,1062.3,844.3,1061.1,840.4z M786.7,1176.4c-2.4,10-3.1,20.3-1.7,30.6c0.1,0.5,0,1.1,0,1.7c-4.3,1.7-8.5,2.1-12.8,0.5
		c-4.8-1.9-9.8-3.5-14.5-5.5c-5.9-2.6-8.2-7.5-7-13.8c0.8-3.7,2.5-5.3,6.4-5.3c2.9,0,5.9,0.2,8.8,0.4c4.6,0.3,7.6-1.8,9-6.1
		c1.9-5.9,3.7-11.8,5.2-17.8c2.3-9.6,4.2-19.2,7.9-28.4c0.5-1.2,0.9-2.4,1.5-3.5c2.4-4.9,5.2-6,11.2-3.7c-1.7,6-3.4,11.8-5,17.6
		C792.6,1154.2,789.3,1165.2,786.7,1176.4z M866.9,299.2c0-3.5,1.1-6.7,3-9.5c3.3-4.7,6.9-9.3,10.2-14c1.2-1.8,2.6-2.3,4.6-1.8
		c4.9,1.1,8.2,4.1,10.7,8.3c2.8,4.7,3.9,9.9,4.4,15.3c0.2,2.5,0,5,0,8.2c-5.7,2.1-11.2,4.5-16.8,6.1
		C873.8,314.5,866.8,308.9,866.9,299.2z M648.9,1306.7c-1.7-0.8-2.1-2.3-2-3.9c0.2-2.2,0.3-4.5,1.1-6.6c2.6-7.4,5.5-14.7,8.3-22
		c0.7-1.8,1.5-3.6,2.3-5.4c1.5-3.4,3.3-4.5,6.6-3c3.8,1.8,7.5,3.9,10.9,6.2c1.1,0.8,1.5,2.8,2.1,4c-0.9,2.9-1.5,5.4-2.5,7.7
		c-2.3,5.3-4.9,10.4-7.3,15.6c-1.5,3.2-2.8,6.4-4.1,9.7c-1.2,2.8-2,3.4-4.7,2.3C656.1,1310,652.5,1308.3,648.9,1306.7z
		 M529.7,1324.5c-0.2-0.9-0.3-1.9-0.4-3.5c1.9-13.1,7.1-24.9,18.8-32.8c2.7-1.8,6.1-2.8,9.4-3.4c4.1-0.8,6.3,1.5,5.4,5.6
		c-0.5,2.6-1.5,5.1-2.7,7.5c-5.4,10.3-12.8,19.1-21.1,27.1c-1,1-2.2,1.8-3.4,2.4C532.4,1328.9,530.5,1327.9,529.7,1324.5z
		 M783.9,496.8c-3.8-3.8-3.7-7.9,0.1-11.4c2-1.8,3.7-2,6.2-0.9c0.4,0.2,0.8,0.4,1.1,0.6c8.9,6.4,17.7,12.9,26.6,19.3
		c0.6,0.4,1.1,0.9,1.6,1.4c0.9,1,2.6,1.5,2,3.3c-0.7,2.2-2.5,1.8-4.2,1.7c-0.4,0-0.8,0-1.3,0C803.5,510.1,792.8,505.6,783.9,496.8z"
		/>
</g>
<g>
</g>
<g>
</g>
<g>
</g>
<g>
</g>
<g>
</g>
<g>
</g>
<g>
</g>
<g>
</g>
<g>
</g>
<g>
</g>
<g>
</g>
<g>
</g>
<g>
</g>
<g>
</g>
<g>
</g>
</svg>
