<?xml version="1.0" encoding="utf-8"?>
<!-- Generator: Adobe Illustrator 18.0.0, SVG Export Plug-In . SVG Version: 6.00 Build 0)  -->
<!DOCTYPE svg PUBLIC "-//W3C//DTD SVG 1.1//EN" "http://www.w3.org/Graphics/SVG/1.1/DTD/svg11.dtd">
<svg version="1.1" id="Layer_1" xmlns="http://www.w3.org/2000/svg" xmlns:xlink="http://www.w3.org/1999/xlink" x="0px" y="0px"
	 viewBox="0 0 1833.4 1983.7" enable-background="new 0 0 1833.4 1983.7" xml:space="preserve">
<g>
	<path fill-rule="evenodd" clip-rule="evenodd" d="M614.9,12.5c561-136,1263.9,879,1216.3,1232.4c-44,326.5-605.8,655.9-854.5,724.3
		c-127.5,35-541,10.3-597.3-109.3c-182.4-387.8,49.2-590.6-261.7-946C-225.1,521.7,254.5,99.8,614.9,12.5z"/>
	<path fill-rule="evenodd" clip-rule="evenodd" fill="#FFFFFF" d="M1290.4,1193.1c-21.4-16.7-47.6-28.5-59-55.1
		c19.2,3.7,36.8,7.1,54.5,10.5c0.6-1.7,1.2-3.4,1.8-5.2c-4-3.3-8-6.7-13.5-11.4c23.9-5.9,45.2-11.1,63.4,8.8
		c10.9,11.9,25,14.1,40.3,13.3c11.9-0.6,23.8-0.1,40.3-0.1c-54.1,41.8-56.7,45.3-54.3,73.4c-23.8,0-47.5,0-71.2,0
		c-0.1,2-0.2,4.1-0.4,6.2c37.4,3.2,74.8,6.4,112.2,9.6c0.1,2.3,0.1,4.7,0.2,7c-23.1,4.5-46.2,9-67.6,13.2c1.9,8.4,3.4,15,5.7,25.3
		c11.3,7.6,35-1.8,47.1,21c-21.7,4.5-37.1-9.9-55.6-12.3c7.2,5.2,14.4,10.4,21.3,15.3c-1.2,2.8-1.3,4.4-2.1,4.8
		c-27.9,12.3-29.5,17.8-15.7,46.6c2.5,5.2,4,14.4,1.3,17.5c-3.7,4-12.5,6.1-18.3,4.9c-25.7-5.4-51.1-12.3-76.6-18.6
		c-7.1-1.7-14.2-3.1-22.5-1.7c19.7,12.7,33.5,35.1,62.7,34.1c-0.9-5.5-1.5-9.6-2.8-18c10.1,3.8,18.2,6.7,26.2,9.7
		c0,1.9,0,3.8-0.1,5.7c-16.9,10.2-33.3,21.3-50.8,30.5c-13.1,6.9-15.6,16.6-15.5,30.3c0.1,20.9-2,41.8-3.8,62.6
		c-1.2,13.2-8,17-20.7,11.6c-4.7-2-10.9-0.6-16.5-0.8c0.6,5.2,0.2,10.8,1.9,15.6c4,11-0.3,12.9-10.5,13.6
		c-8.3,0.6-18.1,2.7-24.3,7.8c-22.4,18.3-36.7,42.6-45.6,69.9c-3.3,10.2-6.8,21.8-18.4,18.7c-7-1.8-11.7-13.3-17-20.8
		c-1.4-2.1-1.2-5.3-1.9-9.6c-13,8.1-16.9,17.4-10.2,30c4.7,8.8,10.5,17,14.6,26.1c2.2,4.7,4.2,12.9,1.8,15.6
		c-3.5,4-12.4,7.7-16.5,5.9c-30.9-13.8-59.5-4.7-88.5,6.2c-22.3,8.3-45,15.6-68,21.7c-9,2.4-19.2,0.4-24.6,0.4
		c2.1,9.3,6.8,20.5,6.5,31.6c-0.5,17.5,5.3,29.8,16.3,44c15.4,19.9,26.8,43.8,35.9,67.4c7,18.2-4.1,26.9-22.8,20.5
		c-9.9-3.4-19.3-8.1-28.9-12.2c10.3-26.2,9.4-28-16-40.7c-18.9-9.5-37.7-19.2-56.2-29.3c-4.5-2.4-10.3-6-11.4-10.2
		c-6.3-23.1-11.8-46.5-16.2-70.1c-0.6-3.2,6.8-11.4,10.1-11.2c18.3,1.4,26.5-10.9,33.7-23.7c6.4-11.4,14-16.6,27.1-12.1
		c3.8,1.3,8.5,2.2,12.1,1.1c4.6-1.4,10-4.1,12.3-7.9c1.8-3,1-10.8-1.4-12.5c-3.5-2.4-9.9-2.8-14.4-1.4
		c-73,22.3-145.9,44.6-218.7,67.6c-67.2,21.2-134,43.3-201.2,64.4c-20,6.3-24.1,3.5-23.2-16.7c2.4-53.8,4.2-107.8,9.9-161.3
		c2.7-25.5,17.5-45.3,44.8-55.7c26.1-9.9,51.7-23.4,74.6-39.4c38.9-27.1,91.8-66.5,93.1-70.1c12.9-33.3,86.3-51.8,101-61.8
		c37.7-25.6,78.7-46.9,107.3-84.7c6.2-8.2,19.1-11.4,30.4-17.8c-0.2-1,0-5.2-1.9-7.4c-25.9-29.8-47.9-62.4-79.6-87.9
		c-30.8-24.8-38.7-48.2-28.7-82.9c12.1-42.1,18.4-86,25.1-129.4c1.5-9.5-2.7-22.8-9.1-30.2c-21.4-24.8-44.9-47.7-67.8-71.2
		c-2.2-2.3-5.7-3.3-9.8-5.7c-2.1,6.5-3.8,11.7-6.4,19.9c-13.4-8.2-25.6-15.6-41.3-25.1c1.1,8,3.4,13.6,2.1,18.2
		c-1.6,5.9-6,10.9-9.2,16.4c-4-4.1-11.3-8.1-11.4-12.4c-1.8-58.6-28.2-109.8-47.4-163.2c-3.7-10.3-4.6-21.6-6.6-32.5
		c-1.3-7.2-2.3-14.4-4.2-26.3c-8,7.1-11.8,12.5-17,14.6c-4.9,2-11.2,0.6-16.8,0.7c1.6-5,3-10,4.9-14.9c0.5-1.2,3.1-1.5,3.8-2.8
		c7.6-13.7-5.7-52-24-62c0,14.4,0,27,0,43c-26.9-31.8-50.4-59.9-45.8-100.8c-19.4,1.5-17.1,12-12.5,26.9
		c-16-6.5-18.9-17.8-21.1-28.4c-6.4-31-12-62.1-18-93.1c-13.5,4.1-18.9-0.6-19.5-15.3c-0.4-9-0.9-21.2-6.4-26.1
		c-13.4-11.7-5.9-20.4-2.5-32.8c4.2-15.3,5.1-33.3,1.5-48.7c-6.3-27.2-4.5-52.1,8.6-76.4c0,0,4.4-32,57.4-85
		c77.6-77.6,285-96.3,221.4-68.4c-101.5,44.7,34.8,4.7,147.5,37.7c81.6,51.6-105.2,174.1-149.4,211.5
		c-14.9,12.6-32.1,22.7-48.8,34.3c5.2,17.6,19.7,27.5,52,35.6c9.8-5.5,16.5-9,22.9-12.8c6.9-4.1,14.1-8,20.5-12.9
		c6-4.6,10.3-11.8,16.8-15.3c6.7-3.6,15-4.1,22.7-5.9c1.6,6.9,4.6,13.9,4.7,20.8c0.6,25.7,0.2,51.4,0.2,81
		c-10.5-4.5-17.9-7.7-28.5-12.3c8.5,13.6,15.1,24.2,23,37c-7.2,0.7-11.9,0.1-15.8,1.6c-14.1,5.2-20.3-0.6-24-14.1
		c-7-25.2-10.4-25.9-30.8-9.3c-3.6,3-7.6,5.6-11.1,8.7c-18.4,16.4-17.1,23.9,4.8,34.1c4.4,2,6.7,8.4,8,10.1
		c27.7,7,54.3,13.7,83.3,21c-24.2,37-73,49.4-66.5,103.8c-7.1-6.2-8.8-7.4-10.1-9c-1.3-1.6-2.2-3.5-6.9-4.1
		c1.2,5.8,0.3,14.6,3.8,16.9c31.7,20.6,22,53.9,27.4,82.8c2.8,15.1,7,31.4,15.7,43.5c12.5,17.6,20.7,35.1,20.2,56.6
		c-0.4,16.1-0.1,32.3-0.1,48.5c-1.9,0.7-3.7,1.5-5.6,2.2c-6.1-6.7-12.2-13.4-22.1-24.3c21.7,3,28.1-3.2,20.7-20.2
		c-3.8,0.6-8,1.1-14,2c1.5-26.5-5.2-49.3-24.2-62.5c-10.2,7.6-20.3,13.3-27.9,21.5c-4,4.4-7.1,15.2-4.6,19.2
		c11,16.9,23.7,32.8,36.8,48.2c12.1,14.1,25.6,26.9,38.2,40.6c10.3,11.1,20.1,22.6,30.2,33.9c2.3,2.6,5.9,4.8,7,7.8
		c7.1,20.9,23.7,29.5,43.2,34.8c14.4,3.9,16.5,12.2,10.5,25.4c-11.4,25-9.2,48.8,11.4,74.3c1.1-13.1,2-22.4,2.8-31.7
		c1.8,0,3.6-0.1,5.4-0.1c0,32.9,1.6,66-0.9,98.7c-0.8,10.2-11,21.1-19.6,28.8c-8.3,7.5-19.9,11.3-34.6,19.2c8.7,2,12.4,2.2,15.6,3.7
		c6.1,2.8,14.2,4.9,17.3,9.9c7.5,12,14.2,12.5,23.4,2.8c16.5-17.3,16.5-17.2,26.4,4.1c0.7,1.5,2.3,2.6,4.3,4.7
		c4.6-3,9.1-5.9,13.6-8.9c1.5,0.9,3,1.9,4.6,2.8c-2.8,5.2-4.3,12-8.5,15.2c-18.3,14.2-25,32.8-25.3,55.3c-0.6,47-2,93.9-3.1,140.9
		c0,2.2,0.6,4.3,1.4,9.3c2.7-5,4.1-7.6,6.8-12.5c0,15.8,0,29.1,0,43.6c-2.6-2.4-4.5-4.1-8.4-7.7c-1.4,8.8-3.3,16-3.5,23.2
		c-1.1,53.4,1,106.8-10.2,159.7c-5.4,25.5,0.3,28.2,26.2,30.5c36.3,3.2,64.4-14.1,92.3-32.9c3.7-2.5,7.5-6.6,8.6-10.7
		c7.7-28,28-45.3,49.9-61.6c18.5-13.8,32.1-30.3,32.2-55.5c0-6.8,5.9-13.6,9-20.3c1.5,0.5,3,1,4.5,1.5c0.7,2.6,2,5.2,2,7.8
		c0,10,3.2,19.1,14.1,18.3c10.7-0.8,24.9-0.4,26.6-16.4c0.5-4.1-1.3-10.5-4.2-12.6c-9.6-6.6-20-12.4-30.6-17.2
		c-10.9-5-17.3-11.7-14.6-24.5c0.5-2.3,0.2-4.7,0.3-7c0.7-32.4,3-28.5,29.5-44.6c25.8-15.7,48.5-38.4,68-61.8
		c14.3-17.1,22.6-39.8,30.9-61.1c7.1-18.1,18.6-22.3,35.8-19.1c6.5,1.2,13.2,0.8,23.8,1.3c-14.3-9.6-29.5-14.4-33.9-24.1
		c-4.9-10.7,0-25.8,0.8-43c7.6,6,11.4,9,15.2,12c1.6-0.3,3.1-0.7,4.7-1c-1.8-6.8-3.5-13.6-5.3-20.4c13.7,0,27.4,0,42,0
		c-0.3,3.5-1.6,6.9-0.4,8.9c3.1,5.2,7.3,9.7,11.1,14.5c4.5-4.3,11.6-7.9,13.1-13.1c3.1-10.9-2.2-19.5-14-22.1
		c-9.1-2-18.3-3.6-27.6-4.7C1301.8,1174.9,1292.6,1179.2,1290.4,1193.1z M696.6,596.7c-6.9-8.8-12.7-18.8-20.8-26.2
		c-36.6-33.2-72.3-67.1-99-109c-6-9.4-9.8-20.2-16.6-34.4c25.9-2,47.3-2.7,68.2-6.1c4.3-0.7,10.8-12.2,9.6-17.1
		c-1.9-7.7-9.5-13.9-12.1-17.2c-11.8,7.8-20.9,17.4-31.7,20.3c-40.9,11.1-47.5,7.3-64.4-31.7c-5.3-12.3-8.3-25.5-12.7-38.1
		c-1.2-3.4-3.3-6.4-5.8-11.3c-12,17.3-15.7,33.2-10.5,51.7c9.5,33.7,29.4,61.1,50.9,87.6c3.2,3.9,8.4,6.1,12.5,9.3
		c8.9,6.9,20.5,12.2,25.9,21.3c17,28.7,31.4,59,47.2,88.4c2.6,4.8,7,11.5,11.2,11.9C662.7,597.6,677.4,596.7,696.6,596.7z
		 M1148,325.1c-95.5-43.5-188.2-31.6-169.9-11.1c8.3,9.4,14.3,21.5,19,33.3c4.9,12.3,12.4,17.3,25.3,17.1
		c19.4-0.4,38.9-0.1,58.3,0.1c10.8,0.1,41.3,34.2,37.1,43.1c-3.1,6.7-11.1,11.1-17.7,17.2c3.5,5.8,7,11.6,10,16.6
		c-37.8-24.2-76-48.3-113.8-73c-8.2-5.4-15.3-15.8-25.5-5.3c-10.5,10.9-3.6,20.3,5.2,28.5c1.2,1.2,2.7,2.2,5.1,4.1
		c-11,9.6-17.2,18.8-2,30.7c16.8,13.1,18.9,13.9,30.7-4.5c5.3-8.2,9.4-10.2,17.9-3.1c7.3,6.1,16.8,10,25.8,13.9
		c21,9,42.7,16.5,63.2,26.5c5.3,2.6,9.9,12.4,9.6,18.6c-0.2,5.2-7.3,13.3-12.5,14.5c-7,1.5-15.9-1-22.8-4.4
		c-7.5-3.6-13.6-10.1-20.3-15.5c-5.1-4.1-10-8.3-15.1-12.5c-1.3,1.1-2.6,2.2-4,3.3c0.7,5.8,1.5,11.5,2.9,22.1
		c-17.4-13-33.1-16.8-50.3-4.7c2.9,2.7,5.9,5.5,9.4,8.9c-1.6,0.4-3.1,1.3-4.4,1c-13.6-3.1-27.1-7.4-40.8-9.3
		c-7.2-1-14.9,2.2-22.4,3.5c3.3,6.2,5.1,14.7,10.3,18.1c20.3,13.6,41.7,25.7,66.9,40.9c-1.4-11.6-2.3-19.1-3.4-28.1
		c25.9,1.9,29.1,24.4,36,40.4c7.2,16.6,9,35.5,14.1,57.4c12-15.4,20.1-30,17.3-45.1c-2.7-14.8-12.3-28.4-17.4-43.5
		c16.6,8.2,26.4,22.7,30.4,39.6c11.1,47.2,26.7,91.8,52.1,133.8c12,19.9,12.4,46.8,18.6,70.4c2.6,9.8,5,20.3,10.4,28.6
		c12.3,19,12.6,55-1.1,73.1c-8.4,11.1-16.5,22.3-24.7,33.5c1.5,1.6,2.9,3.2,4.4,4.7c13-10.9,28.7-19.8,38.5-33
		c13.1-17.7,22.7-38.3,31.8-58.5c11.6-25.6,21.7-52,31.5-78.4c5.4-14.4,8.9-29.5,15.5-43.9c8.4,29.5-19,54.2-11.8,88.9
		c9.7-14.8,15.8-26.4,23.9-36.3c20-24.4,29.4-51.3,26.1-83.1c-1-9.9-3.6-23.4,12.4-26.7c1.9,9.5,6,19.1,5.3,28.5
		c-3.7,53.5-30.2,96.4-64.5,135.7c-7.1,8.1-18.8,16.6-6.3,31.3c1.7-6.2,2.1-13.4,5.6-18.4c3.7-5.3,10.4-8.5,15.8-12.6
		c1.3,6.9,6.1,16.1,3.3,20.2c-11.5,16.9-25.8,31.8-38.2,48.1c-14.5,19.1-28.7,38.6-42,58.6c-3.7,5.6-4,13.5-5.9,20.4
		c1.5,0.9,3,1.9,4.5,2.8c3.4-2.3,7.2-4.1,10-7c11.6-12.3,22.6-25,34.2-37.2c12.9-13.6,28.4-21.9,47.5-24.3c10.6-1.3,20.8-6.3,35-7.7
		c-5.8,9.1-11.6,18.2-17.5,27.2c-16.8,25.3-33.9,50.5-50.5,75.9c-2.9,4.5-3.9,10.3-3.4,17.7c45.9-20.7,85.4-50.4,123.1-82.7
		c1.6,1.1,3.2,2.2,4.8,3.2c-2.4,7.2-4.1,14.8-7.5,21.4c-11,21.2-21.3,43-34.5,62.8c-7.2,10.7-19.5,18.1-29.8,26.6
		c-3.4,2.8-7.5,4.8-11.3,7.1c0.7,1.6,1.4,3.2,2.2,4.7c9.5-4.4,19.1-8.8,27-12.5c-5.2,11.2-10.7,23.1-17.5,37.9c10.8,0,16.4,0,21.9,0
		c-1.2,13.5-2.7,15.1-16.5,13.4c-22.7-2.8-45.4-6.3-68.1-9.1c-5.3-0.7-10.7-0.1-16.1-0.1c-0.3,2-0.6,3.9-0.9,5.9
		c34.9,6.5,69.8,13.1,104.8,19.6c0.4,1.3,0.8,2.6,1.1,4c-5.1,2.3-10.1,5-15.3,6.8c-21.4,7.7-43,14.7-64.2,22.8
		c-13.1,5-35.4-10-38-25.3c-1.1-6.8-3.7-16-8.7-19c-14.7-8.8-20.4-22.6-24.3-37.3c-9.5-35.5-26.6-66.9-44.3-99
		c-16.5-29.9-22.6-65.6-29.5-100.1c-0.9,5.6-1.8,11.2-2.7,16.8c-9.3-21.3-4.8-42.1,1.4-62.9c-1.4-0.5-2.9-1-4.3-1.6
		c-5.6,12.9-11.1,25.7-16.7,38.6c-3.3-45.9-11.7-92.4,11.6-136.7c-1.8-1-3.6-1.9-5.5-2.9c-4,6.4-10.4,12.3-11.6,19.2
		c-5,27.6-7.7,55.6-12.8,83.1c-1.8,9.3-8.7,17.6-12.7,26.5c-2.8,6.2-7,13.1-6.4,19.2c2.3,23.1,4.1,46.7,10.4,68.8
		c6.2,21.6,17.9,41.7,25.6,63.2c-24.1-26.1-34.4-59.4-47.8-91.2c-13.7-32.3-27.1-64.8-40.7-97.1c-1.8,0.2-3.6,0.5-5.5,0.7
		c0.9,12.7,0,25.8,2.9,38.1c15.4,65.8,32,131.3,47.6,197c3.2,13.6,6,27.9,5.3,41.7c-2.5,50.8,7.3,99.3,23.5,147
		c3.1,9,4.3,18.5,6.4,27.8c-1.5,0.6-3.1,1.1-4.6,1.7c-3.4-5.1-8.3-9.8-9.9-15.4c-9-31.4-16.9-63.1-25.8-94.5
		c-11.5-40.4-22.7-80.9-36.2-120.7c-4.1-12.2-4.7-22.4-3.9-35c1.5-26.4-1.6-53.2-4.7-79.6c-0.3-2.3-14.5-2.9-22.3-4.3
		c0.1,19.3-13,8.8-21.4,9.6c-6.4,0.6-12.7,2.6-19.1,3.9c0,2,0.1,3.9,0.1,5.9c7.4,1.2,15.1,1.7,22.2,4c5.7,1.8,14.9,5.2,15.3,8.7
		c0.6,5.5-4.5,11.9-7.9,17.5c-1.8,2.9-4.6,6.6-7.5,7.1c-21.2,4-20.7,18.5-18.8,35.1c2.7,23.7,4.3,47.6,5.7,71.4
		c0.4,6.7-1.5,13.6-2.3,20.4c-1.5,0-2.9-0.1-4.4-0.1c-2.7-8.9-4.4-18.3-8.4-26.5c-6.6-13.5-14.6-26.2-22.2-39.2
		c-2.9-5-6.9-9.5-9.4-14.7c-25-52.3-49.2-105.1-75.1-157c-11.8-23.6-9.7-45.3,2.3-67c8.2-14.9,17.9-29,26.1-43.9c2-3.7,1-9,1.4-13.6
		c-5.2,1-12.5,0.2-15.2,3.3c-6.3,7.2-10.5,16.3-15.5,24.7c-1.7,0-3.5,0-5.2,0c-2.2-11.4-4.9-22.7-6.5-34.2
		c-4.2-30.1-7.7-60.3-11.8-90.5c-1.4-10.6,9.1-19,22.3-17.3c21.2,2.7,34,20.4,31.7,41.9c-0.6,5.7,2.7,11.8,4.5,17.6
		c0.5,1.5,2.4,2.5,3.8,3.6c12.8,10.8,25.7,21.6,43,36.1c4.7-18.2,8.6-33.8,13.6-53.2c7.4,10.3,13.4,18.7,19.8,27.7
		c9-10.7,17.9-21.2,30.2-35.8c0,12.8-1,20.6,0.2,28c2.6,16.4,4.7,33.1,10.3,48.6c2,5.5,13.5,10.8,20.5,10.7
		c21-0.4,20.2-1.6,16.1-22.8c-2-10.6-1.5-22.2,0.2-32.9c2.3-15.1,3.4-27.9-13.2-27.6c2.6-11.1,10.2-24.8,6.2-31
		c-7-11-21.2-16.9-35.8-4.8c-2.8-10.6-5.2-19.5-8.2-31.2c-8,7-14.6,12.8-21.6,18.9c-22.1-38.6-44.6-75.6-64.6-114
		c-10.4-19.9-17.7-41.7-23.7-63.4c-4.7-16.9,0.5-32.4,16.6-42.8c13.5-8.7,13-20.2,3.9-31.6c-14.2-17.9-29.5-35-43.3-53.2
		c-8.8-11.6,52.5-30.1,85.4-91.3c-80-40.9,119.8-37.6,119.8-7.1c-64.2,0-144.9,41.4-135.8,55.4c1.7-1.1,14.3,18.6,16,17.5
		c0-42.3,10.5-40,51.6-40C998.7,226.4,1091.3,244,1148,325.1z M943.5,451.5c7.5-2.6,12.1-4.2,21.5-7.5
		c-14.3-24.2-27.2-46.8-41.1-68.8c-2.1-3.3-9.7-6.1-13.2-4.8c-20.6,7.5-39.2,20.1-40.7,43.1c-1,14.9,2.5,36.7,12.5,44.3
		c19.8,15.2,44.6,28.9,71.3,9.7C950.9,463.1,947.9,458.4,943.5,451.5z M1305.9,1019.1c1.6,1.7,3.2,3.4,4.8,5.1
		c5.7-5.3,11.5-10.7,17.2-16c-1.6-1.7-3.2-3.4-4.8-5.1C1317.3,1008.4,1311.6,1013.7,1305.9,1019.1z M976.6,1438
		c-1.1,2.5-3,4.9-3.1,7.4c-2.5,54.3-4.9,108.7-7.1,163c-0.6,14,6.7,16.3,17.8,10.3c21.7-11.6,43.4-23.1,64.7-35.4
		c15.2-8.8,29.6-19.1,46-29.7c-25.4-20.9-45.1-41.8-75.6-46.8c-20.6-3.4-33.6-14.9-32.7-38.5c0.4-10-3.3-20.1-5.1-30.1
		C980,1438.1,978.3,1438.1,976.6,1438z M1169.6,546.1c3.2,0.2,7.1-0.8,9.4,0.7c15.7,10.6,18.9-2.2,23.4-12.2
		c6.1-13.3-6-17.7-12.8-16.9c-18.9,2.3-37.4,8.1-56.1,12.5c19.7,11.7,19.4,11.9,35.8,38.9c2.9,4.8,8.8,8,14,10.7
		c1,0.5,7.9-6.2,7.4-7.6c-2.2-5.5-5.8-10.6-10-14.9c-3.3-3.5-8.1-5.5-12.2-8.2C1169,548.1,1169.3,547.1,1169.6,546.1z M1199.3,628.3
		c-3.5,5.4-7,10.8-10.5,16.2c-0.9-0.7-1.8-1.4-2.7-2.1c7.3-14.1,14.6-28.2,21.9-42.4c-2.4-1.2-4.8-2.5-7.1-3.7
		c-14.1,25.7-29.3,51-41.7,77.5c-2.9,6.2,3.3,16.6,5.9,27.5c27.3-18.1,27.6-46.3,41.5-66.9C1204.2,632.4,1201.7,630.3,1199.3,628.3z
		 M916.8,607.4c-4.4-9.3-20.5-12.5-22.8-5.1c-3.7,12-4.4,24.8-6.4,37.3c2.6,1.3,5.3,2.7,7.9,4c2.3-3.8,4.6-7.5,6.9-11.3
		c2.8,2.3,6.2,5,10.6,8.5C922.4,629.5,921.9,618.3,916.8,607.4z M1179.1,741.8c26.7-10,41.9-28.3,38.9-47.7
		C1209.8,712.9,1183.4,716.9,1179.1,741.8z M1346.2,913.8c19.3-10.5,34.5-25,44.1-44.7c-1.7-1.6-3.3-3.2-5-4.8
		c-14.3,15.2-28.5,30.3-42.8,45.5C1343.7,911.1,1345,912.4,1346.2,913.8z M946,611.7c-0.3,10.9-0.6,21.9-0.9,32.8
		c4.7-0.5,12,0.8,13.6-1.7c7.9-11.7,5.8-22.7-5.6-31.3C950.7,611.6,948.4,611.6,946,611.7z M954.5,988.2c6,4.5,12,9,18,13.6
		c1.4-0.7,2.8-1.4,4.2-2.1c-1.1-6.3-0.3-14.4-3.9-18.2c-2.7-2.7-11.3,0.4-17.3,0.9C955.2,984.3,954.8,986.2,954.5,988.2z"/>
</g>
<g>
</g>
<g>
</g>
<g>
</g>
<g>
</g>
<g>
</g>
<g>
</g>
<g>
</g>
<g>
</g>
<g>
</g>
<g>
</g>
<g>
</g>
<g>
</g>
<g>
</g>
<g>
</g>
<g>
</g>
</svg>
