<?xml version="1.0" encoding="utf-8"?>
<!-- Generator: Adobe Illustrator 18.0.0, SVG Export Plug-In . SVG Version: 6.00 Build 0)  -->
<!DOCTYPE svg PUBLIC "-//W3C//DTD SVG 1.1//EN" "http://www.w3.org/Graphics/SVG/1.1/DTD/svg11.dtd">
<svg version="1.1" id="Layer_1" xmlns="http://www.w3.org/2000/svg" xmlns:xlink="http://www.w3.org/1999/xlink" x="0px" y="0px"
	 viewBox="0 0 1790.7 2059" enable-background="new 0 0 1790.7 2059" xml:space="preserve">
<g>
	<path fill-rule="evenodd" clip-rule="evenodd" d="M1781,1267.2c115,577-812,1084-1496,595c-385.8-275.8-405.7-709.4,100-1415
		C1067.6-505.2,1569,203.2,1781,1267.2z"/>
	<path fill="#FFFFFF" d="M1197.8,334.9c10.6,18.9,21.3,37.8,31.8,56.8c0.8,1.4,0.1,3.8-0.1,5.7c-2.4,20.3,5.7,37.5,15.7,54.3
		c8.5,14.3,22.1,26.2,14.8,46.6c-2.8,7.9,0.9,18.8,3.5,27.8c5.6,19.5,15.1,38.3,18,58.1c2.7,18.7,1.9,39.1-2.8,57.3
		c-5.9,22.9,10,32.8,21.1,50.5c7.1-19.5,11.6-36.4,7.4-53.1c-4.7-18.4-6.2-35.7,0.4-53.6c0.9-2.6,1.1-5.8,0.5-8.5
		c-3.2-14.9-6.6-29.8-10.4-44.6c-10.4-40.7-21.7-81.1-31.5-121.9c-6.9-28.8-13.8-57.1-29.1-83.1c-10.8-18.4-18.6-38.5-27.8-57.9
		c-2.9-6.1-5.2-12.5-8.8-18c-15.8-23.9-32.1-47.5-48.1-71.3c-3.8-5.6-6-12.9-11-16.8c-36.7-28.6-69.9-62.9-120.4-68.5
		c-14.9-1.7-27.5,0.5-40.1,6c-12.9,5.7-26.7,10.8-29.2,28.4c-0.6,4.1-7.5,6.9-10.6,11c-11.5,15.7-22.6,31.6-33.6,47.6
		c-0.9,1.4-0.8,3.9-0.3,5.7c6.4,23.1,1,48.8,17.1,69.9c9,11.7,0.6,28.9-14.1,30.3c-34.5,3.3-62.8,16.7-83.2,46.1
		c-7.7,11.2-8.8,20.5-2.7,31.8c5,9.2,11.8,18.3,13.6,28.3c1.3,7.1-3.1,16.1-7.1,23c-1.2,2-9.7,0.3-14.7-0.4c-6.1-0.9-12-2.6-18-3.9
		c-1,7.2-2.7,14.4-3,21.6c-0.3,6.8,2.6,14.1,0.9,20.3c-4.1,14.9,3.5,27.5,18.9,27.9c9.5,0.2,19.3,1,28.5-0.8
		c13.7-2.7,17.1,3.1,17.4,15.2c0.4,12.8,6.4,21.6,20.2,24c15,2.5,29.8,6.1,44.9,8.6c16.1,2.7,21.2,12.3,14.2,27.3
		c-2.8,6-6.1,12.4-6.5,18.7c-1.6,27.4-2.9,54.9-2.8,82.3c0,8,4,16.4,7.8,23.7c4.6,8.9,11.5,16.5,16.4,25.3c1.4,2.5,0.4,7.6-1.4,10.2
		c-1,1.4-5.9,0.4-9-0.1c-7.5-1.2-14.9-3.8-22.3-3.8c-18.9,0.2-37.9,1.8-56.8,2.5c-11.9,0.4-38.2,26.1-36.3,37.8
		c0.9,5.5,6.8,12.7,12.1,14.5c8,2.8,14.1-1.9,16.7-11.3c2.2-7.9,5-19.8,10.4-21.8c11.8-4.2,27.1-7.6,38-3.5
		c21.8,8.2,42.1,10.7,63.7,2.3c0.4-0.2,1,0,1.4,0c12-1.6,23.9-3.2,37.7-5c3.1,11.9,15.4,15.9,29.8,12.6c4-0.9,7.4-7.6,9.4-12.4
		c2.3-5.5,1.8-12.2,4.3-17.6c3-6.6,4.5-11.1-3.1-15.6c-10.3-6.1-20.2-12.8-29.7-20c-11.1-8.5-13.9-27.1-5.5-39.3
		c6.7,6.4,13.1,12.7,19.8,18.8c9.6,8.7,20.2,4.8,29.5,0.5c4.2-1.9,9.5-11.4,8.2-13.2c-4.6-6.6-11.7-11.4-18-16.8
		c-1-0.8-2.8-0.7-4-1.3c-7.5-3.5-9.4-7.9-2.1-13.7c2.2-1.8,4.1-3.9,7.7-7.3c-5.5-3.6-10-6.5-14.5-9.6c-12-8.4-24.1-16.5-35.7-25.3
		c-7.4-5.6-13.7-12.6-20.8-18.7c-4-3.4-10.3-5.3-12.3-9.5c-2.7-5.5-2.2-12.5-3.1-18.9c5.5,0.9,12,0.3,16.3,3
		c17.7,11.1,28.6,10.4,45.1-3.3c4.9-4.1,11.1-7.2,17.2-9c25.2-7.5,26.4-10,19.4-37.1c-6.4-24.9-16.3-50-16.6-75.1
		c-0.4-33.9-22.4-56.3-35.7-83c-9-18-24.2-32.9-36.3-49.4c-1.5-2-1.3-5.4-1.8-8.1c-3-15-6.1-30-10.2-50.1
		c4.6-2.4,13.6-6.7,22.2-11.7c4.1-2.4,7.5-6.1,11.2-9.3c-3.6-3.1-6.9-8.4-10.8-8.9c-12.5-1.7-25.3-1.5-40.7-2.2
		c0.9-4.6,0.2-13.8,4.4-19.3c8.9-11.7,19.8-22.2,31.2-31.7c3.2-2.6,13.2-2.3,15.8,0.6c9.7,10.5,19.8,12.3,32.5,7.1
		c9.6-3.9,15.1-0.2,18.3,9.9c1.9,6.1,5.8,12.5,10.7,16.4c13.3,10.5,31.2,16.1,35,35.9c0.2,1.2,1.8,2.9,2.9,3.1
		c13.4,2,16,14.5,23.3,22.7c15.7,17.8,33.7,33.6,50.5,50.4c3.1,3.1,5.6,7.3,7,11.4c0.5,1.5-3.5,6.4-4.3,6.1
		c-4.4-1.5-8.6-3.8-12.5-6.3c-1.5-0.9-1.7-3.5-3.1-4.8c-9.1-8.9-18.3-17.7-29.7-28.6c-3.3,17.6-5.4,31.4-8.5,44.9
		c-1.8,7.9-7.9,10.5-13.9,4.6c-5-4.9-11.7-12.2-11.1-17.7c2.2-18.9-9.4-31.4-16.1-43.8c-7.8,2.2-14.7,5.1-21.8,5.9
		c-9.9,1.1-11.4,6.8-8.3,14.1c2.2,5.1,7.7,8.8,10.2,13.8c7.4,15.2,15,30.4,20.6,46.3c4.4,12.4,5.3,25.9,8.7,38.7
		c5.5,20.3,11.2,40.5,18.2,60.3c2.2,6.3,9.1,10.9,13.4,16.5c5.2,6.8,13.8,13.7,14.2,20.9c1.2,19.3,6.1,38.9-1.6,58.3
		c-2.3,5.9-0.8,13.5-0.3,20.2c1.7,21.1,4.5,42.1,5.3,63.1c0.9,22.9-0.3,45.8,0.5,68.7c0.2,6.7,2.4,15,6.8,19.5
		c9.4,9.7,14.5,19.6,13.7,33.5c-0.2,4.2,5.2,8.6,8,13c3-4.6,7.6-8.8,8.7-13.7c3.3-15.3,5.3-30.9,7.5-46.4c0.5-3.6,0.8-7.7-0.3-11
		c-13.2-38.6-15.9-78.2-11.6-118.6c0.4-4.1-0.6-8.5-1.2-12.7c-2.9-21.8-5.9-43.6-8.6-65.4c-1.1-8.7-1.8-17.5-2.7-26.3
		c1.5-0.6,2.9-1.1,4.4-1.7c6.7,13.6,13.4,27.2,20.1,40.9c1.8-0.6,3.6-1.2,5.5-1.8c1.4-38.5-1.1-76.6-10.4-114.8
		c6.6,11.6,11.2,23.8,14,36.5c4.1,18.7,6.4,37.8,10.2,56.6c3.1,15.3,11.9,28.1,10.1,46.3c-1.4,14.2,11.6,29.8,18.2,44.8
		c0.4,0.9,0.1,2.1,0.7,2.8c1.7,2.3,3.5,4.4,7.7,9.5c0.6-8.6,1.3-13.2,1.3-17.8c0.1-21.6-3-41.9-11.1-62.9
		c-11.6-30.5-16.9-63.5-24.1-95.7c-3.8-16.7-5.9-33.8-8.8-50.7L1197.8,334.9z M1023.6,852.1c-4.7,24.4-43.2,50.5-69.7,51
		c-12,0.2-24.7,2.5-35.8,7c-13.5,5.5-26.2,10.5-41.3,9.7c-9.2-0.5-20.2,1.1-22,13.8c-1.8,12.6,3.4,22.4,15.8,26
		c27.5,8,55,17.3,84.3,15c21.5-1.7,43.1-3.6,64.6-5.9c14.1-1.5,30.2-14.7,29.5-27.4c-1.4-25.9,8.5-48.9,15.3-72.6
		c6.7-23.2,10.2-47.2,24.2-68.5c5.5-8.3,1.8-22.8,1.9-34.4c0.1-7-0.8-14-0.8-20.9c0.1-10.2,1-20.3,0.6-30.4c-0.1-2.5-4-7.1-5.2-6.9
		c-3.1,0.7-7.7,3.2-8.3,5.8c-8.2,34.6-29.4,60.8-54,84.9c-2.2,2.1-5.5,3.1-8.3,4.6c-0.9-1.1-1.7-2.2-2.6-3.3
		c3.7-4.7,8.2-9,10.9-14.3c2.9-5.6,4.1-12.1,6-18.1c-5.3-1.6-10.6-4.5-15.9-4.6c-24.2-0.5-48.5,0.1-72.7-0.4
		c-12-0.2-23.9-2.5-35.9-2.4c-4.5,0-9,4-13.6,6.2c3.5,4,6.3,9.5,10.7,11.6c6.3,3,13.7,4.3,20.7,4.9c15.3,1.5,30.8,1.4,46,3.5
		c5.3,0.7,10,5.9,14.9,9c-4.2,3-8.1,7-12.7,8.6c-4.7,1.6-10.2,0.9-15.3,0.8c-27.9-0.8-55.7-9.3-83.5,2.7c-11,4.7-15.3,10.6-7,18.6
		c11.5,11.1,12.8,31.1,31.6,35.7c2.1,0.5,4,4.2,5,6.8c4.5,11.6,13.5,11.9,23.7,10.6c9-1.2,18.3-1,27-3.1c8.9-2.2,18.3-5,25.6-10.1
		C991.7,855.6,1007.4,855.5,1023.6,852.1z M1188.2,1420.7c21.2-1.8,40.8-5.5,57-20.3c5.3-4.9,10.5-10.3,16.8-13.6
		c20.2-10.5,36.1-25.3,48.8-44c2.9-4.3,6.9-7.9,11.1-11.1c36.5-28.3,67.4-60.6,78.7-107.4c1.2-5,4.7-9.4,7-14.1
		c6.7-13.7,13-27.6,20.1-41c6.7-12.5,14.7-24.2,21.4-36.7c4.3-8.1,10-16.9,10.4-25.6c1-21.9-30.9-30.9-50.4-25.9
		c-22.8,5.9-38.6,21.2-53.5,37.8c-1.7,1.9-1.4,5.7-1.2,4.4c9.6,5.3,17.9,7.9,23.2,13.4c6.2,6.3,9.7,15.2,14.5,23
		c5.4,8.7,6.1,16.2-5.3,20.7c-9.1,3.6-10.1,8.9-3.8,16.5c13.3,15.9,12.5,19.8-7,26.2c-10.6,3.5-16.4,8.3-15.4,20.4
		c0.4,4.6-2.7,9.8-5.1,14.3c-4.7,8.8-10.5,17.1-14.9,26c-8.1,16.2-12.9,34.3-29.6,45c-13,8.3-25.1,17.9-38.3,25.8
		c-4,2.4-10.2,1.1-15.4,1.4c0.1-5.6-1-11.7,0.7-16.8c5.8-17.5,13.2-34.5,18.8-52.1c3.7-11.8,5.7-24.1,7.9-36.3
		c3.9-21.4,15.1-40.8,12.9-64.3c-2.6-27.7-10.5-37.4-39.2-37.2c-22.6,0.1-31.7,14.4-22.4,35.3c2.1,4.7,5.3,9.3,9,12.9
		c19.8,19.1,19.9,19-1.1,37.9c3.6,2.5,6.9,4.9,10.2,7.3c10.8,7.7,10.6,18.1-0.8,25.2c-2.8,1.7-6.1,2.9-9.3,3.7
		c-8.8,2.3-10.9,9.5-7.3,15.5c5.8,9.7,3.7,16.2-3.1,24c-3.1,3.6-3.1,9.9-4.7,14.8c-2.4,7.6-5,15.2-7.5,22.7
		c-1.8,5.3-5.4,10.6-5.4,15.9c-0.1,10.7-4,17.5-12.9,23.9C1193.5,1395.1,1182.4,1402.8,1188.2,1420.7z M394.9,1553.1
		c-0.2,18.7,5.1,22.2,19.3,14.3c25.5-14.4,49.8-30.7,75.7-44.1c24.4-12.7,41.6-32.2,57.4-53.6c6.7-9.1,7.2-17.9-3.5-24.4
		c-9.8-5.9-20.2-10.9-30.1-16.7c-20.8-12.2-44.7-20.4-54.1-46.5c-3.4-9.2-12.9-10.9-22.2-7.2c-6.2,2.4-12.4,5.1-18.3,8.1
		c-21.3,10.7-29.7,34.2-16,53.8c7.5,10.7,7.2,17.2,0.2,26.1c-1.4,1.8-2.2,4.4-2.4,6.6C398.7,1498.3,396.7,1527.2,394.9,1553.1z
		 M414.9,1170.4c1.9,1.1,3.8,2.2,5.8,3.3c-15.1,18.3-4.9,29.9,8.2,39.7c6.7,5,14.7,8.6,22.6,11.5c10.8,4,20.9,9.6,17.5,22.3
		c-8.3,31,11,53.3,22.7,77.9c1.5,3.3,9,5.9,13,5.1c2.8-0.5,5.2-7.2,6.3-11.4c0.8-2.9-0.5-6.6-1.7-9.7c-10.1-27.2-13.1-54.9-6.9-83.5
		c2.3-10.6-1.7-18.7-9.5-27c-19.5-20.6-37.4-42.7-56.4-63.8c-23.1-25.7-49.1-47.5-83.3-57.1c-19.2-5.4-38.3,0.1-45.5,12.7
		c-7.3,12.8-4,27.4,11,42.3c17.8,17.6,36.5,34.3,54.5,51.7c7.9,7.6,14,4.7,21.2-1.1C400.7,1178.4,408.1,1174.7,414.9,1170.4z
		 M946.5,1416.1c-0.4-12,8.5-18.9,21.2-23.9c4.1-1.6,8.1-8.2,8.8-13c3.4-23.4,4.8-24.3,28.9-29.6c8-1.8,17.4-7,21.9-13.5
		c7.4-10.6,1.7-18.7-11.2-17.9c-10,0.6-19.8,2.9-29.7,4.6c-31.1,5.3-61.6,14.4-93.7,13c-15.2-0.7-25-4.8-30.1-20.8
		c-7.2-22.5-32-33-51.1-22c-7.1,4.1-11.4,13.2-16.9,20c6.1,4.4,12.1,8.9,18.2,13.3c0.7,0.5,1.9,0.2,2.8,0.5
		c14.5,4.4,15,7.7,6.8,19.8c-3.6,5.2-6.1,13.7-4.5,19.5c6.9,25,31,31.9,50.4,15.4c1.2-1,3.2-1.2,5-1.9c5,26.1,10.2,30.4,33.8,31.7
		C920,1412.1,932.9,1414.4,946.5,1416.1z M788.6,567.3c-5.6,3.6-17,7.6-17,11.6c0,14.5,0.3,31,7.2,42.8
		c9.4,15.9,13.4,32.3,17.1,49.6c2.6,12.5,6,25.2,11.2,36.7c2.2,4.9,10.3,9.8,15.7,9.7c5.1-0.1,11.5-5.7,14.9-10.6
		c7.1-10.2,12.1-21.8,18.7-32.4c14.5-23,29.9-45,34.9-73.1c4.8-27-9.2-43.7-35.1-37.3C834.7,569.6,813.8,578.7,788.6,567.3z
		 M1101.8,1383.4c-2.4,0.6-4.2,1.3-6,1.5c-16.9,1.6-20.6,7.9-14.5,23.8c1.4,3.6,3.4,7.4,3.1,10.9c-1,11.6,3.9,16.1,15.2,14.8
		c14.4-1.6,22.3-8.3,19.7-19.2c-7.3-30.4,9-55.5,17.9-82c7.1-20.9,17.4-40.8,26.8-60.9c2.2-4.6,6.3-8.3,9.6-12.5
		c6.4-8.1,13.3-15.8,18.8-24.5c2.1-3.3,2.7-10.5,0.6-12.8c-2.4-2.6-9.1-3.3-13-2.1c-25.4,8-50.7,16.6-75.8,25.5
		c-9.6,3.4-14.6,9.2-6.7,19.6c2.7,3.5,2.8,8.9,4.7,13.2c3.5,7.8,7.6,15.4,11.3,23.1c2.9,6,8.9,13.1,7.5,18
		c-2.7,9.7-9.9,18-14.6,27.3c-3,6-6,12.5-7,19.1C1098.6,1371.6,1100.8,1377.4,1101.8,1383.4z M548.8,1190.2
		c-7.4,3.4-15.9,5.6-21.8,10.7c-2.3,2-1.1,12.6,2.1,15.7c12.5,12.2,26.4,23,39.7,34.3c4.1,3.5,8,7.1,12,10.6
		c-3.7,4.2-7.3,8.6-11.3,12.5c-1.6,1.5-4.4,1.7-6.6,2.7c-18.8,8-20.6,12.9-12.2,32c4.2,9.5,8.1,19.2,11.8,28.9
		c4.2,11.1,7.2,22.8,12.3,33.4c6.3,13.3,16.8,16.9,28,11.6c11.7-5.6,17.7-19.7,10.8-31.4c-5.6-9.7-15-17.1-21.8-26.2
		c-3.6-4.8-8.6-14.5-7-16.2c16.6-17.1,20-38.9,24.2-60.6c0.2-0.8,1.3-1.4,1.9-2.2c7.8-9.9,6.9-16.9-5.7-22c-6-2.4-12.4-6.4-16-11.5
		C579.5,1198.4,566.7,1192.3,548.8,1190.2z M1134.4,1462.9c-0.2-2.9-0.4-4.8-0.3-6.7c0.3-6.9,0.9-15.5-8.3-15
		c-4.3,0.3-9,7.6-11.9,12.7c-3,5.3-4.7,11.6-5.8,17.6c-2.5,13.6-11.4,16.6-23.4,15.2c-7.1-0.9-14.1-2-21.3-2.7
		c-12.4-1.2-14.6-6.3-9.6-18c2-4.6,2.2-13.3-0.6-15.8c-5.4-4.9-13.3-8.2-20.6-9.4c-9.7-1.6-16.9,3.8-14.7,14.2
		c3.1,14.7,10.7,29.4-5.7,41.2c-0.3,0.2-0.2,0.9-0.3,1.4c-2.4,19.1,18.6,37.2,37,31c18.5-6.2,36.6-13.3,54.7-20.7
		c12.8-5.2,25.7-10.4,37.6-17.2c15-8.5,29.4-18.2,43.3-28.3c5.5-4,9.8-10.4,12.9-16.6c1-2-5.1-10-5.5-9.9c-11,5-23.4,8.8-31.8,16.9
		C1152.5,1460,1146.3,1465.3,1134.4,1462.9z M900,1695c-1.3-1.8-2.5-3.5-3.8-5.3c3-3.7,5.3-8.2,9.1-10.7c4.2-2.8,9.7-3.8,14.7-5.5
		c13.3-4.5,17.1-10.9,10.1-22.4c-6.7-10.9-15.1-21.3-24.8-29.5c-11.2-9.4-24-2.2-24.3,12.8c-0.1,5.2,1.9,10.3,2.3,15.5
		c0.7,8.5,2.7,17-6.9,23.1c-13.5,8.6-16.8,24-8.9,37.3c5.9,9.9,11.6,20.1,18.7,29.1c3.4,4.3,9.8,8.2,15.1,8.6
		c7.3,0.5,14.9-2.4,22.3-3.9c5.2,5.9,13.3,11.8,16.6,9.8c5.2-3.2,10.2-11.8,9.9-17.8c-0.6-13.6-3.7-27.3-7.2-40.6
		c-3-11.4-10.7-13.3-21.3-8C914.9,1690.8,907.3,1692.5,900,1695z M690.1,1231.6c-15.9,5.4-31.4,10.1-46.4,16.1
		c-10.1,4-8.5,12.5-0.9,16.2c20.7,10.3,42.4,18.4,63.3,28.3c4.7,2.2,11.8,10.5,10.9,11.8c-8.3,13.6,1.4,26.2,1.3,39.1
		c-0.1,12.1,8,15.2,18.7,9.1c6.6-3.9,14.2-7,19.3-12.3c3.9-4.1,7.8-12.5,6.1-16.7c-12.2-30.5-26.4-60.1-53-81.3
		C704.3,1237.5,697.2,1235.2,690.1,1231.6z M1317.3,996.9c-11.1,21.1-28.5,29.3-46.9,36.7c-4.6,1.8-7.4,8.2-11.1,12.5
		c4.7,2.4,9.4,6.5,14.2,6.8c8.6,0.5,12.6,3.3,11.9,12.2c-0.3,3.7,0.6,7.4,0.9,11.5c10.6,1.4,17-0.8,16.9-12.4c0-3.2,0.6-7.8,2.7-9.5
		c4.3-3.5,9.9-5.5,14.9-8.1c1.5,4.8,4.3,9.7,4,14.3c-0.3,4.9-3.4,9.9-5.8,14.5c-5.1,9.8-11.2,19.1-15.4,29.3
		c-1.4,3.3,1.8,8.5,3,12.9c3.5-2.5,9-4.3,10.3-7.7c7.8-20.1,18.5-38.4,30.6-56.1c3.2-4.7,3.8-11.6,4.3-17.6c0.2-2.5-3.3-7.7-4.7-7.6
		C1325.2,1030.9,1316.1,1020.6,1317.3,996.9z M1098.7,1754.4c2.7-1.2,4.5-1.7,6.1-2.8c27.4-17.9,45.6-43.2,57.6-73.2
		c1-2.5,0.1-8.2-1.5-9c-3.5-1.6-8.8-2.6-12-1c-17.6,8.5-35.1,17.1-51.9,27.1c-8.1,4.8-14.8,12.3-21.1,19.5c-2.2,2.5-3,8.7-1.4,11.5
		c5,8.5,11.3,16.3,17.5,24.1C1093.6,1752.6,1096.7,1753.4,1098.7,1754.4z M1304.4,1275.8c2.3,1,4.7,2.1,7,3.1
		c4.4-5.2,10-9.8,12.9-15.7c9.6-20.3,19.1-40.8,26.8-61.9c3.7-10.1,4-21.7,4.2-32.7c0.1-3.3-5.5-6.7-8.4-10.1
		c-5.9,5.3-14.6,9.5-17.1,16.1c-7.4,19.5-13,39.7-18.1,60C1308.3,1248.1,1306.8,1262.1,1304.4,1275.8z M744.1,537.7
		c-1.8-0.2-3.6-0.4-5.4-0.6c-2.1,3.7-5.4,7.1-6.1,11.1c-2.8,14-6.4,28.2-6.5,42.4c-0.1,20.8,1.7,41.7,4.6,62.2
		c0.6,4.5,9.2,8,14.1,11.9c1.8-5.3,5-10.5,5.1-15.8c0.5-23.9,0.8-47.8-0.2-71.6C749.1,564.1,746,550.9,744.1,537.7z M1350.1,831.8
		c-12.3,5.3-12.7,11-10.9,20c7,36.5,42.3,53.3,57.8,83.9c1.3,2.5,9.9,1.3,15.1,1.8c-0.1-5.1,1.2-10.8-0.7-15c-2-4.5-7-7.8-10.9-11.4
		c-14.3-13.6-27.2-26.9-29.4-49.2C1370.1,851.2,1357.4,841.6,1350.1,831.8z M1421.2,989.5c2.1,4.1,3.8,8.4,6.2,12.3
		c3.1,4.8,7.5,9,9.7,14.1c0.8,1.9-2.3,6.8-4.9,8.5c-6.2,4.2-13.7,6.6-19.6,11.2c-2.5,1.9-4.2,8.6-2.8,10.8c1.7,2.5,8.2,4.6,10.9,3.2
		c9.8-4.8,15.8-0.4,22.9,5.7c8.5,7.3,17,3.5,19-7.2C1468,1020.2,1453.5,997,1421.2,989.5z M1317.5,807.6c1.8-20.7,1.5-38.4,5.4-55.1
		c3.3-14.1-2.3-34.9-16-42c-14.8,14.9-18.5,42.1-8.3,59.5c2.6,4.5,4.3,9.6,6.6,14.3C1309,791.7,1312.9,799,1317.5,807.6z
		 M1136.3,886.9c1.2,0.4,2.4,0.8,3.6,1.2c0,3.9-1.1,8.2,0.3,11.5c2,4.9,5.7,9.1,8.8,13.6c4.1-2.8,10.3-4.7,11.8-8.5
		c3-7.7,5-16.5,4.8-24.8c-0.6-19.6-9.3-39,0.1-58.9c1.5-3.2-0.9-9.1-3.3-12.6c-0.9-1.4-9.1-0.5-9.7,1.1c-1.6,3.8-0.7,8.6-0.7,13.1
		c0,5.9,1.6,12.2,0.1,17.6C1147.4,856,1141.6,871.4,1136.3,886.9z M820.1,1586.5c-1.4-0.5-2.9-1.1-4.3-1.6
		c-8.3,15.7-16.9,31.3-24.4,47.4c-1,2.2,2.9,8.9,6,10.4c8.9,4.2,18.4,7.6,28,9.7c8.9,2,13.2-4.9,11.5-12
		C832.2,1622.3,825.8,1604.5,820.1,1586.5z M1348.2,929.8c-0.6-9.5-1.1-18-1.8-26.5c-0.8-10.1-21.3-25.5-30.8-22.3
		c-2.9,0.9-5.9,5.1-6.6,8.3C1304.3,910.4,1326,932.9,1348.2,929.8z M1206.8,911.4c11.2,14.3,25.1,24.8,44.1,25
		c4.5,0.1,10.1-4.3,13-8.3c1.2-1.6-2.7-8.5-5.8-11.3c-5.7-5-12.8-8.4-18.8-13.1C1224,891.9,1217.4,893.2,1206.8,911.4z
		 M672.4,1837.8c0.1-9.5-11.4-19-22.7-18.9c-9.3,0.1-19.5,10.3-19.6,19.6c-0.2,10,14.4,23.9,24.9,23.7
		C664.7,1862,672.3,1851.4,672.4,1837.8z M1254.3,675.1c-6-14.6-10.6-27-16.5-38.8c-1.4-2.7-7.1-4.3-10.9-4.4
		c-1.8-0.1-5.3,4.7-5.3,7.1c0.3,12.3,1.1,24.6,2.6,36.9c1.3,10.3,9.3,15.5,18.2,14.1C1246.8,689.2,1249.9,680.9,1254.3,675.1z
		 M1111.5,567.8c-2-1.3-4-2.6-6-3.9c-8.8,10.6-18.9,20.5-25.8,32.2c-2.7,4.6,0.6,14.1,3.7,20c1.9,3.5,9,6,13.5,5.6
		c3.6-0.3,9.2-5.2,9.8-8.8C1109.1,598.1,1110,582.9,1111.5,567.8z M1344.9,1092.5c1.8,0.8,3.6,1.7,5.4,2.5
		c12.2-13.7,25-26.9,36-41.4c2.3-3-1.9-11-3.2-16.6c-5.2,2-11.8,2.7-15.2,6.4c-4.7,5-7.4,12.2-10.4,18.7
		C1353.1,1072.1,1349.1,1082.4,1344.9,1092.5z M1177.6,763.2c-1.3-1.6-3.5-6.7-6.9-7.8c-3.7-1.2-9.7,0.1-12.7,2.7
		c-10.7,9.5-7.7,32.8,4.5,40.6c7.1,4.6,14.7,0.9,15-7.5C1177.9,782.9,1177.6,774.6,1177.6,763.2z M1290.3,850.8
		c-0.7,0.2-1.3,0.5-2,0.7c0,2.9-1.1,6.5,0.2,8.5c2.8,4.4,6.4,8.7,10.6,11.7c1.8,1.2,8.5-0.8,8.6-1.5c0.1-4.5-0.7-9-1.7-13.4
		c-2.2-9.1-4.4-18.2-7.2-27.2c-1.9-6.1-4.6-12-7.7-17.6c-0.3-0.6-8.1,1.4-8.2,2.4c-0.2,6.6,0.2,13.4,1.6,19.8
		C1285.7,839.9,1288.3,845.3,1290.3,850.8z M1063.9,916.6c0.9,1.3,3.1,7,6.6,8.1c8.1,2.4,19.2-9.6,19.8-20.6
		c0.3-5.7,2.7-13.4-7.7-13.7C1073.6,890.1,1065.1,900.2,1063.9,916.6z M657.5,1038.7c12,0,24.4-11.3,23.6-20.3c-0.4-4-4.4-9.8-8-11
		c-6.2-2.1-22.8,15.9-21.6,23.3C652,1034.1,656.2,1037,657.5,1038.7z M1102.7,665.6c-8.3,8.1-13.2,12.9-18.1,17.6
		c5.6,4.9,10.7,10.9,17.2,13.9c1.6,0.7,10.1-8,11.1-13.1C1113.6,679.9,1107.8,674.5,1102.7,665.6z M892.4,1539.9
		c-2.3,0.3-4.5,0.6-6.8,0.9c-1.7,5.4-4.1,10.6-4.8,16.1c-0.9,7,0,14.8,9.7,13.9c7.3-0.7,15.4-4.3,13-13.5
		C902,1551,896.3,1545.7,892.4,1539.9z M968.2,1042.8c11.2,5.5,21.6,7.1,29.9-1.2c1.8-1.8-2.3-14.9-5.9-16
		C978.9,1021.3,974.8,1033,968.2,1042.8z M1130.6,987.2c3.5-10.3,7.7-19.9-1.3-28c-1.6-1.4-10.9,1.6-12.2,4.5
		C1111.8,976,1120.9,981.4,1130.6,987.2z M1202.4,1163.2c3-0.8,6-1.6,8.9-2.4c-0.6-6.8,0.3-14.3-2.5-20.1c-1.9-4-9-5.4-13.8-8
		c-1.7,1.5-3.5,3.1-5.2,4.6C1194.1,1146,1198.2,1154.6,1202.4,1163.2z M753.2,720.6c5.2-12,3.1-27.4-4.3-29.9
		c-2.1-0.7-7,1.3-7.7,3.2c-4.5,11.4,0.2,20,9.6,26.6C751.1,720.8,751.7,720.6,753.2,720.6z M1158.7,955.3c-1.3,0.4-2.5,0.8-3.8,1.2
		c0.8,7.2,1.1,14.4,2.7,21.4c0.7,3.1,3.6,6.8,6.4,8.1c1.7,0.8,6.5-2,7.7-4.4c1.4-2.7,1.7-7.5,0.2-9.9
		C1168.2,965.8,1163.2,960.8,1158.7,955.3z M1189.4,944.6c1.4-1,2.7-1.9,4.1-2.9c-5-8-10-15.9-16.3-26
		C1170.2,931.9,1175.3,941.1,1189.4,944.6z M1214.1,590.8c-5.6-4.8-9.6-8.1-13.5-11.5c-2.8,3.5-8.3,7.6-7.7,10.3
		c1.1,4.4,6.1,7.9,9.5,11.7C1205.6,598.4,1208.8,595.6,1214.1,590.8z M1131.5,1017.8c1.1,0.6,2.2,1.3,3.3,1.9
		c2.9-3.4,8.7-7.3,8.2-10.1c-0.8-5.4-5.3-10.3-8.2-15.4c-1.1,0.6-2.2,1.2-3.3,1.8C1131.5,1003.3,1131.5,1010.6,1131.5,1017.8z
		 M1170.4,1120.3c0.9,1.2,1.8,2.5,2.6,3.7c4.4-1.6,10.3-2.1,12.6-5.3c2-2.7-0.2-8.5-0.5-12.9c-1.5-0.3-3-0.5-4.4-0.8
		C1177.2,1110.1,1173.8,1115.2,1170.4,1120.3z M1195.9,492.8c-2.5-0.1-5.1-0.2-7.6-0.2c0,6.5,0,13.1,0,19.6c2.5-0.1,7.3,0,7.3-0.2
		C1196,505.6,1195.9,499.2,1195.9,492.8z M1245.6,1839.7c-7.1-14.6-15.4-28.8-20.8-44c-3.9-11.1-4.1-23.6-5.6-35.5
		c-1.3-10.1-5.6-13-15.7-9.5c-23.7,8.1-26.6,16-12,36.5c4.1,5.8,8.1,11.6,12.1,17.4c-0.9,1-1.7,1.9-2.6,2.9
		c-4.9-4.4-10.8-8.2-14.4-13.5c-7.7-11.5-14.6-23.6-21.1-35.8c-5.1-9.7-5.2-17.8,9.3-18.5c7.1-0.3,14.4-1.1,21.2-2.9
		c5.7-1.5,12.3-3.5,16.1-7.5c2.8-3,1.9-9.6,2.6-14.5c-4.4-0.2-8.9-0.8-13.2-0.4c-2.1,0.2-4,2.2-9.6,5.4c4.4-12.8,7.6-22.2,11-32.3
		c3.9,0.8,6.2,2,8.2,1.6c5.8-1.2,11.4-3.1,17.1-4.8c-2.2-5.7-2.7-13.1-6.7-16.8c-12-10.9-12-14.7,2.5-22.1
		c18.7-9.6,18.5-10.9,6.3-27.6c-3.2-4.4-4-13.7-1.5-18.6c3.9-7.7,11.3-13.7,17.7-20.1c14.4-14.4,28.8-28.9,43.8-42.7
		c3.7-3.4,9.8-7,14.2-6.3c22.3,3.5,43.1,12,59.9,27.2c6.2,5.6,11.6,14.9,12.5,23c2.2,19.5,8.3,40.7-9.8,56.8c-4.5,4-10,7.5-15.6,9.5
		c-16.8,5.7-21.3,13-17.5,29.9c1.2,5.1,2.1,10.5,2,15.7c-0.1,7.5-3.1,13.1-12.1,12.8c-6.3-0.2-12.6-0.1-18.9,0
		c-15.5,0.3-27.9,11.2-28.3,24.9c-0.3,11.2,11,22,24.3,24.7c7.5,1.6,20.7,5.1,20.7,7.9c0.1,8.7-2.9,18.9-8.3,25.7
		c-8.9,11.1-20.3,20.2-31.2,29.6c-3.2,2.7-8,3.6-12.1,5.3c-0.7-1.1-1.3-2.2-2-3.4c5.8-4.5,11.7-8.9,17.4-13.6
		c5.6-4.6,11.5-9,16.2-14.4c7.7-9,6-19.4-5.1-23.4c-18.1-6.6-30.7-16.9-34.9-36.5c-0.7-3.4-5.8-8.8-8.2-8.4
		c-3.9,0.6-7.4,4.8-10.5,8.1c-1.5,1.6-2.4,4.4-2.5,6.7c-0.8,29-8.2,58.5,7.2,86.3c2.1,3.8,2.5,8.5,3.6,12.8
		C1249.4,1838,1247.5,1838.9,1245.6,1839.7z M1249.3,1673.8c5.5-0.8,8.2-0.4,9.2-1.5c16.2-17.4,46.7-18.3,53.4-46.5
		c0.4-1.6,2.4-3.6,4-3.9c15-3.3,9.4-13,6.4-21.2c-3.6-9.7-12.1-11.6-20.2-7.7c-8.2,4-17.4,9.2-22.1,16.4
		c-9.4,14.6-17.5,29-35.6,35.1c-3.8,1.3-7.8,11.3-6.6,16.1C1239.2,1666.2,1246.1,1670.4,1249.3,1673.8z M1275.6,1689.1
		c1.1,1.8,2.1,3.6,3.2,5.4c10.5-2.5,21.5-3.9,31.3-8c4-1.7,5.6-9.1,8.2-13.9c-5.2-1.7-12.1-6.3-15.2-4.4
		C1293.2,1673.8,1284.7,1682,1275.6,1689.1z M1115.4,333.1c13.8,3.1,24,21.7,34.6-0.3c8.2,5.9,15.5,11.2,22.9,16.4
		c-0.6,1.9-1.3,3.9-1.9,5.8c-8.8-0.6-17.6-1.3-27.9-2c-8.4,8.7-4.7,32.5,9,57.3c-3.7-1.7-9.8-2.5-10.9-5.2
		C1132.5,382.2,1124.6,358.9,1115.4,333.1z"/>
	<path fill="#FF0000" d="M773.2,1181.4c-0.1,1.9-0.3,3.8-0.4,5.7c6.3,1.9,12.5,4.3,18.9,5.7c6.9,1.6,14.5,1.2,20.8,3.9
		c17.3,7.5,32.5,17.1,31.2,40c-0.2,3.6,5.4,7.6,8.3,11.4c3.8-3.8,9.9-7.1,10.8-11.4c1.1-5.3-2.3-11.5-3.5-17.3
		c-0.7-3.4-0.6-7-0.9-10.5c3.8,0.6,8,0.4,11.4,1.9c7.3,3.3,14.3,7.4,21.4,11.2c3.5,1.9,6.9,3.8,13,7c-6.9,3.8-12,5.1-14.7,8.5
		c-3.8,4.6-7.5,10.5-8.2,16.3c-0.8,6.9,1.6,14.1,2.4,21.2c0.9,8,3.7,10.6,11.2,5.4c3.7-2.6,9-6.2,12.5-5.3
		c11.9,3.2,24.3,6.6,34.5,13.1c11.6,7.4,20.6,6.6,31.8,0c4.7-2.8,11.9-1.3,18-1.6c6.3-0.3,13.7,1.6,18.5-1.2
		c8.6-5,16.4-12,22.9-19.6c9.6-11.3,20.5-16.8,35.4-14.9c3.8,0.5,9.7-0.6,11.7-3.2c12.9-16.4,30.9-23.3,49.6-30.1
		c5.2-1.9,8.6-8.8,12.9-13.5c-4.8-3.8-9-8.8-14.5-11c-7.9-3.2-14.8-4.9-10.1-16c1.1-2.7-0.2-8.8-2.3-10c-14-8.2-28-16.6-43-22.4
		c-5.4-2.1-13.7,2-20.2,4.7c-10.4,4.3-19.2,4.7-26.8-5.1c-5-6.5-12.4-9.8-18.5-2.9c-7.6,8.5-16.5,8.4-26.2,8
		c-9.7-0.4-19.7-1.5-29,0.4c-6.7,1.4-15.3,5.9-17.8,11.4c-2.1,4.6,1.6,15.9,6,18.4c5.6,3.1,16.9,3.3,21.6-0.5
		c11.8-9.3,18.1-4.9,23.7,5.4c8.9,16.7,23.6,26.1,40.2,33.6c3.9,1.8,9.6,2.4,11.3,5.4c2.2,3.9,3.1,13.1,1.4,14
		c-12.3,6.6-25.4,11.2-40.2,9.7c2.8-21.7,0.5-25.3-18.1-33.1c-3.9-1.6-8.1-3.7-10.6-6.8c-6.2-7.5-12.5-11.5-22.4-6.7
		c-2.7,1.3-7.3,1.7-9.8,0.2c-10.7-6.1-21.1-0.9-31.7-1c-16.3-0.2-34,3.4-48.8-10.1c-8.4-7.7-19.8-14.6-30.7-16.4
		c-13.5-2.2-27.9,0.9-41.9,2.5C780.5,1176.3,776.9,1179.5,773.2,1181.4z M851.5,1160.1c15.4,27.2,27.9,30.6,48.7,16.3
		c3.9-2.7,8.9-4,12.5-6.9c3.9-3.1,8.3-6.9,9.9-11.3c5.1-14.3,10-28.9,12.6-43.7c0.9-5.1-6.9-16.8-8.1-16.4
		c-25.2,7.3-53.6-21-76.6,6.6c-0.7,0.9-3,0.3-4.1,1.1c-4.1,2.8-8.1,5.9-12.2,8.8c3.9,4.8,7,11.8,12,13.8c9.1,3.6,19.4,4.4,29.3,6
		c8.6,1.4,15.9,4.8,13.5,14.6c-2.5,10.2-9.8,16.4-21.4,14.5C863.2,1162.7,858.7,1161.6,851.5,1160.1z M732.6,1130.8
		c0,0.3,0.1,0.7,0.1,1c8.2,0,16.7,1.3,24.4-0.5c5-1.2,11.7-6.4,12.6-10.7c0.8-4.3-3.6-12.5-7.9-14.4c-23.2-10.5-47.3-9.7-70.7-0.2
		c-7.7,3.1-15.2,10.9-10.2,19.1c3.3,5.3,13.2,8.4,20.3,8.8C711.7,1134.7,722.2,1132,732.6,1130.8z M751.9,1207.5
		c-3.9,0-7.8-0.2-11.6,0c-12.4,0.9-20.3,8.5-19.5,18.5c0.8,10.3,15.5,24.1,24.7,22.1c3.3-0.7,5.7-5.2,8.5-8
		c4.3-4.1,8.6-8.2,12.9-12.3c3.8-3.7,7.6-7.5,11.4-11.2c-5.4-3-10.6-6.6-16.3-8.9C759.1,1206.5,755.3,1207.5,751.9,1207.5z
		 M839.7,1254.9c-11.9-12.9-56-5-70.8,12.8C783.6,1279.9,825,1272.5,839.7,1254.9z M784.2,1153.2c22.2,1,40.8,1.9,59.5,2.8
		c-7.9-20.3-8.5-20.6-28.4-15.3c-2.6,0.7-6,0.9-8.3-0.2C796.5,1135.3,792.2,1142.2,784.2,1153.2z M716.8,1192.5
		c0-2.2-0.1-4.5-0.1-6.7c-5.6-2.5-11.3-7.2-16.6-6.7c-5,0.5-9.4,6.5-14,10c5.2,4.2,10,10.6,15.7,11.7
		C706.1,1201.6,711.7,1195.5,716.8,1192.5z M768.6,1146.1c-10.7-1.1-19-2.6-27.2-2.3c-3.1,0.1-6,4.6-9,7.1c2.8,3.3,5.2,8.8,8.6,9.4
		C751.1,1162.2,760.7,1160.2,768.6,1146.1z M808.4,1123.9c-5.2-4.1-8.3-8.3-12-8.9c-2.4-0.4-5.7,4.3-8.5,6.7c3.2,3.7,6,8,10,10.6
		C798.7,1132.9,803.4,1127.9,808.4,1123.9z M1045.1,1053.2c-3.4,3.7-6.5,5.5-6.7,7.6c-1.4,18.2-2.8,36.4-2.8,54.6c0,3.8,5,8.8,9,11
		c9.1,5.2,18.2,2.9,23.6-5.7c6.8-10.9,1.8-28.8-9-33.1c-11.1-4.4-18.8-9-12.7-22.7C1047.6,1062.4,1045.8,1058.7,1045.1,1053.2z
		 M1100,1090.1c-4.4,9.7-7.6,16.9-10.8,24c3.8,0.8,9.7,3.6,11,2.2C1106,1110.1,1112,1103,1100,1090.1z"/>
</g>
<g>
</g>
<g>
</g>
<g>
</g>
<g>
</g>
<g>
</g>
<g>
</g>
<g>
</g>
<g>
</g>
<g>
</g>
<g>
</g>
<g>
</g>
<g>
</g>
<g>
</g>
<g>
</g>
<g>
</g>
</svg>
