<?xml version="1.0" encoding="utf-8"?>
<!-- Generator: Adobe Illustrator 18.0.0, SVG Export Plug-In . SVG Version: 6.00 Build 0)  -->
<!DOCTYPE svg PUBLIC "-//W3C//DTD SVG 1.1//EN" "http://www.w3.org/Graphics/SVG/1.1/DTD/svg11.dtd">
<svg version="1.1" id="Layer_1" xmlns="http://www.w3.org/2000/svg" xmlns:xlink="http://www.w3.org/1999/xlink" x="0px" y="0px"
	 viewBox="0 0 1646.6 1712.5" enable-background="new 0 0 1646.6 1712.5" xml:space="preserve">
<g>
	<path fill-rule="evenodd" clip-rule="evenodd" d="M13.7,429.4C105.4,169.1,673.6-22.3,948.5,2.1c234.2,20.8,587,160.3,676.9,377.5
		c113.6,274.8-256.2,879.3-466.5,1089.6c-146.9,146.9-262.4,289-472.9,229.3C393.4,1615.5-87.3,716.3,13.7,429.4z"/>
	<path fill-rule="evenodd" clip-rule="evenodd" fill="#FFFFFF" d="M449.3,895.4c-22.4,22-22.4,22-22.4-25.1
		c-2.6-11.9,12-56.9,17.6-67.6c3.6-6.9,6.8-14.3,9-21.8c5.9-20.3,10.4-40.9,16.7-61c5.5-17.6,12.3-34.8,19.4-51.8
		c8.1-19.5,17.1-38.5,25.6-57.8c6.4-14.6,13.6-28.7,27.1-38.2c4.2-3,9-5.4,13.8-7.4c22.1-9.5,44.5-18.6,66.5-28.2
		c25.2-11,39.6-3.6,42.6,23.6c2.2,19.8,3.8,39.7,3.9,59.6c0.1,11.9-2.7,23.9-5.3,35.6c-3.2,14.1-13.8,21.2-27,24.4
		c-11.8,2.9-20.2-3.4-27.7-11.6c-3.8-4.2-7.1-8.9-11.4-12.6c-5.5-4.8-8.7-10.2-8.1-17.7c0.4-5.6-2-9.6-7.6-11
		c-6-1.6-9.1,2.2-11.4,6.9c-1,2-1.9,4.1-2.7,6.2c-2.3,5.9-6.3,9.6-12.8,9.1c-10.2-0.8-16.2,4.5-20.7,12.7c-1.5,2.6-3.1,5.3-5,7.5
		c-9.9,11.2-15,23.7-14.4,39.1c0.4,9.3-4.5,16.9-14.1,21.3c-3.5,1.6-6,6.3-7.9,10.1c-4.2,8.3-8.7,16.7-11.5,25.6
		c-3.6,11.4-6.4,23.2-8.1,35c-1.1,7.8,2.9,9.8,10.7,6.7c1.4-0.6,2.7-1.3,4.1-1.9c13.2-6.1,25.9-3,34.7,8.5
		c8.9,11.7,4.2,24.8-10.2,27c-11.8,1.8-23.9,2.5-35.9,2.9c-17.4,0.5-22.8,5.2-24.2,22.7c-0.4,4.5-0.5,8.9-0.7,13.4
		C451.1,879.7,449.3,895.4,449.3,895.4z M858.9,278.6c2.2-2,4.5-4,6.9-5.8c27.9-20.9,58.7-25.8,92-16.8c6.2,1.7,12.3,3.6,18.6,4.5
		c7.4,1.1,12.8-2,15.1-7.3c2.6-6-0.5-10.5-4.7-13.8c-8.1-6.5-13.6-15-19.2-23.5c-3.3-5-7.2-9.7-11.5-13.9
		c-13.9-14.1-31-18.6-49.8-13.2c-10.7,3.1-20.8,8.6-31,13.3c-5.4,2.5-9,6.8-10.4,12.7c-2.7,11.3-5.7,22.6-7.7,34
		c-1.5,8.7-3.1,17.2-9,24c-5.8,6.8-12,13.3-18.4,19.6c-10.4,10.2-8.8,23.2,4.3,29.3c4,1.8,8.6,2.3,13,3c12.3,1.8,24.6,3.2,36.9,5.2
		c4,0.6,8.1,2.1,11.7,4c6.4,3.3,8.2,8.4,5.7,15.2c-1.2,3.1-3.3,5.9-4.6,9c-2.7,6.6-0.7,17.2,4,21.1c6,5.1,11.8,1.8,17.9-0.5
		c10.5-4,21.2-7.9,32.1-10.4c14.8-3.5,15-2.9,9.4-16.6c-4.5-11-0.2-17.7,11.6-18c1.9,0,3.8,0.3,5.6,0.1c9.3-0.7,18-3.6,27-7.5
		c-6.8-11-12.7-20.8-18.9-30.6c-1.4-2.2-3.1-4.2-4.9-6.2c-1.3-1.4-2.7-2.6-4.2-3.7c-8.7-6.2-12.9-5.8-19.7,2.6
		c-17.7,22-44.2,21-61.8,16c-8.6-2.5-17-5.9-25.5-8.7c-6.3-2.1-11.8-5-13.7-13.1C857.1,280.9,857.9,279.5,858.9,278.6z
		 M1013.5,669.6c3.6,8.2,4.5,16.5,4.3,25.3c-0.1,9,0.4,18.1,1.9,27c2.8,17,12.4,29.6,27.2,38.3c15.3,8.9,30.7,17.7,45.8,26.8
		c5.4,3.3,10.5,3.5,16.1,1.5c12-4.4,17.3-13.6,14.8-26.9c-1.8-9.6-3.5-19.3-5.9-28.7c-3.2-12.7-6-25.8-11.1-37.8
		c-3.1-7.2-9.7-13.3-15.8-18.6c-5-4.4-11.7-6.8-17.5-10.1c-9.8-5.6-19.6-11.1-29.2-17.1c-10-6.3-20.8-10.3-33.7-13.9
		C1007.5,648.1,1009,659.1,1013.5,669.6z M792.7,505.9c0.9-5.5,1.5-11.4,0.4-16.8c-3-15.1-7.8-29.9-4.8-45.6c0.1-0.4,0-0.8-0.1-1.1
		c-0.6-3.7-2.4-7-6.3-6.5c-2.4,0.3-5.4,2.9-6.3,5.2c-1.6,4.1-1.9,8.8-2.6,13.2c-4,25.7-17.2,43.5-42.6,51.8
		c-12.9,4.2-15,10.3-10.9,23.5c5.6,18,10.5,36.1,16,54.1c2.2,7.1,5.3,14,7.9,21c6.5,17,20.1,28.9,31,42.6
		c8.5,10.7,22.1,11.3,33.6,3.6c10.2-6.9,11.4-13.5,2.5-21.8c-9-8.5-18.8-16.2-28.6-23.7c-8.1-6.2-13.8-14-17.5-23.1
		c-3.9-9.7-8.5-17.7-18.2-23.3c-10.7-6.1-9.9-20.1-0.1-27.4c6-4.5,11.5-9.6,17.2-14.4c3.3-2.8,6.7-5.6,12.1-10.1
		c2.8,4.9,5,8.8,7,12.3C790,516.2,791.8,511,792.7,505.9z M803.1,337c-10.5,2.7,35.8,54.2,3,94C879.3,431,807.6,352.8,803.1,337z"/>
</g>
<g>
</g>
<g>
</g>
<g>
</g>
<g>
</g>
<g>
</g>
<g>
</g>
<g>
</g>
<g>
</g>
<g>
</g>
<g>
</g>
<g>
</g>
<g>
</g>
<g>
</g>
<g>
</g>
<g>
</g>
</svg>
