<?xml version="1.0" encoding="utf-8"?>
<!-- Generator: Adobe Illustrator 18.0.0, SVG Export Plug-In . SVG Version: 6.00 Build 0)  -->
<!DOCTYPE svg PUBLIC "-//W3C//DTD SVG 1.1//EN" "http://www.w3.org/Graphics/SVG/1.1/DTD/svg11.dtd">
<svg version="1.1" id="Layer_1" xmlns="http://www.w3.org/2000/svg" xmlns:xlink="http://www.w3.org/1999/xlink" x="0px" y="0px"
	 viewBox="0 0 1494.7 2109.3" enable-background="new 0 0 1494.7 2109.3" xml:space="preserve">
<g>
	<path d="M1079.3,0.3c355.2-12.7,450.9,336.8,404.4,1082.4c-70.8,1137.1-376.2,1092.4-636,960c-250.3-127.5-542.4-420.9-712-828
		C-238.7,315.7,189.1,32.3,1079.3,0.3z"/>
	<path fill-rule="evenodd" clip-rule="evenodd" fill="#FFFFFF" d="M974.1,931.5c7-71.3,14.6-142.5,20.6-213.9
		c4.5-53.8,6.6-107.7,10.6-161.5c2.3-32.1,6.3-64.1,9.2-96.2c3.8-42.6,6.3-85.4,11.1-127.9c2.3-20.2,7.6-40.1,13.7-59.5
		c1.2-4,15.2-8.9,17.5-6.9c26.7,23.9,62.1,26.4,93,39.7c10.5,4.5,22,6.6,32.2,11.6c10.3,5.1,18.8,13.6,13.4,26.6
		c-5.4,12.9-15.4,17.7-29.4,12c-25.2-10.3-50.7-19.8-75.8-30.4c-21.7-9.1-27-5.4-29.3,17.4c-4.9,47.2-11.2,94.3-17.2,141.4
		c-1.4,11,0,18.1,14.1,16.3c6.3-0.9,13.6,0.1,19.6,2.4c26.3,10.2,52.6,20.4,78.2,32.3c7.9,3.7,16.1,11.3,19.5,19.1
		c6,13.8-13,28.9-29,20.4c-30-16.1-65.5-23-89.1-50.7c-7.8-9.1-10.4-0.5-11.5,5.4c-4,21.2-8.3,42.4-10.8,63.8
		c-2.9,25.3-4.5,50.7-5.8,76.1c-0.2,4.5,3,11.6,6.6,13.5c19,9.5,38.9,17.4,58.2,26.5c17.8,8.4,35.3,17.4,52.8,26.3
		c11.3,5.8,19,14.1,13.3,27.6c-6.3,15.1-18.3,12-29.1,6.7c-30.5-15.1-60.8-30.5-90.8-46.7c-11.9-6.5-18.5-4.2-20,8.9
		c-4.1,34.8-7.6,69.8-11.3,104.7c-4.2,40.2-8.4,80.4-12.4,120.6c-3.9,40.1-7.3,80.2-11.3,120.3c-3.6,35.7-7.4,71.4-11.5,107
		c-1.6,13.6,0,25,14.4,31.1c3,1.3,7,3.1,8.2,5.7c14,31.3,44,39.7,72.2,47.2c47.4,12.6,42.9,43.6,22.2,70.6
		c-9.5,12.4-4.4,17.8,6.7,22.5c23.1,9.7,26.5,18.3,15.9,42.2c-8.7,19.5-22.7,24.6-42.2,15.2c-6-2.9-11.8-6.5-17.7-9.6
		c-16.4-8.7-21.9-5.5-21.6,12.7c0.5,29.9,9,42.7,34.5,49.1c18.8,4.7,55.3,0.4,66.6-22.4c8.7-17.5,28.9-18.9,43-4.7
		c6.8,6.9,8.4,14.3-0.6,20.5c-10.2,7-20.3,14.7-31.5,19.9c-20,9.2-38.4,19.2-49.7,39.6c-2.6,4.7-11.2,8.7-17,8.6
		c-30.8-0.4-68.5-29.4-76.1-58c-2.6-9.7-2.1-20.2-4.7-29.8c-1-3.8-8.4-9.8-10.1-9c-22.8,11.1-18-9.5-20-18.5
		c-2.3-10.1,1.5-18.7,15.6-18c5.2,0.3,10.6-3.9,15.9-6.1c-3-4.5-5-10.7-9.2-13.1c-17.2-9.9-11.7-25.6-11.5-40
		c0.1-3.7,2.8-7.9,1.8-11.1c-1.7-5.4-5.4-10.2-8.2-15.3c-3.7,4.4-10.1,8.4-10.8,13.2c-4.7,34.7-10.2,69.6-11.7,104.5
		c-1.8,42.7-3.9,85-13.7,127c-5.6,24.1-4.7,49.7-7.7,74.6c-0.8,6.5-5.3,12.6-8.1,18.8c-1.6-6.3-4.8-12.7-4.4-18.9
		c2.2-37.9,5-75.9,8.1-113.7c3.2-39.3,6.7-78.5,10.5-117.7c4.2-43,9.2-86,13.4-129c2.7-27.7,4.4-55.5,6.9-83.3
		c4-45.5,8.1-90.9,12.2-136.3c3.7-40.3,7.4-80.5,11.1-120.8C975.3,931.6,974.7,931.6,974.1,931.5z M1057.1,989.5
		c0,2.9,0.5,5.9-0.1,8.7c-2.8,12-3,32-9.4,34.2c-16.3,5.6-19.9-12.7-26.7-23.8c-1.3-2.1-10.1-2.6-10.6-1.5
		c-3.9,8.1-10.1,17.4-8.9,25.3c2,13,8.3,25.4,24.7,28c14.9,2.4,23.2,11.9,22,27.2c-1.2,15.3-2.9,30.7-6.3,45.6
		c-4.1,18.1-18.7,22-33,10.5c-2.1-1.7-8.1-2.6-8.7-1.6c-4.8,7.4-11.5,15.2-12.2,23.3c-1.5,19.3,21.2,51.6,39.8,57.1
		c27,7.9,54.3,14.8,81.9,20.3c21.3,4.3,29.7-2.1,36.1-23c1.7-5.5,3.7-11,4.4-16.6c4.3-35.1-6.9-59.3-47.9-57
		c-5.2,0.3-11.6,0.8-15.6-1.6c-6.9-4.2-16.6-10.1-17.5-16.4c-1.6-11,2.6-22.9,4.4-34.4c8.3,2.3,16.6,4.6,24.8,7.1
		c1.3,0.4,2.4,1.7,3.7,2.2c10.4,4.7,22.9,12.2,30-1.9c7-13.8-2.6-23.5-15-29.8c-9.9-5-20.9-8.7-29-15.7
		c-6.3-5.5-12.2-15.2-12.4-23.2c-0.7-21.1,1.4-42.3,2.9-63.4c2.9-41.1,2.8-40.5,40.3-23.1c6.9,3.2,16.7,0,25.1-0.2
		c-1.2-9.7,1-22.2-4.3-28.3c-7.7-8.8-20.2-14.3-31.5-18.7c-36.4-14.1-35.3-35.3-9.6-60.8c25.6-25.6,24.8-35.7-8.4-49
		c-13.1-5.2-21.7-1.1-21.2,13.2c0.7,19.5,3.8,38.9,5.2,58.4c0.4,5.1-0.2,13.8-2.9,14.9c-5.9,2.5-15.5,4.1-19.7,0.9
		c-6.7-5-10.9-13.9-14.9-21.8c-3.4-6.9-4.4-12.3-12.4-3.1c-14.5,16.8-9.6,38.6,11.8,49.4c9.3,4.7,18.8,9.7,26.7,16.2
		c3.2,2.6,4.4,10.1,3.5,14.9c-3.7,19-8.6,37.8-13,56.7C1054.6,988.9,1055.9,989.2,1057.1,989.5z M357.4,1081.8
		c-2.2-14.5-7.3-28.5-9.5-43c-2.5-16-7.6-33.7-3.3-48.2c8-26.7,4.7-47.8-12.9-69.3c-16.8-20.5-29.8-43.9-25.5-72.2
		c2.8-18.5-12.2-51-27.1-62.7c-8.3-6.6-16.5-16.7-18.9-26.6c-4-16.8-12.6-28.4-25.9-38.1c-5-3.6-9.7-8.1-13.6-12.9
		c-6.4-8.1-8.8-15.7,3-22.4c3.5-2,6.9-10.2,5.6-13.9c-7.6-21.9-14.8-44.4-26.1-64.5c-4.5-8-18.9-10.4-28.7-15.4
		c0,8.4-1,16.9,0.2,25.2c4.2,29.8,9.4,59.5,13.6,89.3c7.5,52.7,9.6,107,49.8,148.7c1.9,2,3.5,4.8,4.2,7.5
		c7.5,31.1,15.5,62,21.9,93.3c5.9,28.6,9.6,57.6,15.1,86.2c1.1,5.7,4.5,12.2,9,15.8c10.9,8.7,22.8,16.2,34.7,23.6
		c7.2,4.5,15,8,25.6,13.5C352.3,1090.3,358,1085.6,357.4,1081.8z M261.9,545.7c16.9,33.5,34.5,66.6,64.9,90.6
		c7.1,5.6,12.5,13.4,18.3,20.5c16.2,19.9,25,19.1,36.2-3.7c2.1-4.3,3.3-9,5.8-13c5.5-8.9,9.8-19.7,17.5-25.9
		c16.6-13.2,16.7-18.4-1.4-30.1c-7.5-4.9-12.7-13.4-18.9-20.2c6.5-3.9,13.5-7.3,19.5-12c3.9-3.1,9.5-9.1,8.6-12.2
		c-1.3-4.5-8.2-11.1-11.8-10.6c-9,1.4-18.2,5.2-25.8,10.2c-11.9,7.9-19.5,1.7-27.9-5.4c-8.7-7.4-13-15.8-6.2-26.4
		c6.6-10.1,20.7-21,19.2-29.1c-1.9-10.1-15.9-18.7-26.1-26.1c-4.9-3.5-13.7-5.4-19.3-3.5c-20.6,6.8-55.6,59.6-55.7,85.7
		C259,535.8,259.6,541.2,261.9,545.7z M401.4,691.9c-3.8,1.5-11,3.5-10.9,4.5c0.7,5.8,1.8,12.4,5.3,16.9
		c46.9,60.1,110.2,99.5,175,136.7c6.8,3.9,21.4,5.9,24.7,2.1c8.3-9.5,13.3-22.5,17.2-34.9c1.1-3.7-5.6-14-9.3-14.4
		c-17.6-1.5-36.4-3.9-53,0.5c-12.1,3.2-17.7,2.1-23.6-7.1c-12.9-20.1-4.5-38.2,6.9-54.8c9.6-14,11.6-24.7-4.5-34.9
		c-3.3-2.1-6.5-11-5.7-11.7c12.2-9.9,1.2-16.1-3.4-22.8c-12.3-18.1-25.5-35.7-37.3-54.1c-8.7-13.5-15.3-14.5-24.8-2
		c-4.1,5.4-8.5,10.5-13,15.4c-12.5,13.5-8.5,28.5,9.3,34c14.1,4.4,28.4,8.3,42.2,13.7c3.9,1.5,6.1,7.5,9.2,11.4
		c-4.5,0.8-9.2,2.6-13.6,2.3c-13.3-0.9-26.7-4.2-39.9-3.8c-16.6,0.6-33.1,4-49.7,6.2C401.8,694.2,401.6,693,401.4,691.9z
		 M664.7,648.6c-2.3-2.1-5.9-3.8-6.8-6.4c-9.3-25.5-18.2-51.1-27-76.7c-1.3-3.9-1.4-8.2-2.1-12.3c4.2,1.1,8.3,2.7,12.6,3.3
		c5.7,0.7,14.6,3,16.6,0.5c3.1-4.2,3.7-12.5,1.9-17.8c-7.5-21.9-11.9-45.5-33.1-60.3c-4.3-3-5.7-10.8-7.4-16.6
		c-5.2-17.3-9.6-34.9-15-52.2c-0.9-2.8-5.4-4.4-8.2-6.5c-1.2,2.4-3.6,4.9-3.5,7.2c1.9,35.6-1,71.9,18.1,105c4.1,7,3.5,20.8-0.9,27.8
		c-15,24.1-33.4,46.1-48.6,70c-2.6,4.1,2.2,16.3,7.1,20.8c9.1,8.2,22.3,11.9,31.2,20.3c20.7,19.4,44.5,22.6,70.9,18.3
		c17.4-2.8,27.7,5.6,34.9,21c6.8,14.6,14.3,29.2,24.1,41.9c4.3,5.6,17.1,11,22.2,8.5c10.8-5.3,13.8-17.7,6-28.3
		c-14.6-20.1-30.3-39.3-45.6-58.8c-0.6-0.7-1.5-1.2-2.4-1.7c-17.4-8.3-24-23.2-27.4-41.2c-1-5.5-7.8-9.9-11.9-14.9
		c-2.4,7.2-6.4,14.3-6.7,21.6c-0.3,5.7,3.9,11.6,6.6,18.7C668.5,642.6,666.6,645.6,664.7,648.6z M419.9,388.8
		c-7.1,4.3-14.2,8.6-21.3,12.9c4.8,7.1,9,14.6,14.4,21.2c7.2,8.7,15.8,16.3,23,25.1c22.6,27.7,20,63.2,29.1,95.1
		c1.4,5.1,4.5,12.4,8.3,13.4c3.8,1,10.3-3.6,14-7.3c21.6-21.7,43.5-43.3,63.5-66.4c4.7-5.4,6.2-18.6,3-25
		c-8.8-17.5-20-33.9-32.1-49.3c-5-6.4-14.5-12.4-22.4-12.9c-25.7-1.6-51.6-0.6-77.4-0.6C421.2,392.9,420.5,390.9,419.9,388.8z
		 M740.7,847.9c-5.9-0.9-13.9,0.4-18.5,4c-20.2,15.6-42.8,20.7-67.6,19.4c-4.8-0.2-9.7,2.7-14.6,4.2c1.6,4.8,2.3,10.1,4.8,14.4
		c19.5,33,38.9,66,59.1,98.5c8,12.9,6.9,22.7-6.1,30.3c-11.2,6.6-13.7,16-9.1,26.9c3.1,7.5,8.8,13.9,13.4,20.8
		c4.3-7.4,10.6-14.3,12.4-22.3c3.4-14.8,3.2-30.4,6.2-45.4c9.2-45.8,19.2-91.5,28.8-137.1C745.9,855.8,743.8,848.4,740.7,847.9z
		 M464.8,1109.5c6.3-2.7,14.6-3.7,18.6-8.4c16.8-19.4,33-39.5,47.6-60.5c3-4.3-1.8-13.9-3-21.1c-6.2,3.9-13.5,6.7-18.2,11.9
		c-6.7,7.2-10.5,22.2-17.3,23.4c-22.1,3.6-28.2,18.7-33.6,36.1c-2.7,8.8-8.4,8.2-11.6,1.5c-5.6-11.7-9.2-24.4-14-36.6
		c-2.2-5.7-4.1-14.5-8.2-16c-13.9-4.9-33.7,16.1-28.1,29.8c6.8,16.8,15.1,33.2,24.6,48.6c8.6,13.7,21.2,11.7,29.7-2.6
		c2.4-4.1,6.7-7.1,10.2-10.6C462.5,1106.4,463.7,1108,464.8,1109.5z M747.5,523.8c-1.2-6.5-0.7-14-3.8-19.4
		c-16.9-29.6-34.5-58.7-52.4-87.7c-2-3.2-7.8-4.1-11.8-6.1c-0.1,4.8-1.4,10.1,0,14.5c6.5,19.4,13.6,38.7,20.7,57.9
		c12.8,34.3,25.2,68.8,39.2,102.5c4.3,10.4,15.4,18.4,26.9,11.6c3-1.8,0.1-16.9-2.8-25c-5.8-15.9-13.5-31.1-20.4-46.6
		C744.5,525,746,524.4,747.5,523.8z M976.1,1466.1c-0.2-2.1-1.7-4.1-2.6-6.2c-2,1.6-5.2,2.8-5.9,4.9c-4.9,14.5-11.2,28.9-13.6,43.9
		c-3.5,22.1,5.2,31.4,26.2,33.7c4.7,0.5,9.3,4.3,13.4,7.3c25.6,18.7,50.8,37.8,76.5,56.2c7.9,5.6,19.2,10.4,24.7-0.7
		c2.3-4.7-3.7-17.6-9.5-21.7c-24.6-17.4-49.3-35.7-76.4-48.4c-24.5-11.5-33.3-28.3-32.6-53.1
		C976.3,1476.8,976.5,1471.4,976.1,1466.1z M1082.6,1700.6c-1.7-6.1-3.1-13.7-7.5-17.2c-24.8-19.6-49.4-39.9-76.3-56.3
		c-16-9.7-29.2-19-34.5-37.6c-2.2-7.7-6.1-8.7-11.5-1.3c-13.5,18.6-6.7,40.5,15.2,48.2c4.4,1.5,8.3,4.5,12.1,7.3
		c22.9,16.7,45.5,33.7,68.6,50.1c7.2,5.1,15.7,8.4,24.1,12.8C1077,1704.1,1082.9,1701.5,1082.6,1700.6z M1137,153.3
		c-6.2,11.5,0.1,24,11.6,28.9c16.5,7,34.1,11.5,51.6,15.6c13.2,3.1,20.8-6.8,22.1-17.3c1-7.7-2.7-20.4-8.4-23.8
		c-15.3-9-32.8-14.1-52.8-22.2C1152.2,141.1,1141.3,145.4,1137,153.3z M824.4,748.7c22.9-8.4,46.4-15.7,68.5-25.9
		c6.2-2.9,8.4-14.5,12.4-22.1c-7.5,0.7-15.7-0.3-22.5,2.3c-27.2,10.7-54.2,14.9-81.9,2.4c-3.9-1.7-8.2-2.4-12.4-3.5
		c-9.8-2.4-13.6,1.9-9.5,10.6c7.9,17,17.1,35.3,43.7,31.4C823.2,745.5,823.8,747.1,824.4,748.7z M949.6,1710.2
		c14.5,13.2,29.5,26.2,45.3,37.8c19.6,14.4,40.2,27.7,60.8,40.7c3,1.9,8.7-0.3,13.1-0.6c-0.5-4.8,0.2-10.3-2-14.3
		c-2.4-4.4-7.1-7.8-11.3-10.9c-15.7-11.9-33-22-47.2-35.5c-15.6-15-42.2-16.5-49.7-41.3c-1.3-4.2-6.7-7.1-10.2-10.7
		c-3.1,5-6.2,10.1-10.1,16.5C942.4,1698.7,944.8,1705.8,949.6,1710.2z M885.2,952c1.9,5.1,3.7,10.2,5.6,15.3c4-3,9.8-5.2,11.6-9.2
		c5.4-11.8,7.2-25.7,14.3-36.3c9.1-13.6,13.8-24.6,0.7-38.1c-2.2-2.2,0.4-8.8,0.2-13.3c-0.2-4.4,0.1-10.3-2.4-12.8
		c-2.7-2.5-8.9-3.2-13-2.1c-18.4,4.8-25.1,20.4-17.9,37.6c2.1,5,0.9,11.4,0.8,17.2c-0.2,7.1-1.8,14.3-1.3,21.3
		c0.5,6.5,3,12.9,4.6,19.3C887.2,951.4,886.2,951.7,885.2,952z M403.7,1206.2c5.6,0.3,13.8-1.2,16.5-5.1c11-15.6,20.8-32.2,29.9-49
		c1.5-2.8-2.8-12.5-4-12.4c-16.8,1.2-22.1-12.6-31.5-21.8c-5.3-5.2-14.6-7.2-22.4-8.3c-2.2-0.3-8.9,9.1-7.8,11.5
		c3,6.7,7.9,14.1,14.1,17.6c16.6,9.5,19.5,18.5,9.1,34.8c-4,6.3-7.3,13.2-11.1,20.2C399.2,1198.8,401.3,1206.1,403.7,1206.2z
		 M1273.4,1190.7c5.3,0,10.9,1.1,15.9-0.2c10.4-2.7,16-9.5,10.4-20.4c-13.2-25.3-55.3-30.7-74.2-10.1c-9.4,10.2-6.4,18.5,4.5,22.5
		c13.7,5,28.5,7.2,42.8,10.6C1273,1192.3,1273.2,1191.5,1273.4,1190.7z M1228.9,259c17.2-0.1,26-8.6,26.1-25.2
		c0.1-16.9-14.8-31-33.3-30.3c-18.1,0.6-18.3,14.9-19.4,24.1C1202.3,250.7,1210.4,259.1,1228.9,259z M473.2,957.7
		c-0.3,7.7-1.4,15.4-0.7,23c0.3,3.5,3.2,8.9,6,9.7c10.6,2.8,35.8-22.8,33.4-33.2c-2.9-12.7-5.4-25.5-9.6-37.8
		c-1.6-4.7-6.8-9.2-11.5-11.4c-1.8-0.8-8.8,4.5-9.9,8.1c-4.3,13.4-7.1,27.2-10.5,40.9C471.3,957.2,472.3,957.4,473.2,957.7z
		 M1080.3,646.1c0,7.2-1,14.7,0.4,21.6c1,4.8,5.3,9,8.1,13.5c4.2-3.6,11.7-6.8,12.2-10.9c2.8-23.1,4.6-46.4,5.1-69.7
		c0.1-3.6-7.8-9.2-12.7-10.3c-2.4-0.5-8.9,6.8-9.7,11.2c-2.4,14.7-3,29.7-4.3,44.5C1079.6,646.1,1080,646.1,1080.3,646.1z
		 M940.9,641.1c-4.3,10.1-8.8,15.3-20.5,15.8c-6.4,0.3-12.6,6.5-18.5,10.7c-0.4,0.3,2.7,8.3,4.8,8.6c7,1.1,15.6,2.8,21.1-0.2
		c14.2-7.8,27.5-17.6,40.3-27.6c3.9-3,7.8-10,6.8-13.9c-1-3.8-8.2-6.1-16.1-11.3C952,629.6,943.8,634.2,940.9,641.1z M1053,1859.6
		c-1.6-5.4-3.6-12.4-7.8-15c-18.7-11.6-38.2-22-57.6-32.6c-2.7-1.5-6.2-1.4-9.3-2c1.2,3.2,1.4,7.6,3.7,9.6
		c17.3,14.6,34.8,28.8,52.5,42.9c2,1.6,5.4,1.7,9.7,2.9C1046.9,1863.6,1053.3,1860.6,1053,1859.6z M353.7,1181.6
		c-1.5-7.7-11.5-17.1-19.6-19.4c-12-3.3-19.6,6.4-19.8,18.4c-0.2,12.3,7,19.2,24.3,22.4C344,1195.8,354.8,1187.5,353.7,1181.6z
		 M551.1,697.2c8.3-10.2,19.2-19.3,24.1-31c4.7-11.1-6.7-15.7-16.3-15.6c-22,0.2-13.3,20.2-21.7,33.5
		C542,688.7,546.6,692.9,551.1,697.2z M1215.7,1126c0.2-14.4-13.5-17.3-26.5-17c-11,0.2-22.4,0.1-21.9,15.7
		c0.4,15.1,11.8,13.7,24.6,17.9C1200.3,1137.1,1215.6,1131.6,1215.7,1126z M561.2,772.2c-0.7,3,6.9,11,7.5,10.7
		c15.1-8.1,30.1-16.7,44.4-26.1c2.3-1.5,3-8.1,1.9-11.6c-0.8-2.6-5.5-4.1-6.3-4.7C591.5,739.4,564.5,757.8,561.2,772.2z
		 M334.2,747.1c0.1,15.6,26,51.7,40.3,56.7c1.2,0.4,2.7,0.1,4,0.2c0-1.7,0.7-3.8,0-5.2c-8.9-16.9-17.7-33.9-27.3-50.5
		c-2.5-4.2-7.6-6.9-14.2-12.7C335.5,741.3,334.1,744.2,334.2,747.1z M436.2,540.6c15.7-0.5,13.8-16.6,13.4-26.5
		c-0.3-6.9-9.2-13.4-14.3-20.1c-4.8,7-9.7,13.9-16.4,23.6C425.8,527.2,431.2,540.8,436.2,540.6z M203.4,492.3
		c0.7-1.1-10.4-13.1-11.9-12.4c-10.1,5.4-19.1,12.9-28.5,19.8c4.3,4.9,8.6,9.8,16.9,19.3C190.1,507.8,197.6,500.7,203.4,492.3z
		 M1126.5,614.5c-3.3,4.7-7.5,9.1-9.5,14.3c-2,5.2-3.1,11.4-2.3,16.8c1,6.8,4.4,13.2,6.8,19.8c2.9-6.6,6.2-13.1,8.6-19.9
		c1.6-4.5,1.9-9.4,3.2-16.6C1131.5,625.4,1129,619.9,1126.5,614.5z M330.8,339.4c6.9-7.1,13.8-14.1,20.7-21.2
		c-4.3-3.4-10.1-10.4-12.6-9.4c-7.2,2.9-13.2,9.1-22.2,16C323.7,332,327.3,335.7,330.8,339.4z M407.6,447.8c-4.7-5-9.4-10-14-15
		c-5.3,5.3-11.6,10-15.2,16.3c-1.4,2.3,3.4,8.3,7.5,17.2C395.5,458,401.6,452.9,407.6,447.8z M1004.3,1899.3
		c-1.2-0.5-5.3,5.3-8.1,8.2c5.9,4.6,11.7,9.6,18.1,13.4c1.2,0.7,5-3.1,12-7.5C1016.7,1907,1010.9,1902.4,1004.3,1899.3z M212.4,433
		c-5.7,6.7-11.7,13.1-16.6,20.3c-0.6,0.9,4.7,5.7,7.2,8.8c5.2-6.3,10.3-12.7,15.8-19.4C215.5,437.7,213.9,435.4,212.4,433z
		 M570.5,727.7c-3.3,0.1-6.5,5.1-9.7,7.9c3.6,3.7,6.6,9.1,10.9,10.3c2.6,0.8,7.2-4.8,14.1-9.9C578.4,731.8,574.4,727.6,570.5,727.7z
		 M244.7,375.9c-4.6,2.9-8.4,7.3-12.4,11.1c2.7,1.8,5.8,5.6,7.9,5.1c4.6-1.1,8.6-4.3,16.2-8.5C250,379.3,245.8,375.2,244.7,375.9z"
		/>
</g>
<g>
</g>
<g>
</g>
<g>
</g>
<g>
</g>
<g>
</g>
<g>
</g>
<g>
</g>
<g>
</g>
<g>
</g>
<g>
</g>
<g>
</g>
<g>
</g>
<g>
</g>
<g>
</g>
<g>
</g>
</svg>
